<svg width="534" height="104" viewBox="0 0 534 104" fill="none" xmlns="http://www.w3.org/2000/svg">
<path d="M87.1466 21.4423C89.1131 21.4423 90.7401 21.6736 92.1364 22.258V33.8864C90.1696 33.4235 89.1253 33.3019 87.1466 33.3019C76.3654 33.3019 70.4529 39.4629 70.4529 52.9542V76.3323H57.8142V22.1485H70.4529V30.8666C72.8932 25.8622 79.9592 21.4423 87.1466 21.4423ZM137.931 22.1363H150.57V76.3203H137.931V68.9901C134.568 74.4574 127.49 77.7085 121.238 77.7085C104.775 77.7085 93.5202 64.5701 93.5202 49.216C93.5202 33.8618 104.763 20.7239 121.238 20.7239C127.502 20.7239 134.568 23.9749 137.931 29.442V22.1119V22.1363ZM137.931 49.2283C137.931 39.9258 131.667 32.0234 121.93 32.0234C112.193 32.0234 106.159 39.9258 106.159 49.2283C106.159 58.5307 112.424 66.4454 121.93 66.4454C131.436 66.4454 137.931 58.543 137.931 49.2283ZM392.414 49.2283C392.414 64.5824 381.172 77.7205 364.696 77.7205C358.431 77.7205 351.365 74.4694 348.004 69.0024V103.546H335.363V22.1485H348.004V29.4785C351.365 24.0114 358.443 20.7604 364.696 20.7604C381.16 20.7604 392.414 33.8983 392.414 49.2525V49.2283ZM379.776 49.2283C379.776 39.9258 373.51 32.0234 364.003 32.0234C354.499 32.0234 348.004 39.9258 348.004 49.2283C348.004 58.5307 354.267 66.4454 364.003 66.4454C373.742 66.4454 379.776 58.543 379.776 49.2283ZM212.342 20.7969C197.482 20.7969 185.39 32.9245 185.39 47.8281V76.3569H197.882V47.8281C197.882 39.8284 204.366 33.3262 212.342 33.3262C220.318 33.3262 226.802 39.8284 226.802 47.8281V76.3569H239.295V47.8281C239.295 32.9245 227.202 20.7969 212.342 20.7969ZM298.505 20.7969C283.645 20.7969 271.553 32.9245 271.553 47.8281V76.3569H284.046V47.8281C284.046 39.8284 290.528 33.3262 298.505 33.3262C306.481 33.3262 312.965 39.8284 312.965 47.8281V76.3569H325.456V47.8281C325.456 32.9245 313.365 20.7969 298.505 20.7969ZM450.179 20.7969C435.318 20.7969 423.228 32.9245 423.228 47.8281V76.3569H435.721V47.8281C435.721 39.8284 442.204 33.3262 450.179 33.3262C458.157 33.3262 464.639 39.8284 464.639 47.8281V76.3569H477.132V47.8281C477.132 32.9245 465.039 20.7969 450.179 20.7969ZM161.897 76.3323H174.536V22.1485H161.897V76.3323ZM168.223 0C163.925 0 160.44 3.49456 160.44 7.80494C160.44 12.1153 163.925 15.6098 168.223 15.6098C172.52 15.6098 176.005 12.1153 176.005 7.80494C176.005 3.49456 172.52 0 168.223 0ZM249.08 76.3323H261.719V22.1485H249.08V76.3323ZM255.405 0C251.107 0 247.623 3.49456 247.623 7.80494C247.623 12.1153 251.107 15.6098 255.405 15.6098C259.703 15.6098 263.188 12.1153 263.188 7.80494C263.188 3.49456 259.703 0 255.405 0ZM400.754 76.3323H413.392V22.1485H400.754V76.3323ZM407.081 0C402.782 0 399.296 3.49456 399.296 7.80494C399.296 12.1153 402.782 15.6098 407.081 15.6098C411.377 15.6098 414.863 12.1153 414.863 7.80494C414.863 3.49456 411.377 0 407.081 0ZM529.543 63.7787C521.555 63.7787 515.047 57.2645 515.047 49.2405C515.047 41.2163 521.555 34.7021 529.543 34.7021V22.1485C519.565 22.1485 510.858 27.6156 506.185 35.7005L499.8 46.8174V0.98627H487.162V76.3323H499.8V61.5991C499.8 54.6832 501.887 53.1612 502.651 52.8811C502.835 53.7213 503.406 56.0103 503.418 56.0103C506.427 67.6751 516.979 76.3323 529.543 76.3323H534V63.7787H529.543ZM48.3811 22.1606H42.5412C34.6376 22.1606 24.6093 25.4117 24.6093 25.4117L26.8311 22.1606C29.5021 17.9599 31.0682 12.9676 31.0682 7.6223V0.888859H18.5511V7.6223C18.5511 15.6342 12.0558 22.1606 4.06717 22.1606H0V34.7143H4.06717C12.3107 34.7143 22.0355 31.4876 22.0355 31.4876L19.7773 34.7143C17.1063 38.9151 15.5402 43.9072 15.5402 49.2525C15.5402 64.1927 27.6567 76.3323 42.5534 76.3323V63.7787C34.5647 63.7787 28.0573 57.2645 28.0573 49.2405C28.0573 41.2163 34.5647 34.7021 42.5534 34.7021H48.393V22.1485L48.3811 22.1606Z" fill="#F3EFEC"/>
</svg>
