<svg width="262" height="51" viewBox="0 0 262 51" fill="none" xmlns="http://www.w3.org/2000/svg">
<g clip-path="url(#clip0_386_696)">
<mask id="mask0_386_696" style="mask-type:luminance" maskUnits="userSpaceOnUse" x="0" y="0" width="261" height="51">
<path d="M260.588 0.223145H0V50.7109H260.588V0.223145Z" fill="white"/>
</mask>
<g mask="url(#mask0_386_696)">
<path d="M42.5115 10.683C43.4708 10.683 44.2645 10.7959 44.9457 11.081V16.7535C43.9862 16.5277 43.4768 16.4684 42.5115 16.4684C37.2523 16.4684 34.3681 19.4738 34.3681 26.0551V37.4593H28.2027V11.0275H34.3681V15.2804C35.5585 12.8392 39.0054 10.683 42.5115 10.683ZM67.2851 11.0216H73.4505V37.4535H67.2851V33.8777C65.6446 36.5447 62.1919 38.1306 59.1418 38.1306C51.1109 38.1306 45.6207 31.7215 45.6207 24.2315C45.6207 16.7415 51.1049 10.3326 59.1418 10.3326C62.1977 10.3326 65.6446 11.9185 67.2851 14.5854V11.0097V11.0216ZM67.2851 24.2375C67.2851 19.6996 64.2291 15.8447 59.4793 15.8447C54.7294 15.8447 51.7861 19.6996 51.7861 24.2375C51.7861 28.7754 54.8421 32.6363 59.4793 32.6363C64.1166 32.6363 67.2851 28.7814 67.2851 24.2375ZM191.426 24.2375C191.426 31.7275 185.942 38.1365 177.905 38.1365C174.848 38.1365 171.402 36.5505 169.762 33.8837V50.7348H163.596V11.0275H169.762V14.6033C171.402 11.9363 174.855 10.3504 177.905 10.3504C185.936 10.3504 191.426 16.7593 191.426 24.2493V24.2375ZM185.261 24.2375C185.261 19.6996 182.204 15.8447 177.567 15.8447C172.931 15.8447 169.762 19.6996 169.762 24.2375C169.762 28.7754 172.817 32.6363 177.567 32.6363C182.318 32.6363 185.261 28.7814 185.261 24.2375ZM103.584 10.3682C96.3348 10.3682 90.4361 16.2843 90.4361 23.5545V37.4713H96.5302V23.5545C96.5302 19.6521 99.6929 16.4802 103.584 16.4802C107.475 16.4802 110.638 19.6521 110.638 23.5545V37.4713H116.732V23.5545C116.732 16.2843 110.833 10.3682 103.584 10.3682ZM145.616 10.3682C138.367 10.3682 132.468 16.2843 132.468 23.5545V37.4713H138.562V23.5545C138.562 19.6521 141.725 16.4802 145.616 16.4802C149.507 16.4802 152.669 19.6521 152.669 23.5545V37.4713H158.763V23.5545C158.763 16.2843 152.865 10.3682 145.616 10.3682ZM219.605 10.3682C212.356 10.3682 206.458 16.2843 206.458 23.5545V37.4713H212.552V23.5545C212.552 19.6521 215.714 16.4802 219.605 16.4802C223.497 16.4802 226.659 19.6521 226.659 23.5545V37.4713H232.753V23.5545C232.753 16.2843 226.854 10.3682 219.605 10.3682ZM78.9762 37.4593H85.1414V11.0275H78.9762V37.4593ZM82.0618 0.223145C79.9652 0.223145 78.2654 1.92785 78.2654 4.03052C78.2654 6.13318 79.9652 7.83789 82.0618 7.83789C84.1583 7.83789 85.8579 6.13318 85.8579 4.03052C85.8579 1.92785 84.1583 0.223145 82.0618 0.223145ZM121.505 37.4593H127.671V11.0275H121.505V37.4593ZM124.591 0.223145C122.494 0.223145 120.795 1.92785 120.795 4.03052C120.795 6.13318 122.494 7.83789 124.591 7.83789C126.687 7.83789 128.387 6.13318 128.387 4.03052C128.387 1.92785 126.687 0.223145 124.591 0.223145ZM195.494 37.4593H201.66V11.0275H195.494V37.4593ZM198.581 0.223145C196.484 0.223145 194.783 1.92785 194.783 4.03052C194.783 6.13318 196.484 7.83789 198.581 7.83789C200.676 7.83789 202.377 6.13318 202.377 4.03052C202.377 1.92785 200.676 0.223145 198.581 0.223145ZM258.32 31.3355C254.423 31.3355 251.249 28.1577 251.249 24.2435C251.249 20.3291 254.423 17.1514 258.32 17.1514V11.0275C253.453 11.0275 249.205 13.6945 246.926 17.6384L243.811 23.0615V0.704263H237.646V37.4593H243.811V30.2722C243.811 26.8985 244.829 26.156 245.201 26.0194C245.291 26.4293 245.57 27.5459 245.576 27.5459C247.044 33.2362 252.191 37.4593 258.32 37.4593H260.494V31.3355H258.32ZM23.6011 11.0335H20.7523C16.8968 11.0335 12.0048 12.6194 12.0048 12.6194L13.0887 11.0335C14.3916 8.98426 15.1556 6.54896 15.1556 3.94143V0.656745H9.04953V3.94143C9.04953 7.84977 5.88101 11.0335 1.98403 11.0335H0V17.1574H1.98403C6.00538 17.1574 10.7493 15.5833 10.7493 15.5833L9.64771 17.1574C8.34476 19.2066 7.58075 21.6418 7.58075 24.2493C7.58075 31.5374 13.4914 37.4593 20.7583 37.4593V31.3355C16.8612 31.3355 13.6868 28.1577 13.6868 24.2435C13.6868 20.3291 16.8612 17.1514 20.7583 17.1514H23.6069V11.0275L23.6011 11.0335Z" fill="#684744"/>
</g>
</g>
<defs>
<clipPath id="clip0_386_696">
<rect width="261.525" height="50.4144" fill="white" transform="translate(0 0.223145)"/>
</clipPath>
</defs>
</svg>
