<?xml version="1.0"?><!DOCTYPE svg  PUBLIC '-//W3C//DTD SVG 1.1//EN'  'http://www.w3.org/Graphics/SVG/1.1/DTD/svg11.dtd'><svg height="100%" style="fill-rule:evenodd;clip-rule:evenodd;stroke-linejoin:round;stroke-miterlimit:2;" version="1.1" viewBox="0 0 1785 448" width="100%" xml:space="preserve" xmlns="http://www.w3.org/2000/svg" xmlns:serif="http://www.serif.com/" xmlns:xlink="http://www.w3.org/1999/xlink"><g transform="matrix(1,0,0,1,-358.676,7.92781)"><path d="M827.834,154.864L1007.91,154.864L1007.91,188.388L937.01,188.388L937.01,377.369L898.145,377.369L898.145,188.388L827.537,188.388L827.834,154.864ZM1000.2,216.275L1033.43,216.275L1033.43,247.426L1034.02,247.426C1035.21,242.976 1037.29,238.822 1040.25,234.669C1043.22,230.515 1046.78,226.659 1051.23,223.395C1055.38,219.835 1060.13,217.165 1065.47,215.088C1070.51,213.012 1075.85,211.825 1081.19,211.825C1085.35,211.825 1088.31,212.122 1089.8,212.122C1091.28,212.418 1093.06,212.715 1094.54,212.715L1094.54,246.832C1092.17,246.239 1089.5,245.942 1086.83,245.646C1084.16,245.349 1081.79,245.052 1079.12,245.052C1073.18,245.052 1067.55,246.239 1062.21,248.612C1056.87,250.986 1052.41,254.546 1048.26,258.996C1044.4,263.743 1041.14,269.379 1038.77,276.203C1036.39,283.026 1035.21,291.037 1035.21,299.937L1035.21,376.479L999.608,376.479L1000.2,216.275ZM1258.01,377.369L1222.71,377.369L1222.71,354.821L1222.11,354.821C1217.66,363.128 1211.14,369.358 1202.53,374.402C1193.93,379.445 1185.03,381.819 1176.13,381.819C1155.06,381.819 1139.64,376.775 1130.14,366.095C1120.65,355.711 1115.9,339.691 1115.9,318.627L1115.9,216.275L1151.5,216.275L1151.5,315.067C1151.5,329.308 1154.17,339.394 1159.81,345.031C1165.15,350.965 1172.87,353.931 1182.65,353.931C1190.07,353.931 1196.3,352.745 1201.35,350.371C1206.39,347.998 1210.54,345.031 1213.51,341.174C1216.77,337.318 1218.85,332.571 1220.33,327.231C1221.82,321.891 1222.41,315.957 1222.41,309.727L1222.41,216.275L1258.01,216.275L1258.01,377.369ZM1318.24,325.747C1319.42,336.131 1323.28,343.251 1330.1,347.701C1336.92,351.855 1345.23,353.931 1354.73,353.931C1357.99,353.931 1361.85,353.635 1366,353.041C1370.15,352.448 1374.31,351.558 1377.87,350.075C1381.72,348.591 1384.69,346.515 1387.06,343.548C1389.44,340.581 1390.62,337.021 1390.33,332.571C1390.03,328.121 1388.55,324.264 1385.28,321.297C1382.02,318.331 1378.16,316.254 1373.42,314.177C1368.67,312.397 1363.03,310.914 1356.8,309.727C1350.57,308.54 1344.34,307.057 1337.82,305.574C1331.29,304.09 1324.76,302.31 1318.53,300.234C1312.3,298.157 1306.96,295.487 1301.92,291.63C1297.17,288.07 1293.02,283.62 1290.35,277.983C1287.38,272.346 1285.9,265.819 1285.9,257.513C1285.9,248.612 1287.97,241.492 1292.42,235.559C1296.58,229.625 1302.21,224.878 1308.74,221.318C1315.27,217.758 1322.68,215.088 1330.69,213.605C1338.7,212.122 1346.42,211.528 1353.54,211.528C1361.85,211.528 1369.86,212.418 1377.27,214.198C1384.69,215.978 1391.81,218.648 1397.74,222.802C1403.97,226.659 1409.02,231.999 1412.87,238.229C1417.03,244.459 1419.4,252.172 1420.59,261.073L1383.5,261.073C1381.72,252.469 1377.87,246.832 1371.93,243.866C1365.7,240.899 1358.88,239.415 1350.87,239.415C1348.5,239.415 1345.23,239.712 1341.97,240.009C1338.41,240.602 1335.44,241.196 1332.18,242.382C1329.21,243.569 1326.54,245.349 1324.46,247.426C1322.39,249.502 1321.2,252.469 1321.2,256.029C1321.2,260.479 1322.68,263.743 1325.65,266.413C1328.62,269.083 1332.48,271.16 1337.52,273.236C1342.27,275.016 1347.9,276.5 1354.13,277.686C1360.36,278.873 1366.89,280.356 1373.42,281.84C1379.94,283.323 1386.17,285.103 1392.4,287.18C1398.63,289.257 1404.27,291.927 1409.02,295.783C1413.76,299.344 1417.92,303.794 1420.88,309.134C1423.85,314.474 1425.33,321.297 1425.33,329.011C1425.33,338.504 1423.26,346.515 1418.81,353.338C1414.36,359.865 1408.72,365.502 1401.9,369.655C1395.07,373.809 1387.06,376.775 1378.76,378.852C1370.15,380.632 1361.85,381.819 1353.54,381.819C1343.45,381.819 1333.96,380.632 1325.36,378.259C1316.75,375.885 1309.04,372.325 1302.81,367.875C1296.58,363.128 1291.53,357.492 1287.97,350.371C1284.41,343.548 1282.34,335.241 1282.04,325.451L1317.94,325.451L1317.94,325.747L1318.24,325.747ZM1435.42,216.275L1462.42,216.275L1462.42,167.621L1498.02,167.621L1498.02,215.978L1530.06,215.978L1530.06,242.382L1498.02,242.382L1498.02,328.418C1498.02,332.274 1498.32,335.241 1498.61,338.208C1498.91,340.878 1499.8,343.251 1500.69,345.031C1501.88,346.811 1503.66,348.295 1505.73,349.185C1508.11,350.075 1511.07,350.668 1515.23,350.668C1517.6,350.668 1520.27,350.668 1522.64,350.371C1525.02,350.075 1527.69,349.778 1530.06,349.185L1530.06,376.775C1526.2,377.369 1522.35,377.665 1518.49,377.962C1514.63,378.555 1511.07,378.555 1506.92,378.555C1497.43,378.555 1490.01,377.665 1484.37,375.885C1478.74,374.105 1474.29,371.435 1471.02,368.172C1467.76,364.612 1465.68,360.458 1464.5,355.415C1463.31,350.371 1462.71,344.141 1462.42,337.614L1462.42,242.679L1435.42,242.679L1435.42,215.682L1435.42,216.275ZM1554.98,216.275L1588.5,216.275L1588.5,238.229L1589.1,238.229C1594.14,228.735 1600.97,222.208 1609.87,218.055C1618.77,213.902 1628.26,211.825 1638.94,211.825C1651.7,211.825 1662.67,213.902 1672.17,218.648C1681.66,223.098 1689.37,229.032 1695.6,237.042C1701.83,244.756 1706.58,253.952 1709.55,264.336C1712.51,274.72 1714.29,285.993 1714.29,297.563C1714.29,308.54 1712.81,318.924 1710.14,329.011C1707.17,339.098 1703.02,348.295 1697.38,356.008C1691.75,363.722 1684.63,369.952 1675.73,374.699C1666.83,379.445 1656.74,381.819 1644.87,381.819C1639.83,381.819 1634.49,381.225 1629.44,380.335C1624.4,379.445 1619.36,377.962 1614.61,375.885C1609.87,373.809 1605.41,371.138 1601.56,367.875C1597.4,364.612 1594.14,360.755 1591.47,356.601L1590.88,356.601L1590.88,437L1555.28,437L1555.28,216.275L1554.98,216.275ZM1679.29,296.97C1679.29,289.85 1678.4,282.73 1676.32,275.906C1674.54,269.083 1671.57,263.149 1667.72,257.809C1663.86,252.469 1659.11,248.316 1653.77,245.052C1648.14,241.789 1641.61,240.305 1634.49,240.305C1619.65,240.305 1608.38,245.349 1600.67,255.733C1593.25,266.116 1589.39,280.06 1589.39,297.267C1589.39,305.574 1590.28,312.99 1592.36,319.814C1594.44,326.637 1597.11,332.571 1601.26,337.614C1605.12,342.658 1609.87,346.515 1615.5,349.481C1621.14,352.448 1627.37,353.931 1634.79,353.931C1643.09,353.931 1649.62,352.151 1655.26,348.888C1660.89,345.625 1665.34,341.174 1669.2,336.131C1672.76,330.791 1675.43,324.857 1676.91,318.034C1678.4,310.914 1679.29,304.09 1679.29,296.97ZM1741.88,154.864L1777.49,154.864L1777.49,188.388L1741.88,188.388L1741.88,154.864ZM1741.88,216.275L1777.49,216.275L1777.49,377.369L1741.88,377.369L1741.88,216.275ZM1809.23,154.864L1844.83,154.864L1844.83,377.369L1809.23,377.369L1809.23,154.864ZM1953.41,381.819C1940.66,381.819 1929.09,379.742 1919,375.292C1908.91,370.842 1900.61,365.205 1893.49,357.788C1886.66,350.371 1881.32,341.174 1877.76,330.791C1874.2,320.407 1872.12,308.837 1872.12,296.673C1872.12,284.51 1873.9,273.236 1877.76,262.853C1881.32,252.469 1886.66,243.569 1893.49,235.855C1900.31,228.439 1908.91,222.505 1919,218.352C1929.09,214.198 1940.66,211.825 1953.41,211.825C1966.17,211.825 1977.74,213.902 1987.83,218.352C1997.91,222.505 2006.22,228.439 2013.34,235.855C2020.16,243.272 2025.5,252.469 2029.06,262.853C2032.62,273.236 2034.7,284.51 2034.7,296.673C2034.7,309.134 2032.92,320.407 2029.06,330.791C2025.21,341.174 2020.16,350.075 2013.34,357.788C2006.52,365.205 1997.91,371.138 1987.83,375.292C1977.74,379.445 1966.47,381.819 1953.41,381.819ZM1953.41,353.635C1961.13,353.635 1968.25,351.855 1973.88,348.591C1979.82,345.328 1984.27,340.878 1988.12,335.538C1991.98,330.198 1994.65,323.967 1996.43,317.441C1998.21,310.617 1999.1,303.794 1999.1,296.673C1999.1,289.85 1998.21,283.026 1996.43,276.203C1994.65,269.379 1991.98,263.446 1988.12,258.106C1984.27,252.766 1979.52,248.612 1973.88,245.349C1967.95,242.086 1961.13,240.305 1953.41,240.305C1945.7,240.305 1938.58,242.086 1932.94,245.349C1927.01,248.612 1922.56,253.062 1918.7,258.106C1914.85,263.446 1912.17,269.379 1910.39,276.203C1908.62,283.026 1907.73,289.85 1907.73,296.673C1907.73,303.794 1908.62,310.617 1910.39,317.441C1912.17,324.264 1914.85,330.198 1918.7,335.538C1922.56,340.878 1927.31,345.328 1932.94,348.591C1938.88,352.151 1945.7,353.635 1953.41,353.635ZM2045.38,216.275L2072.38,216.275L2072.38,167.621L2107.98,167.621L2107.98,215.978L2140.02,215.978L2140.02,242.382L2107.98,242.382L2107.98,328.418C2107.98,332.274 2108.28,335.241 2108.57,338.208C2108.87,340.878 2109.76,343.251 2110.65,345.031C2111.84,346.811 2113.62,348.295 2115.69,349.185C2118.07,350.075 2121.03,350.668 2125.19,350.668C2127.56,350.668 2130.23,350.668 2132.6,350.371C2134.98,350.075 2137.65,349.778 2140.02,349.185L2140.02,376.775C2136.16,377.369 2132.31,377.665 2128.45,377.962C2124.59,378.555 2121.03,378.555 2116.88,378.555C2107.39,378.555 2099.97,377.665 2094.33,375.885C2088.7,374.105 2084.25,371.435 2080.98,368.172C2077.72,364.612 2075.64,360.458 2074.46,355.415C2073.27,350.371 2072.68,344.141 2072.38,337.614L2072.38,242.679L2045.38,242.679L2045.38,215.682L2045.38,216.275Z" style="fill-rule:nonzero;"/></g><g id="Artboard1" transform="matrix(4.07045,0,0,1.02065,-1409.95,19.4363)"><rect height="438.476" style="fill:none;" width="438.476" x="346.386" y="-19.043"/><g transform="matrix(0.245673,0,0,0.979769,258.269,-11.2757)"><path d="M786.299,154.864L623.426,154.864L573.288,0L522.853,154.864L359.98,154.567L491.703,250.392L441.268,405.256L572.991,309.43L704.714,405.256L654.576,250.392L786.299,154.864Z" style="fill:rgb(0,182,122);fill-rule:nonzero;"/></g><g transform="matrix(0.245673,0,0,0.979769,258.269,-11.2757)"><path d="M665.85,285.4L654.576,250.392L573.288,309.43L665.85,285.4Z" style="fill:rgb(0,81,40);fill-rule:nonzero;"/></g></g></svg>