<svg width="132" height="44" viewBox="0 0 132 44" fill="none" xmlns="http://www.w3.org/2000/svg">
<g clip-path="url(#clip0_382_4506)">
<g clip-path="url(#clip1_382_4506)">
<g clip-path="url(#clip2_382_4506)">
<mask id="mask0_382_4506" style="mask-type:luminance" maskUnits="userSpaceOnUse" x="0" y="0" width="132" height="44">
<path d="M131.64 0H0.0100098V44H131.64V0Z" fill="white"/>
</mask>
<g mask="url(#mask0_382_4506)">
<path d="M121.159 1.89263e-06H10.4982C10.0948 1.89263e-06 9.69626 1.89242e-06 9.29395 0.00220189C8.95719 0.00440189 8.62311 0.0107929 8.28311 0.0161719C7.54447 0.0248639 6.80758 0.0898458 6.07882 0.210553C5.35108 0.333888 4.64615 0.566409 3.98785 0.900253C3.33036 1.23692 2.72959 1.67439 2.20734 2.19678C1.68234 2.71771 1.24472 3.31982 0.911295 3.97998C0.57695 4.63882 0.345115 5.34484 0.223795 6.07363C0.101322 6.80151 0.035418 7.53777 0.0266748 8.27583C0.0164668 8.61309 0.0153888 8.95147 0.0100098 9.28878V34.7144C0.0153888 35.056 0.0164668 35.3869 0.0266748 35.7285C0.0354206 36.4666 0.101325 37.2028 0.223795 37.9306C0.344779 38.6599 0.576629 39.3663 0.911295 40.0253C1.24457 40.6834 1.68225 41.2831 2.20734 41.8011C2.7276 42.3258 3.32876 42.7636 3.98785 43.0976C4.64615 43.4324 5.351 43.6663 6.07882 43.7915C6.8077 43.9113 7.54453 43.9763 8.28311 43.986C8.62311 43.9935 8.95719 43.9978 9.29395 43.9978C9.69625 44 10.0948 44 10.4982 44H121.159C121.553 44 121.955 44 122.351 43.9978C122.685 43.9978 123.03 43.9935 123.365 43.986C124.102 43.9769 124.837 43.9119 125.565 43.7915C126.294 43.6655 127.003 43.4316 127.664 43.0976C128.322 42.7633 128.922 42.3257 129.443 41.8011C129.966 41.2811 130.405 40.6818 130.743 40.0253C131.075 39.3658 131.304 38.6595 131.424 37.9306C131.546 37.2027 131.614 36.4666 131.627 35.7285C131.632 35.3869 131.632 35.056 131.632 34.7144C131.64 34.3148 131.64 33.9174 131.64 33.5112V10.4897C131.64 10.0869 131.64 9.68731 131.632 9.28878C131.632 8.95147 131.632 8.61309 131.627 8.27579C131.614 7.53766 131.546 6.80157 131.424 6.07359C131.304 5.34521 131.074 4.63925 130.743 3.97993C130.063 2.65672 128.987 1.57963 127.664 0.900154C127.003 0.567126 126.294 0.334666 125.565 0.210454C124.838 0.089215 124.102 0.0242105 123.365 0.0160179C123.03 0.0106499 122.685 0.00420389 122.351 0.00205889C121.955 -0.000141107 121.553 1.89263e-06 121.159 1.89263e-06Z" fill="#A6A6A6"/>
<path d="M9.29995 43.0359C8.9648 43.0359 8.63775 43.0316 8.30523 43.0242C7.61639 43.0151 6.92916 42.9552 6.24918 42.8448C5.61513 42.7355 5.0009 42.5325 4.42677 42.2421C3.85789 41.9541 3.33903 41.5766 2.89007 41.1238C2.4346 40.6764 2.0554 40.1575 1.7675 39.5877C1.47643 39.0141 1.27499 38.3993 1.1702 37.7647C1.05704 37.0828 0.995812 36.3934 0.987051 35.7022C0.980077 35.4702 0.970947 34.6978 0.970947 34.6978V9.28721C0.970947 9.28721 0.980671 8.52666 0.987106 8.30322C0.995495 7.61317 1.05636 6.92475 1.16919 6.24394C1.27418 5.60761 1.47576 4.99106 1.767 4.41563C2.05383 3.84617 2.43093 3.32688 2.88365 2.87789C3.33586 2.42462 3.85638 2.0451 4.42623 1.75317C4.99904 1.46374 5.6121 1.26204 6.24488 1.15483C6.92709 1.04326 7.61671 0.982933 8.30794 0.974369L9.30049 0.960938H122.346L123.35 0.974908C124.036 0.983046 124.719 1.04283 125.394 1.15376C126.033 1.26232 126.654 1.46542 127.232 1.75639C128.374 2.34473 129.303 3.27551 129.889 4.41831C130.176 4.98978 130.374 5.6013 130.478 6.23213C130.592 6.91853 130.655 7.61235 130.669 8.30806C130.672 8.61958 130.672 8.9542 130.672 9.28721C130.681 9.69971 130.681 10.0923 130.681 10.4882V33.5097C130.681 33.9093 130.681 34.2993 130.672 34.6924C130.672 35.0502 130.672 35.3778 130.667 35.7151C130.655 36.3984 130.593 37.0799 130.479 37.754C130.377 38.3932 130.177 39.0127 129.885 39.591C129.596 40.1546 129.219 40.6691 128.769 41.1152C128.319 41.5704 127.8 41.9501 127.229 42.24C126.651 42.5326 126.033 42.7364 125.394 42.8448C124.714 42.9559 124.027 43.0158 123.338 43.0242C123.016 43.0316 122.679 43.0359 122.352 43.0359L121.159 43.0381L9.29995 43.0359Z" fill="black"/>
<path d="M27.2558 22.3315C27.2676 21.4133 27.5114 20.5132 27.9647 19.7146C28.4179 18.916 29.0658 18.2451 29.8481 17.7642C29.3511 17.0546 28.6956 16.4705 27.9334 16.0585C27.1713 15.6465 26.3237 15.4179 25.4577 15.3908C23.6106 15.1969 21.8198 16.4961 20.8785 16.4961C19.919 16.4961 18.4698 15.4101 16.9092 15.4421C15.8997 15.4748 14.916 15.7682 14.0537 16.2941C13.1914 16.8201 12.48 17.5602 11.989 18.4428C9.86157 22.126 11.4485 27.5392 13.4863 30.5165C14.5059 31.9743 15.6975 33.6029 17.2567 33.5451C18.7825 33.4819 19.3523 32.5722 21.194 32.5722C23.0187 32.5722 23.5533 33.5451 25.1441 33.5084C26.7814 33.4819 27.8128 32.0441 28.7967 30.5724C29.5293 29.5335 30.093 28.3855 30.4669 27.1706C29.5157 26.7682 28.7041 26.0949 28.133 25.2344C27.562 24.3739 27.2569 23.3643 27.2558 22.3315Z" fill="white"/>
<path d="M24.2511 13.4334C25.1438 12.3618 25.5836 10.9844 25.477 9.59375C24.1133 9.73699 22.8535 10.3888 21.9488 11.4193C21.5064 11.9228 21.1676 12.5084 20.9517 13.1429C20.7358 13.7773 20.6472 14.4481 20.6907 15.1169C21.3728 15.1239 22.0477 14.976 22.6644 14.6845C23.2811 14.3929 23.8236 13.9651 24.2511 13.4334Z" fill="white"/>
<path d="M46.5436 29.8544H41.3369L40.0865 33.5465H37.8811L42.8128 19.8867H45.1041L50.0359 33.5465H47.7929L46.5436 29.8544ZM41.8761 28.1507H46.0033L43.9687 22.1587H43.9119L41.8761 28.1507Z" fill="white"/>
<path d="M60.6858 28.5666C60.6858 31.6615 59.0294 33.6498 56.5297 33.6498C55.8965 33.6829 55.2668 33.5371 54.7126 33.229C54.1584 32.9207 53.7022 32.4628 53.3962 31.9074H53.3489V36.8403H51.3047V23.5866H53.2835V25.243H53.321C53.6411 24.6903 54.105 24.2347 54.6633 23.9246C55.2218 23.6146 55.8537 23.4617 56.4921 23.4823C59.0198 23.4824 60.6858 25.4805 60.6858 28.5666ZM58.5847 28.5666C58.5847 26.5503 57.5427 25.2247 55.9528 25.2247C54.391 25.2247 53.3403 26.5783 53.3403 28.5666C53.3403 30.5732 54.391 31.9171 55.9528 31.9171C57.5427 31.9171 58.5847 30.6012 58.5847 28.5666Z" fill="white"/>
<path d="M71.6474 28.5666C71.6474 31.6615 69.9909 33.6498 67.4912 33.6498C66.858 33.6829 66.2282 33.5371 65.674 33.229C65.1198 32.9207 64.6637 32.4628 64.3577 31.9074H64.3104V36.8403H62.2661V23.5866H64.2449V25.243H64.2824C64.6025 24.6903 65.0664 24.2347 65.6249 23.9246C66.1832 23.6146 66.8152 23.4617 67.4536 23.4823C69.9812 23.4823 71.6474 25.4803 71.6474 28.5666ZM69.5461 28.5666C69.5461 26.5503 68.5042 25.2247 66.9143 25.2247C65.3524 25.2247 64.3018 26.5783 64.3018 28.5666C64.3018 30.5732 65.3524 31.9171 66.9143 31.9171C68.5042 31.9171 69.5461 30.6012 69.5461 28.5666Z" fill="white"/>
<path d="M78.8917 29.7379C79.0432 31.0925 80.3591 31.9819 82.1574 31.9819C83.8804 31.9819 85.12 31.0924 85.12 29.8711C85.12 28.8108 84.3724 28.176 82.6021 27.7409L80.8318 27.3145C78.3235 26.7086 77.159 25.5355 77.159 23.632C77.159 21.2751 79.2129 19.6562 82.1295 19.6562C85.0159 19.6562 86.9945 21.2751 87.0612 23.632H84.9976C84.8741 22.2687 83.7472 21.4459 82.1004 21.4459C80.4536 21.4459 79.3268 22.2784 79.3268 23.4902C79.3268 24.4559 80.0465 25.0241 81.8072 25.4592L83.3121 25.8287C86.1148 26.4915 87.2792 27.6173 87.2792 29.6153C87.2792 32.1709 85.2436 33.7714 82.0058 33.7714C78.9765 33.7714 76.9313 32.2085 76.7991 29.7377L78.8917 29.7379Z" fill="white"/>
<path d="M91.6917 21.2305V23.5873H93.5855V25.2062H91.6917V30.6965C91.6917 31.5495 92.0709 31.9469 92.9034 31.9469C93.1283 31.9429 93.3527 31.9272 93.5758 31.8996V33.5088C93.2015 33.5787 92.8211 33.6104 92.4404 33.6033C90.4241 33.6033 89.6377 32.8459 89.6377 30.9145V25.2062H88.1897V23.5873H89.6377V21.2305H91.6917Z" fill="white"/>
<path d="M94.6819 28.5673C94.6819 25.4338 96.5274 23.4648 99.4052 23.4648C102.293 23.4648 104.13 25.4338 104.13 28.5673C104.13 31.7095 102.302 33.6699 99.4052 33.6699C96.5091 33.6699 94.6819 31.7095 94.6819 28.5673ZM102.047 28.5673C102.047 26.4178 101.062 25.1492 99.4052 25.1492C97.7488 25.1492 96.7647 26.4275 96.7647 28.5673C96.7647 30.7254 97.7488 31.9845 99.4052 31.9845C101.062 31.9845 102.047 30.7254 102.047 28.5673Z" fill="white"/>
<path d="M105.815 23.5865H107.764V25.2816H107.812C107.944 24.7521 108.254 24.2843 108.69 23.9566C109.126 23.6289 109.662 23.4614 110.207 23.4822C110.443 23.4814 110.677 23.5071 110.907 23.5585V25.4707C110.61 25.3797 110.3 25.338 109.989 25.3471C109.692 25.335 109.396 25.3874 109.121 25.5006C108.846 25.6138 108.599 25.785 108.397 26.0027C108.195 26.2204 108.042 26.4794 107.949 26.7616C107.856 27.044 107.825 27.3431 107.859 27.6384V33.5455H105.815V23.5865Z" fill="white"/>
<path d="M120.334 30.6212C120.059 32.4292 118.297 33.6699 116.045 33.6699C113.147 33.6699 111.35 31.7287 111.35 28.6146C111.35 25.4908 113.157 23.4648 115.959 23.4648C118.714 23.4648 120.447 25.3576 120.447 28.3772V29.0776H113.413V29.2011C113.38 29.5676 113.427 29.9369 113.548 30.2843C113.669 30.6317 113.862 30.9494 114.116 31.2162C114.369 31.483 114.676 31.6928 115.017 31.8318C115.358 31.9707 115.725 32.0355 116.092 32.022C116.575 32.0673 117.06 31.9554 117.475 31.703C117.888 31.4506 118.211 31.0712 118.392 30.6212H120.334ZM113.422 27.6489H118.402C118.42 27.3194 118.37 26.9896 118.255 26.6801C118.14 26.3708 117.962 26.0887 117.732 25.8513C117.503 25.614 117.227 25.4266 116.922 25.301C116.617 25.1753 116.289 25.1142 115.959 25.1212C115.626 25.1192 115.296 25.1833 114.988 25.3094C114.68 25.4356 114.4 25.6216 114.164 25.8566C113.928 26.0916 113.741 26.3709 113.614 26.6786C113.487 26.9862 113.422 27.3159 113.422 27.6489Z" fill="white"/>
<path d="M39.9486 14.4008C40.0346 15.024 40.6436 15.4198 41.5223 15.4198C42.3409 15.4198 42.9413 14.997 42.9413 14.4148C42.9413 13.9143 42.5589 13.614 41.6898 13.4094L40.8445 13.2048C39.6575 12.9271 39.1161 12.354 39.1161 11.3899C39.1161 10.2206 40.071 9.44289 41.504 9.44289C42.0672 9.38008 42.6323 9.54297 43.0757 9.89591C43.519 10.2488 43.8045 10.7631 43.8695 11.326H42.8768C42.8116 11.0179 42.6326 10.7457 42.3756 10.5636C42.1186 10.3816 41.8025 10.303 41.4902 10.3436C40.6844 10.3436 40.1484 10.7303 40.1484 11.3216C40.1484 11.79 40.4944 12.0586 41.3494 12.2584L42.0724 12.4361C43.4184 12.7498 43.9738 13.2956 43.9738 14.2827C43.9738 15.5379 43.0005 16.3248 41.445 16.3248C39.9895 16.3248 39.0109 15.5744 38.9377 14.4009L39.9486 14.4008Z" fill="white"/>
<path d="M48.5796 12.8321C48.5172 12.5752 48.365 12.3492 48.1504 12.1948C47.9358 12.0406 47.6731 11.9682 47.4097 11.9909C46.5911 11.9909 46.0906 12.6182 46.0906 13.6737C46.0906 14.7474 46.5955 15.3887 47.4097 15.3887C47.6704 15.4189 47.9332 15.3528 48.1487 15.2029C48.3641 15.053 48.5173 14.8294 48.5796 14.5745H49.5302C49.4674 15.0759 49.211 15.5331 48.8159 15.8484C48.4207 16.1637 47.918 16.3121 47.4151 16.2621C47.0839 16.2725 46.7545 16.2105 46.4497 16.0802C46.145 15.9501 45.8724 15.755 45.6509 15.5084C45.4295 15.2618 45.2646 14.9699 45.1678 14.653C45.071 14.3361 45.0446 14.0019 45.0905 13.6738C45.0469 13.348 45.075 13.0166 45.1728 12.7028C45.2706 12.3891 45.4356 12.1004 45.6564 11.857C45.8772 11.6136 46.1486 11.4213 46.4514 11.2936C46.7543 11.166 47.0813 11.1058 47.4097 11.1176C47.9168 11.071 48.4222 11.224 48.8182 11.5442C49.2143 11.8643 49.4697 12.3264 49.5302 12.8321H48.5796Z" fill="white"/>
<path d="M50.5002 14.7652C50.5002 13.8737 51.1641 13.3596 52.3425 13.2866L53.6842 13.2093V12.7817C53.6842 12.2585 53.3384 11.9632 52.6702 11.9632C52.1245 11.9632 51.7463 12.1635 51.6379 12.5136H50.6914C50.7913 11.6629 51.5917 11.1172 52.7153 11.1172C53.9571 11.1172 54.6575 11.7354 54.6575 12.7817V16.1661H53.7164V15.4699H53.6391C53.4821 15.7196 53.2617 15.9232 53.0003 16.0598C52.7389 16.1964 52.4459 16.2612 52.1513 16.2476C51.9433 16.2693 51.7332 16.247 51.5344 16.1825C51.3356 16.1179 51.1524 16.0124 50.9969 15.8727C50.8414 15.7331 50.7167 15.5624 50.6313 15.3717C50.5457 15.1808 50.501 14.9743 50.5002 14.7652ZM53.6842 14.3419V13.9279L52.4746 14.0052C51.7925 14.0509 51.4831 14.2829 51.4831 14.7196C51.4831 15.1654 51.8699 15.4248 52.4016 15.4248C52.5575 15.4405 52.7149 15.4248 52.8645 15.3786C53.0141 15.3323 53.1528 15.2563 53.2725 15.1553C53.3921 15.0543 53.4903 14.9302 53.561 14.7905C53.6317 14.6507 53.6736 14.4983 53.6842 14.3419Z" fill="white"/>
<path d="M56.1897 11.2141H57.1307V11.9735H57.2038C57.3091 11.71 57.4953 11.4865 57.7355 11.3352C57.9759 11.1841 58.2579 11.1129 58.5412 11.1319C58.6876 11.1299 58.8338 11.1437 58.9773 11.1727V12.1374C58.7979 12.0992 58.615 12.0794 58.4316 12.0784C58.2703 12.0638 58.1079 12.0833 57.9546 12.1353C57.8013 12.1874 57.6606 12.271 57.5416 12.3806C57.4225 12.4902 57.3276 12.6236 57.2632 12.7721C57.1987 12.9205 57.1661 13.0809 57.1673 13.2428V16.1673H56.1897V11.2141Z" fill="white"/>
<path d="M60.0033 9.74906C59.9958 9.62245 60.0264 9.49649 60.0913 9.3875C60.1562 9.27851 60.2523 9.19151 60.3672 9.13778C60.482 9.08403 60.6105 9.06604 60.7357 9.0861C60.861 9.10616 60.9772 9.16336 61.0696 9.25031C61.1619 9.33724 61.2261 9.44991 61.2537 9.57371C61.2812 9.69751 61.2709 9.82674 61.2243 9.94466C61.1776 10.0626 61.0965 10.1637 60.9917 10.2351C60.8868 10.3064 60.7629 10.3446 60.636 10.3447C60.555 10.3488 60.4739 10.3365 60.3978 10.3085C60.3215 10.2805 60.2518 10.2374 60.1927 10.1818C60.1335 10.1262 60.0864 10.0591 60.0538 9.98477C60.0212 9.9104 60.0041 9.83023 60.0033 9.74906ZM60.1484 11.2137H61.1227V16.1669H60.1484V11.2137Z" fill="white"/>
<path d="M65.9409 12.8321C65.8785 12.5752 65.7263 12.3492 65.5117 12.1948C65.2971 12.0406 65.0344 11.9682 64.7711 11.9909C63.9524 11.9909 63.4519 12.6182 63.4519 13.6737C63.4519 14.7474 63.9568 15.3887 64.7711 15.3887C65.0318 15.4189 65.2946 15.3528 65.51 15.2029C65.7254 15.053 65.8787 14.8294 65.9409 14.5745H66.8915C66.8287 15.0759 66.5723 15.5331 66.1772 15.8484C65.7821 16.1637 65.2794 16.3121 64.7765 16.2621C64.4452 16.2725 64.1158 16.2105 63.811 16.0802C63.5063 15.9501 63.2337 15.755 63.0123 15.5084C62.7908 15.2618 62.626 14.9699 62.5292 14.653C62.4324 14.3361 62.406 14.0019 62.4518 13.6738C62.4083 13.348 62.4363 13.0166 62.5341 12.7028C62.6319 12.3891 62.7969 12.1004 63.0178 11.857C63.2387 11.6136 63.5099 11.4213 63.8127 11.2936C64.1156 11.166 64.4426 11.1058 64.7711 11.1176C65.2782 11.071 65.7835 11.224 66.1795 11.5442C66.5756 11.8643 66.831 12.3264 66.8915 12.8321H65.9409Z" fill="white"/>
<path d="M67.8616 14.7652C67.8616 13.8737 68.5254 13.3596 69.7038 13.2866L71.0455 13.2093V12.7817C71.0455 12.2585 70.6997 11.9632 70.0315 11.9632C69.4858 11.9632 69.1077 12.1635 68.9992 12.5136H68.0527C68.1526 11.6629 68.953 11.1172 70.0766 11.1172C71.3184 11.1172 72.0194 11.7354 72.0194 12.7817V16.1661H71.0777V15.4699H71.0004C70.8433 15.7196 70.6229 15.9232 70.3615 16.0598C70.1002 16.1964 69.8073 16.2612 69.5126 16.2476C69.3047 16.2693 69.0944 16.247 68.8957 16.1825C68.6968 16.1179 68.5138 16.0124 68.3582 15.8727C68.2027 15.7331 68.0781 15.5624 67.9926 15.3717C67.907 15.1808 67.8623 14.9743 67.8616 14.7652ZM71.0455 14.3419V13.9279L69.836 14.0052C69.1539 14.0509 68.8444 14.2829 68.8444 14.7196C68.8444 15.1654 69.2312 15.4248 69.7629 15.4248C69.9188 15.4406 70.0762 15.4248 70.2258 15.3786C70.3754 15.3323 70.5141 15.2564 70.6338 15.1553C70.7535 15.0543 70.8516 14.9302 70.9223 14.7905C70.9931 14.6507 71.035 14.4983 71.0455 14.3419Z" fill="white"/>
<path d="M78.0462 11.1172C79.1602 11.1172 79.8885 11.6355 79.9841 12.5088H79.0463C78.9561 12.1452 78.6005 11.9131 78.0462 11.9131C77.5005 11.9131 77.0859 12.1721 77.0859 12.5588C77.0859 12.8547 77.3362 13.0411 77.8733 13.1642L78.6961 13.3548C79.6381 13.5734 80.0797 13.9784 80.0797 14.7062C80.0797 15.6386 79.2107 16.2617 78.028 16.2617C76.8495 16.2617 76.0814 15.7294 75.9944 14.8517H76.9731C77.0573 15.0606 77.2094 15.2351 77.4048 15.3472C77.6002 15.4593 77.8275 15.5026 78.0505 15.4699C78.6596 15.4699 79.0925 15.1971 79.0925 14.8012C79.0925 14.5058 78.8604 14.3146 78.3641 14.1964L77.5005 13.9961C76.5584 13.7732 76.1222 13.3505 76.1222 12.6136C76.1222 11.7354 76.9269 11.1172 78.0462 11.1172Z" fill="white"/>
<path d="M85.5722 16.168H84.6302V15.3812H84.5528C84.4275 15.6668 84.2157 15.9057 83.9471 16.064C83.6785 16.2224 83.3669 16.2922 83.0564 16.2636C82.8169 16.2807 82.5766 16.2438 82.3531 16.1557C82.1296 16.0677 81.9288 15.9308 81.7652 15.755C81.6015 15.5792 81.4794 15.369 81.4077 15.1398C81.3359 14.9106 81.3164 14.6682 81.3506 14.4305V11.2148H82.3292V14.1759C82.3292 14.9762 82.6515 15.3587 83.3701 15.3587C83.5368 15.3745 83.7047 15.3528 83.862 15.2955C84.0192 15.2381 84.1617 15.1462 84.2789 15.0268C84.3961 14.9074 84.4852 14.7632 84.5396 14.605C84.5941 14.4468 84.6126 14.2783 84.5936 14.112V11.2148H85.5722V16.168Z" fill="white"/>
</g>
</g>
</g>
</g>
<defs>
<clipPath id="clip0_382_4506">
<rect width="132" height="44" fill="white" transform="translate(0.0100098)"/>
</clipPath>
<clipPath id="clip1_382_4506">
<rect width="132" height="44" fill="white" transform="translate(0.0100098)"/>
</clipPath>
<clipPath id="clip2_382_4506">
<rect width="132" height="44" fill="white" transform="translate(0.0100098)"/>
</clipPath>
</defs>
</svg>
