<svg width="166" height="55" viewBox="0 0 166 55" fill="none" xmlns="http://www.w3.org/2000/svg">
<path d="M152.311 2.36579e-06H13.9852C13.481 2.36579e-06 12.9828 2.36553e-06 12.4799 0.00275237C12.059 0.00550237 11.6414 0.0134911 11.2164 0.0202149C10.2931 0.0310798 9.37196 0.112307 8.46101 0.263191C7.55134 0.41736 6.67017 0.708012 5.8473 1.12532C5.02544 1.54615 4.27448 2.09299 3.62166 2.74597C2.96541 3.39713 2.41838 4.14978 2.00161 4.97497C1.58367 5.79853 1.29388 6.68104 1.14223 7.59204C0.98914 8.50189 0.90676 9.42222 0.895831 10.3448C0.883071 10.7664 0.881724 11.1893 0.875 11.611V43.393C0.881724 43.82 0.883071 44.2336 0.895831 44.6606C0.906764 45.5833 0.989143 46.5036 1.14223 47.4133C1.29346 48.3249 1.58327 49.2079 2.00161 50.0317C2.4182 50.8542 2.9653 51.6038 3.62166 52.2513C4.27199 52.9072 5.02344 53.4545 5.8473 53.872C6.67017 54.2905 7.55124 54.5829 8.46101 54.7394C9.37211 54.8891 10.2931 54.9704 11.2164 54.9825C11.6414 54.9918 12.059 54.9972 12.4799 54.9972C12.9828 55 13.481 55 13.9852 55H152.311C152.804 55 153.306 55 153.801 54.9972C154.219 54.9972 154.649 54.9918 155.069 54.9825C155.99 54.9711 156.909 54.8898 157.819 54.7394C158.73 54.5818 159.616 54.2895 160.442 53.872C161.265 53.4542 162.015 52.9071 162.666 52.2513C163.32 51.6014 163.869 50.8523 164.291 50.0317C164.706 49.2072 164.992 48.3243 165.142 47.4133C165.295 46.5034 165.38 45.5833 165.396 44.6606C165.402 44.2336 165.402 43.82 165.402 43.393C165.413 42.8935 165.413 42.3967 165.413 41.8891V13.1122C165.413 12.6086 165.413 12.1091 165.402 11.611C165.402 11.1893 165.402 10.7664 165.396 10.3447C165.38 9.42208 165.295 8.50196 165.142 7.59198C164.992 6.68151 164.705 5.79906 164.291 4.97492C163.441 3.3209 162.096 1.97454 160.442 1.12519C159.616 0.708907 158.73 0.418332 157.819 0.263067C156.91 0.111519 155.99 0.0302631 155.069 0.0200224C154.649 0.0133124 154.219 0.00525487 153.801 0.00257362C153.306 -0.000176384 152.804 2.36579e-06 152.311 2.36579e-06Z" fill="#171717"/>
<path d="M12.4874 53.7949C12.0685 53.7949 11.6597 53.7896 11.244 53.7802C10.383 53.7689 9.52393 53.694 8.67396 53.5559C7.8814 53.4194 7.11361 53.1656 6.39594 52.8026C5.68485 52.4426 5.03628 51.9707 4.47507 51.4048C3.90574 50.8455 3.43173 50.1968 3.07187 49.4846C2.70803 48.7676 2.45623 47.9992 2.32524 47.2059C2.18378 46.3536 2.10725 45.4917 2.0963 44.6278C2.08758 44.3378 2.07617 43.3723 2.07617 43.3723V11.609C2.07617 11.609 2.08833 10.6583 2.09637 10.379C2.10686 9.51646 2.18294 8.65594 2.32398 7.80493C2.45521 7.00952 2.70719 6.23883 3.07124 5.51954C3.42978 4.80771 3.90114 4.1586 4.46705 3.59736C5.03232 3.03077 5.68297 2.55637 6.39527 2.19146C7.11129 1.82967 7.87762 1.57755 8.66859 1.44354C9.52135 1.30407 10.3834 1.22867 11.2474 1.21796L12.4881 1.20117H153.795L155.05 1.21863C155.907 1.22881 156.761 1.30354 157.605 1.4422C158.404 1.57789 159.179 1.83177 159.903 2.19549C161.33 2.93091 162.492 4.09439 163.223 5.52289C163.582 6.23722 163.83 7.00162 163.96 7.79016C164.102 8.64816 164.182 9.51544 164.198 10.3851C164.202 10.7745 164.202 11.1927 164.202 11.609C164.213 12.1246 164.213 12.6154 164.213 13.1102V41.8871C164.213 42.3867 164.213 42.8741 164.202 43.3655C164.202 43.8127 164.202 44.2223 164.197 44.6439C164.182 45.498 164.103 46.3498 163.962 47.1924C163.834 47.9915 163.584 48.7659 163.219 49.4887C162.858 50.1932 162.386 50.8363 161.824 51.394C161.261 51.963 160.612 52.4377 159.899 52.8C159.177 53.1657 158.404 53.4205 157.605 53.5559C156.755 53.6948 155.896 53.7698 155.035 53.7802C154.632 53.7896 154.212 53.7949 153.802 53.7949L152.311 53.7977L12.4874 53.7949Z" fill="white"/>
<path d="M35.246 27.3485C35.2614 26.155 35.5783 24.9849 36.1675 23.9467C36.7565 22.9088 37.5987 22.0367 38.6155 21.4115C37.9696 20.489 37.1175 19.7299 36.1268 19.1943C35.1362 18.6588 34.0343 18.3616 32.9087 18.3264C30.5076 18.0744 28.1798 19.7632 26.9564 19.7632C25.7091 19.7632 23.8252 18.3515 21.7967 18.3931C20.4845 18.4356 19.2058 18.8172 18.0849 19.5007C16.9641 20.1842 16.0394 21.1464 15.401 22.2936C12.6358 27.0813 14.6984 34.1178 17.3473 37.9878C18.6727 39.883 20.2216 41.9998 22.2484 41.9247C24.2317 41.8425 24.9724 40.66 27.3664 40.66C29.7383 40.66 30.4332 41.9247 32.5011 41.877C34.6293 41.8425 35.97 39.9735 37.2489 38.0604C38.2011 36.7102 38.934 35.2178 39.4201 33.6387C38.1837 33.1157 37.1285 32.2403 36.3863 31.1218C35.644 30.0032 35.2473 28.6909 35.246 27.3485Z" fill="#171717"/>
<path d="M31.3398 15.7821C32.5002 14.3891 33.0719 12.5987 32.9335 10.791C31.1607 10.9772 29.5232 11.8245 28.347 13.164C27.7721 13.8185 27.3317 14.5797 27.0511 15.4044C26.7704 16.2291 26.6552 17.101 26.7117 17.9703C27.5985 17.9795 28.4757 17.7873 29.2773 17.4082C30.079 17.0292 30.7842 16.4732 31.3398 15.7821Z" fill="#171717"/>
<path d="M59.0396 37.318H52.5311L50.968 41.9331H48.2114L54.3761 24.8584H57.2402L63.4049 41.9331H60.6011L59.0396 37.318ZM53.2052 35.1884H58.3642L55.8209 27.6983H55.7497L53.2052 35.1884Z" fill="#171717"/>
<path d="M76.7201 35.7083C76.7201 39.5768 74.6495 42.0623 71.5249 42.0623C70.7333 42.1037 69.9461 41.9213 69.2534 41.5362C68.5607 41.1509 67.9905 40.5785 67.6081 39.8843H67.549V46.0503H64.9937V29.4832H67.467V31.5537H67.514C67.914 30.8629 68.494 30.2934 69.1919 29.9058C69.8899 29.5183 70.68 29.3272 71.4779 29.3529C74.6375 29.353 76.7201 31.8506 76.7201 35.7083ZM74.0935 35.7083C74.0935 33.1879 72.7911 31.5309 70.8038 31.5309C68.8513 31.5309 67.5382 33.2228 67.5382 35.7083C67.5382 38.2165 68.8513 39.8964 70.8038 39.8964C72.7911 39.8964 74.0935 38.2515 74.0935 35.7083Z" fill="#171717"/>
<path d="M90.4195 35.7083C90.4195 39.5768 88.3483 42.0623 85.2236 42.0623C84.4322 42.1037 83.645 41.9213 82.9523 41.5362C82.2595 41.1509 81.6893 40.5785 81.3068 39.8843H81.2477V46.0503H78.6924V29.4832H81.1657V31.5537H81.2128C81.6129 30.8629 82.1927 30.2934 82.8907 29.9058C83.5888 29.5183 84.3787 29.3272 85.1766 29.3529C88.3362 29.353 90.4195 31.8506 90.4195 35.7083ZM87.7924 35.7083C87.7924 33.1879 86.4899 31.5309 84.5026 31.5309C82.5502 31.5309 81.237 33.2228 81.237 35.7083C81.237 38.2165 82.5502 39.8964 84.5026 39.8964C86.4899 39.8964 87.7924 38.2515 87.7924 35.7083Z" fill="#171717"/>
<path d="M99.4771 37.1723C99.6665 38.8656 101.311 39.9773 103.559 39.9773C105.713 39.9773 107.263 38.8655 107.263 37.3388C107.263 36.0135 106.328 35.22 104.115 34.6761L101.902 34.1431C98.7668 33.3857 97.3112 31.9194 97.3112 29.54C97.3112 26.5939 99.8786 24.5703 103.523 24.5703C107.132 24.5703 109.606 26.5939 109.689 29.54H107.109C106.955 27.8359 105.547 26.8074 103.488 26.8074C101.429 26.8074 100.021 27.848 100.021 29.3627C100.021 30.5698 100.921 31.2802 103.121 31.824L105.003 32.2858C108.506 33.1144 109.96 34.5216 109.96 37.0191C109.96 40.2137 107.417 42.2143 103.37 42.2143C99.5831 42.2143 97.0265 40.2606 96.8613 37.1722L99.4771 37.1723Z" fill="#171717"/>
<path d="M115.477 26.5381V29.4842H117.844V31.5077H115.477V38.3706C115.477 39.4368 115.951 39.9336 116.992 39.9336C117.273 39.9287 117.553 39.909 117.832 39.8745V41.886C117.364 41.9734 116.889 42.013 116.413 42.0041C113.893 42.0041 112.91 41.0574 112.91 38.6432V31.5077H111.1V29.4842H112.91V26.5381H115.477Z" fill="#171717"/>
<path d="M119.212 35.7091C119.212 31.7923 121.519 29.3311 125.117 29.3311C128.726 29.3311 131.022 31.7923 131.022 35.7091C131.022 39.6368 128.738 42.0873 125.117 42.0873C121.496 42.0873 119.212 39.6368 119.212 35.7091ZM128.418 35.7091C128.418 33.0222 127.187 31.4365 125.117 31.4365C123.046 31.4365 121.815 33.0343 121.815 35.7091C121.815 38.4067 123.046 39.9806 125.117 39.9806C127.187 39.9806 128.418 38.4067 128.418 35.7091Z" fill="#171717"/>
<path d="M133.128 29.4831H135.565V31.602H135.625C135.79 30.9402 136.177 30.3554 136.723 29.9458C137.268 29.5362 137.937 29.3268 138.619 29.3527C138.913 29.3518 139.207 29.3838 139.495 29.4482V31.8383C139.123 31.7246 138.736 31.6725 138.346 31.6839C137.975 31.6688 137.605 31.7342 137.262 31.8757C136.918 32.0172 136.609 32.2313 136.356 32.5034C136.103 32.7755 135.912 33.0992 135.796 33.452C135.68 33.805 135.642 34.1789 135.684 34.548V41.9319H133.128V29.4831Z" fill="#171717"/>
<path d="M151.277 38.2765C150.933 40.5365 148.733 42.0873 145.917 42.0873C142.295 42.0873 140.047 39.6609 140.047 35.7683C140.047 31.8635 142.308 29.3311 145.81 29.3311C149.254 29.3311 151.42 31.697 151.42 35.4715V36.347H142.627V36.5014C142.587 36.9596 142.643 37.4211 142.796 37.8554C142.947 38.2896 143.189 38.6867 143.505 39.0203C143.823 39.3537 144.207 39.6161 144.633 39.7897C145.058 39.9634 145.517 40.0444 145.976 40.0275C146.58 40.0841 147.186 39.9443 147.703 39.6287C148.222 39.3133 148.625 38.839 148.851 38.2765H151.277ZM142.639 34.5611H148.862C148.886 34.1492 148.824 33.737 148.68 33.3502C148.535 32.9635 148.314 32.6108 148.026 32.3141C147.74 32.0175 147.395 31.7832 147.013 31.6262C146.632 31.4692 146.222 31.3927 145.81 31.4015C145.393 31.3991 144.981 31.4791 144.596 31.6368C144.211 31.7945 143.86 32.027 143.566 32.3207C143.272 32.6146 143.038 32.9637 142.878 33.3483C142.719 33.7327 142.638 34.1449 142.639 34.5611Z" fill="#171717"/>
<path d="M50.8007 18.001C50.9081 18.78 51.6695 19.2747 52.7678 19.2747C53.7911 19.2747 54.5416 18.7463 54.5416 18.0185C54.5416 17.3929 54.0636 17.0175 52.9772 16.7618L51.9205 16.506C50.4368 16.1588 49.76 15.4424 49.76 14.2374C49.76 12.7757 50.9536 11.8036 52.745 11.8036C53.449 11.7251 54.1553 11.9287 54.7096 12.3699C55.2637 12.8111 55.6205 13.4538 55.7018 14.1575H54.461C54.3794 13.7724 54.1557 13.4321 53.8344 13.2046C53.5132 12.977 53.118 12.8787 52.7277 12.9295C51.7205 12.9295 51.0504 13.4128 51.0504 14.152C51.0504 14.7375 51.4829 15.0733 52.5517 15.323L53.4554 15.5452C55.1379 15.9373 55.8321 16.6194 55.8321 17.8534C55.8321 19.4224 54.6155 20.4061 52.6711 20.4061C50.8517 20.4061 49.6285 19.468 49.5371 18.0012L50.8007 18.001Z" fill="#171717"/>
<path d="M61.587 16.0401C61.509 15.719 61.3187 15.4364 61.0504 15.2435C60.7822 15.0508 60.4538 14.9603 60.1247 14.9886C59.1014 14.9886 58.4758 15.7728 58.4758 17.0921C58.4758 18.4342 59.1069 19.2358 60.1247 19.2358C60.4505 19.2737 60.779 19.191 61.0484 19.0036C61.3176 18.8162 61.5092 18.5368 61.587 18.2181H62.7752C62.6967 18.8449 62.3762 19.4164 61.8823 19.8105C61.3884 20.2047 60.76 20.3902 60.1314 20.3276C59.7174 20.3407 59.3056 20.2631 58.9246 20.1003C58.5437 19.9376 58.203 19.6937 57.9262 19.3854C57.6494 19.0773 57.4433 18.7124 57.3223 18.3162C57.2013 17.9201 57.1683 17.5024 57.2256 17.0922C57.1712 16.6849 57.2062 16.2708 57.3285 15.8785C57.4507 15.4864 57.6569 15.1256 57.933 14.8213C58.209 14.517 58.5482 14.2766 58.9268 14.117C59.3053 13.9575 59.7141 13.8823 60.1247 13.897C60.7585 13.8387 61.3902 14.03 61.8852 14.4302C62.3804 14.8303 62.6996 15.408 62.7752 16.0401H61.587Z" fill="#171717"/>
<path d="M63.9878 18.4565C63.9878 17.3421 64.8176 16.6996 66.2906 16.6083L67.9677 16.5116V15.9771C67.9677 15.3232 67.5354 14.954 66.7003 14.954C66.0181 14.954 65.5454 15.2044 65.4098 15.642H64.2268C64.3516 14.5786 65.3521 13.8965 66.7566 13.8965C68.3089 13.8965 69.1843 14.6692 69.1843 15.9771V20.2076H68.008V19.3374H67.9114C67.7151 19.6495 67.4396 19.904 67.1129 20.0748C66.7861 20.2455 66.4199 20.3265 66.0517 20.3095C65.7917 20.3366 65.529 20.3088 65.2804 20.2281C65.032 20.1474 64.803 20.0155 64.6086 19.8409C64.4142 19.6664 64.2584 19.453 64.1516 19.2146C64.0446 18.976 63.9888 18.7179 63.9878 18.4565ZM67.9677 17.9274V17.4099L66.4558 17.5065C65.6031 17.5636 65.2164 17.8536 65.2164 18.3995C65.2164 18.9568 65.6998 19.281 66.3645 19.281C66.5593 19.3006 66.7561 19.281 66.9431 19.2232C67.1301 19.1653 67.3035 19.0703 67.4531 18.9441C67.6027 18.8179 67.7253 18.6628 67.8137 18.4882C67.9021 18.3134 67.9545 18.1228 67.9677 17.9274Z" fill="#171717"/>
<path d="M71.0996 14.0176H72.2759V14.9669H72.3672C72.4988 14.6375 72.7316 14.3581 73.0319 14.169C73.3323 13.9801 73.6849 13.8911 74.0389 13.9149C74.222 13.9124 74.4047 13.9296 74.5841 13.9659V15.1718C74.3599 15.1239 74.1312 15.0992 73.902 15.098C73.7004 15.0798 73.4973 15.1041 73.3058 15.1692C73.1141 15.2342 72.9383 15.3387 72.7895 15.4758C72.6406 15.6128 72.522 15.7795 72.4415 15.9652C72.3609 16.1507 72.3201 16.3511 72.3216 16.5535V20.2091H71.0996V14.0176Z" fill="#171717"/>
<path d="M75.8666 12.1863C75.8573 12.0281 75.8955 11.8706 75.9766 11.7344C76.0577 11.5981 76.1779 11.4894 76.3215 11.4222C76.465 11.355 76.6256 11.3325 76.7821 11.3576C76.9387 11.3827 77.084 11.4542 77.1995 11.5629C77.3149 11.6716 77.3951 11.8124 77.4296 11.9671C77.464 12.1219 77.4512 12.2834 77.3929 12.4308C77.3344 12.5782 77.2331 12.7047 77.1021 12.7938C76.971 12.883 76.8161 12.9307 76.6575 12.9309C76.5562 12.9361 76.4548 12.9207 76.3597 12.8857C76.2644 12.8507 76.1772 12.7968 76.1034 12.7272C76.0294 12.6577 75.9704 12.5739 75.9297 12.481C75.889 12.388 75.8676 12.2878 75.8666 12.1863ZM76.048 14.0172H77.2658V20.2087H76.048V14.0172Z" fill="#171717"/>
<path d="M83.2886 16.0401C83.2107 15.719 83.0204 15.4364 82.7521 15.2435C82.4838 15.0508 82.1555 14.9603 81.8263 14.9886C80.803 14.9886 80.1774 15.7728 80.1774 17.0921C80.1774 18.4342 80.8085 19.2358 81.8263 19.2358C82.1522 19.2737 82.4807 19.191 82.75 19.0036C83.0193 18.8162 83.2108 18.5368 83.2886 18.2181H84.4769C84.3984 18.8449 84.0779 19.4164 83.584 19.8105C83.0901 20.2047 82.4617 20.3902 81.8331 20.3276C81.419 20.3407 81.0072 20.2631 80.6262 20.1003C80.2453 19.9376 79.9046 19.6937 79.6278 19.3854C79.351 19.0773 79.1449 18.7124 79.0239 18.3162C78.9029 17.9201 78.8699 17.5024 78.9273 17.0922C78.8728 16.6849 78.9079 16.2708 79.0301 15.8785C79.1524 15.4864 79.3586 15.1256 79.6347 14.8213C79.9108 14.517 80.2499 14.2766 80.6284 14.117C81.007 13.9575 81.4157 13.8823 81.8263 13.897C82.4602 13.8387 83.0919 14.03 83.5869 14.4302C84.082 14.8303 84.4013 15.408 84.4769 16.0401H83.2886Z" fill="#171717"/>
<path d="M85.6895 18.4565C85.6895 17.3421 86.5193 16.6996 87.9923 16.6083L89.6694 16.5116V15.9771C89.6694 15.3232 89.2371 14.954 88.4019 14.954C87.7198 14.954 87.2471 15.2044 87.1115 15.642H85.9284C86.0533 14.5786 87.0537 13.8965 88.4583 13.8965C90.0105 13.8965 90.8867 14.6692 90.8867 15.9771V20.2076H89.7097V19.3374H89.613C89.4167 19.6495 89.1411 19.904 88.8144 20.0748C88.4877 20.2455 88.1216 20.3265 87.7532 20.3095C87.4933 20.3366 87.2306 20.3088 86.9821 20.2281C86.7335 20.1474 86.5047 20.0155 86.3103 19.8409C86.1158 19.6664 85.9601 19.453 85.8532 19.2146C85.7462 18.976 85.6904 18.7179 85.6895 18.4565ZM89.6694 17.9274V17.4099L88.1574 17.5065C87.3048 17.5636 86.918 17.8536 86.918 18.3995C86.918 18.9568 87.4015 19.281 88.0661 19.281C88.261 19.3008 88.4577 19.281 88.6447 19.2232C88.8317 19.1653 89.0051 19.0705 89.1547 18.9441C89.3043 18.8179 89.427 18.6628 89.5154 18.4882C89.6038 18.3134 89.6562 18.1228 89.6694 17.9274Z" fill="#171717"/>
<path d="M98.4203 13.8965C99.8127 13.8965 100.723 14.5444 100.843 15.636H99.6704C99.5577 15.1816 99.1131 14.8914 98.4203 14.8914C97.7381 14.8914 97.2199 15.2151 97.2199 15.6986C97.2199 16.0684 97.5327 16.3014 98.2041 16.4552L99.2326 16.6935C100.41 16.9667 100.962 17.473 100.962 18.3827C100.962 19.5483 99.8758 20.3271 98.3974 20.3271C96.9244 20.3271 95.9642 19.6617 95.8555 18.5646H97.0788C97.1841 18.8257 97.3743 19.0439 97.6185 19.184C97.8627 19.3242 98.1469 19.3782 98.4256 19.3374C99.187 19.3374 99.7282 18.9964 99.7282 18.5015C99.7282 18.1323 99.438 17.8932 98.8176 17.7455L97.7381 17.4951C96.5604 17.2166 96.0152 16.6881 96.0152 15.767C96.0152 14.6692 97.0211 13.8965 98.4203 13.8965Z" fill="#171717"/>
<path d="M107.828 20.21H106.65V19.2265H106.554C106.397 19.5835 106.132 19.8821 105.796 20.08C105.461 20.278 105.071 20.3653 104.683 20.3295C104.384 20.3508 104.083 20.3048 103.804 20.1946C103.525 20.0846 103.273 19.9135 103.069 19.6937C102.864 19.474 102.712 19.2112 102.622 18.9247C102.532 18.6383 102.508 18.3352 102.551 18.0381V14.0186H103.774V17.7199C103.774 18.7202 104.177 19.1983 105.075 19.1983C105.283 19.2181 105.493 19.191 105.69 19.1194C105.887 19.0476 106.065 18.9328 106.211 18.7835C106.358 18.6343 106.469 18.454 106.537 18.2563C106.605 18.0584 106.628 17.8479 106.605 17.64V14.0186H107.828V20.21Z" fill="#171717"/>
</svg>
