<svg width="65" height="64" viewBox="0 0 65 64" fill="none" xmlns="http://www.w3.org/2000/svg">
<path d="M0.384766 32V64H32.3848H64.3848V32V0H32.3848H0.384766V32ZM53.6535 18.875C54.3035 18.9813 54.8598 19.3312 55.291 19.9062C55.6848 20.4188 55.791 20.7875 55.7848 21.5625C55.7848 22.1812 55.766 22.25 55.5598 22.6875C55.041 23.7938 53.9473 24.4 52.841 24.1937C51.7223 23.9875 50.891 23.1187 50.6973 21.95C50.4348 20.3812 51.5848 18.9375 53.1973 18.8187C53.2473 18.8187 53.4535 18.8375 53.6535 18.875ZM37.216 19.5C37.2098 19.55 36.9285 20.7062 36.5785 22.0625C36.2348 23.4188 35.5598 26.0938 35.0785 28C34.6035 29.9062 34.191 31.5187 34.166 31.575C34.141 31.6375 34.1473 31.6875 34.1848 31.6875C34.216 31.6875 34.4535 31.3438 34.7035 30.9188C35.441 29.6875 35.9098 29.1 37.1035 27.9062C38.041 26.9625 38.2348 26.7938 38.916 26.3438C40.2785 25.45 41.2285 25.125 42.4973 25.125C43.5348 25.125 44.1285 25.3375 44.7598 25.9188C45.1223 26.25 45.3598 26.625 45.5473 27.1562C45.6848 27.5375 45.7035 28.725 45.5785 29.25C45.4035 29.9937 44.9785 31.425 44.6535 32.3438C44.5348 32.6875 44.3598 33.2062 44.2598 33.5C44.1598 33.7937 43.8785 34.6062 43.6348 35.3125C43.391 36.0187 43.0785 36.9187 42.9473 37.3125C42.816 37.7062 42.5348 38.525 42.3223 39.125C41.2973 42.075 41.2535 42.2563 41.516 42.5875C41.6285 42.725 41.691 42.75 41.9848 42.75C42.541 42.75 43.2723 42.3062 43.9848 41.5437C44.4035 41.0938 45.2473 39.9625 45.6098 39.3562C45.7098 39.1938 45.8223 39.0625 45.8598 39.0625C45.8973 39.0625 46.0473 39.15 46.1973 39.2563C46.3535 39.3687 46.4848 39.425 46.516 39.3937C46.5473 39.3625 46.9785 37.7188 47.4723 35.7437C47.9723 33.7687 48.5598 31.425 48.791 30.5312C49.4285 28.0125 49.4473 27.8812 49.3098 27.425C49.1785 26.975 48.7785 26.7938 47.7598 26.7125C47.466 26.6875 47.191 26.6437 47.1535 26.6063C47.066 26.5438 47.041 25.8312 47.1223 25.7125C47.1473 25.675 47.5348 25.6125 47.9785 25.5687C48.4285 25.5312 49.0035 25.4688 49.2598 25.4375C49.516 25.4 50.0973 25.3312 50.541 25.275C52.4598 25.0375 52.6535 25.0062 53.8535 24.7562C54.3348 24.6562 54.7535 24.5938 54.7848 24.625C54.8098 24.6562 54.691 25.2437 54.5098 25.95C53.841 28.5938 53.4473 30.1312 52.5973 33.4375C50.8348 40.2812 50.6348 41.1375 50.6348 41.825C50.6348 42.2 50.6535 42.2563 50.7973 42.3687C51.1473 42.6437 51.5785 42.4812 52.2973 41.8C52.7785 41.3375 53.566 40.3375 54.1098 39.4875C54.2785 39.2188 54.4535 39 54.4973 39C54.5973 39 55.2598 39.4937 55.2598 39.575C55.2598 39.6375 54.6598 40.5437 54.1785 41.2188C52.6535 43.3312 51.7598 44.2437 50.6223 44.8438C49.3098 45.5375 48.2848 45.6125 47.2535 45.0938C46.2785 44.5938 45.7723 43.4875 45.9473 42.2312C46.066 41.4125 46.2348 40.5875 46.3598 40.2875C46.4223 40.1313 46.2535 40.1812 46.166 40.35C45.9723 40.7125 44.9785 42.0812 44.3473 42.85C43.7285 43.6062 43.216 44.0812 42.541 44.5312C41.6535 45.1187 41.0598 45.3687 40.1785 45.5375C39.6035 45.65 38.9223 45.575 38.4598 45.3562C38.016 45.15 37.5535 44.6812 37.3473 44.2375C37.191 43.8875 37.166 43.7625 37.1473 43.0625C37.116 42.1687 37.2223 41.4812 37.6035 40C37.6535 39.8125 37.7785 39.3312 37.8785 38.9375C38.1223 37.9875 38.3098 37.3 38.6285 36.1687C38.7535 35.7375 38.941 35.1313 39.1535 34.5C39.2723 34.1375 39.6035 33.125 39.8848 32.25C40.166 31.375 40.5098 30.3187 40.6473 29.9062C40.9098 29.1063 40.9723 28.5312 40.8285 28.2625C40.5535 27.7437 39.6285 27.75 38.741 28.275C37.4348 29.0375 35.8848 30.8375 34.7473 32.9062C34.3285 33.6687 33.2598 36.1437 33.0098 36.9375C32.9785 37.025 32.8723 37.3312 32.7598 37.625C32.316 38.825 32.091 39.4875 31.8223 40.375C31.716 40.7375 31.6035 41.1 31.5785 41.1875C31.4473 41.6 31.366 41.875 31.016 43.125C30.8035 43.8625 30.6035 44.5812 30.566 44.7188C30.5285 44.8562 30.4848 45.0063 30.4723 45.0437C30.4535 45.1062 29.9535 45.125 28.2285 45.125C26.3473 45.125 26.0098 45.1125 26.0098 45.0375C26.0098 44.95 26.2285 44.0812 26.5098 43.0312C27.016 41.1687 27.0535 41 26.966 41C26.9348 41 26.8598 41.0875 26.7973 41.1938C26.641 41.4562 26.1598 42.025 25.7223 42.4625C23.6785 44.5063 20.9785 45.5812 18.116 45.4812C15.441 45.3937 13.2223 44.4625 11.4473 42.6875C9.94727 41.1875 9.24102 39.825 8.72227 37.4375C8.42227 36.0625 8.43477 33.375 8.75352 31.4813C9.07227 29.625 9.85977 27.4688 10.8598 25.7562C11.5473 24.575 12.9473 22.9562 14.0098 22.1125C15.4848 20.95 17.3598 20.1125 19.1785 19.8125C19.8723 19.7 21.0098 19.65 21.8098 19.7C22.7348 19.7562 23.216 19.8375 24.2598 20.0938C24.7098 20.2062 24.7098 20.2062 25.816 20.525C26.2473 20.65 26.666 20.75 26.7598 20.75C27.0598 20.75 27.466 20.4875 27.6785 20.1562C28.0035 19.6437 28.0348 19.625 28.4223 19.625C28.8285 19.625 29.0285 19.7125 28.9848 19.8625C28.966 19.9188 28.8223 20.8687 28.6723 21.9688C28.3223 24.4188 28.2723 24.7938 28.1973 25.3125C28.166 25.5375 28.1223 25.8312 28.1035 25.9688C27.9848 26.85 27.816 27.9813 27.791 28.0438C27.7598 28.1312 27.2598 28.1437 26.916 28.0687L26.7285 28.0312L26.6848 27.1875C26.5598 24.6 25.7973 22.7 24.4973 21.7188C23.1098 20.675 21.2535 20.6063 19.591 21.5312C17.1723 22.8875 15.1223 26.575 14.2098 31.2188C14.0348 32.0938 13.9848 32.4438 13.8223 33.9125C13.741 34.6562 13.741 36.5562 13.8285 37.275C14.0348 39.0688 14.5098 40.525 15.2035 41.5375C15.6973 42.2625 16.591 43.0312 17.3285 43.3687C18.091 43.7188 18.4223 43.7812 19.4785 43.7812C20.7598 43.775 21.6285 43.625 22.6348 43.2375C24.0035 42.7 25.2973 41.6062 26.2973 40.125C26.5285 39.7812 26.7473 39.5 26.7785 39.5C26.8098 39.5 26.916 39.5688 27.0223 39.6562C27.1223 39.7437 27.241 39.8125 27.2848 39.8125C27.3285 39.8125 27.4285 39.5437 27.5348 39.1375C27.716 38.425 27.966 37.4688 28.2223 36.5C28.3035 36.175 28.466 35.5688 28.5723 35.1562C28.6785 34.7437 28.8348 34.1437 28.9223 33.825C29.0035 33.5125 29.141 32.9875 29.2223 32.6687C29.3098 32.3562 29.466 31.7562 29.5723 31.3438C29.9285 29.9937 30.2348 28.8062 30.5473 27.6375C31.516 23.9562 31.6348 23.4437 31.6348 22.875C31.6348 22.4062 31.4723 21.9875 31.2473 21.8687C31.0285 21.75 30.291 21.6312 29.7348 21.6312L29.241 21.625L29.2848 21.3875C29.3098 21.2625 29.3473 21.0438 29.366 20.9062C29.4098 20.6063 29.4473 20.5812 29.8848 20.5312C30.3848 20.475 32.1223 20.25 33.0098 20.1312C33.666 20.0375 36.2598 19.5625 36.7598 19.4375C37.0598 19.3625 37.2285 19.3875 37.216 19.5Z" fill="#553B39"/>
</svg>
