<svg width="237" height="35" viewBox="0 0 237 35" fill="none" xmlns="http://www.w3.org/2000/svg">
<path d="M95.4391 0.312485C96.349 1.41684 96.7726 2.45584 97.1492 3.87272C97.2528 4.2563 97.3563 4.63988 97.463 5.03509C97.5705 5.44658 97.678 5.85807 97.7887 6.28204C97.902 6.70709 98.0154 7.13215 98.1321 7.57009C98.3706 8.46771 98.6076 9.36582 98.8432 10.2644C99.2044 11.6405 99.571 13.0148 99.9383 14.389C100.169 15.2616 100.4 16.1342 100.631 17.007C100.741 17.4185 100.85 17.83 100.963 18.2539C101.063 18.6375 101.163 19.0211 101.267 19.4163C101.399 19.9213 101.399 19.9213 101.535 20.4364C101.724 21.3577 101.724 21.3577 101.724 22.9765C101.968 22.9765 102.212 22.9765 102.463 22.9765C102.536 22.4508 102.536 22.4508 102.61 21.9144C102.822 20.615 103.105 19.3846 103.438 18.1168C103.559 17.6542 103.68 17.1917 103.805 16.7151C103.934 16.2271 104.063 15.7391 104.196 15.2364C104.328 14.7353 104.461 14.2343 104.597 13.7181C104.865 12.7015 105.135 11.6852 105.405 10.6691C105.649 9.74931 105.893 8.82925 106.135 7.9088C106.434 6.77548 106.735 5.64326 107.038 4.51141C107.127 4.17641 107.215 3.84141 107.305 3.49626C107.924 1.21524 107.924 1.21524 108.748 0.312485C109.834 0.135422 109.834 0.135422 110.967 0.312485C112.017 1.81839 112.307 3.22813 112.575 5.07787C112.615 5.34534 112.655 5.6128 112.696 5.88838C112.825 6.7678 112.95 7.64807 113.074 8.52852C113.163 9.14402 113.252 9.75946 113.342 10.3749C113.53 11.6634 113.714 12.9525 113.897 14.2419C114.13 15.8878 114.369 17.5327 114.609 19.1773C114.795 20.4481 114.978 21.7194 115.16 22.9908C115.247 23.597 115.335 24.2032 115.423 24.8093C116.332 31.0715 116.332 31.0715 116.142 33.4991C115.403 34.3086 115.403 34.3086 114.317 34.435C113.185 34.3086 113.185 34.3086 112.582 33.8036C111.977 32.9561 111.862 32.3943 111.718 31.3348C111.668 30.981 111.617 30.6271 111.565 30.2626C111.515 29.8819 111.465 29.5012 111.414 29.1089C111.359 28.7173 111.304 28.3257 111.248 27.9222C111.073 26.6706 110.904 25.4181 110.736 24.1654C110.563 22.9115 110.39 21.6578 110.215 20.4042C110.107 19.624 110.001 18.8434 109.896 18.0625C109.848 17.71 109.799 17.3575 109.75 16.9942C109.708 16.6834 109.666 16.3725 109.623 16.0522C109.515 15.2551 109.515 15.2551 109.118 14.4775C108.5 16.7311 107.881 18.9847 107.263 21.2384C107.053 22.0043 106.843 22.7701 106.633 23.5359C106.33 24.6399 106.027 25.7441 105.724 26.8482C105.631 27.1877 105.538 27.5272 105.442 27.877C105.309 28.3628 105.309 28.3628 105.173 28.8585C105.088 29.1651 105.004 29.4717 104.917 29.7877C104.696 30.6122 104.494 31.4402 104.293 32.2707C103.942 33.4991 103.942 33.4991 103.203 34.3086C102.117 34.4856 102.117 34.4856 100.985 34.3086C99.836 32.6655 99.3978 30.7824 98.8906 28.8228C98.8028 28.491 98.715 28.1592 98.6245 27.8174C98.4399 27.1178 98.2567 26.4177 98.0747 25.7173C97.7973 24.6514 97.5154 23.587 97.2327 22.5228C97.0534 21.8405 96.8743 21.1581 96.6955 20.4755C96.5702 20.0024 96.5702 20.0024 96.4423 19.5197C95.9735 17.7055 95.6422 15.9456 95.4391 14.0728C95.1951 14.0728 95.6626 14.0728 95.4112 14.0728C95.4204 14.5344 95.4296 14.996 95.4391 15.4716C95.4379 17.294 95.2307 19.0351 94.965 20.8312C94.9184 21.1542 94.8718 21.4772 94.8237 21.81C94.7252 22.4874 94.6254 23.1645 94.5244 23.8414C94.3713 24.8743 94.225 25.9082 94.079 26.9423C93.9819 27.6034 93.8845 28.2645 93.7866 28.9255C93.7438 29.2325 93.701 29.5394 93.6569 29.8557C93.3943 31.5685 93.0785 32.9341 92.0839 34.3086C90.9517 34.4856 90.2402 34.4856 89.1542 34.3086C88.4148 33.4991 88.4148 33.4991 88.3306 32.1387C88.3853 29.8432 88.7133 27.5857 89.0228 25.3179C89.0858 24.8447 89.1488 24.3715 89.2137 23.884C89.3473 22.8842 89.4819 21.8844 89.6175 20.8849C89.8218 19.3773 90.023 17.8693 90.2236 16.3612C90.5961 13.573 90.9818 10.7873 91.3724 8.00208C91.4246 7.62184 91.4767 7.24161 91.5305 6.84986C91.6666 5.86649 91.8091 4.88454 91.9544 3.90275C92.0305 3.37606 92.1066 2.84937 92.185 2.30672C92.668 0.376576 93.7443 0.0341834 95.4391 0.312485Z" fill="#553B39"/>
<path d="M78.1319 2.73726C80.5954 5.17862 81.8702 9.30963 82.1293 12.8551C82.2984 16.7657 82.4615 20.8164 81.3899 24.5919C81.2994 24.9258 81.2088 25.2597 81.1155 25.6037C80.1012 28.8268 78.2655 31.5273 75.5671 33.2933C72.6254 34.7796 69.1488 34.8731 66.0935 33.6727C63.1758 32.1818 61.5475 29.899 60.3169 26.6819C59.3134 23.2061 58.9593 19.3282 59.2078 15.6881C59.2457 15.0543 59.2457 15.0543 59.2844 14.4076C59.6898 10.0081 60.9691 5.76703 63.9908 2.66137C68.4452 -1.0167 73.5954 -0.378769 78.1319 2.73726ZM65.1591 8.06654C62.7328 12.4997 62.907 18.5163 63.7367 23.4173C64.287 25.7485 65.1613 27.8727 67.0178 29.2714C69.0134 30.2995 71.3054 30.32 73.3706 29.5244C75.6874 28.1436 76.6831 26.0177 77.599 23.3983C78.909 18.3644 78.4988 12.0162 76.2834 7.41678C75.0581 5.8455 74.1342 4.89018 72.2051 4.6059C69.031 4.47689 67.1725 5.26723 65.1591 8.06654Z" fill="#553B39"/>
<path d="M133.888 0.310409C134.819 1.11238 135.181 1.84396 135.511 3.07366C135.597 3.3845 135.682 3.69534 135.771 4.0156C135.859 4.35278 135.948 4.68996 136.04 5.03736C136.136 5.39048 136.232 5.74361 136.331 6.10743C136.645 7.26 136.953 8.41408 137.262 9.56827C137.583 10.7576 137.905 11.9465 138.228 13.1354C138.444 13.9304 138.659 14.7254 138.874 15.5206C139.514 17.8855 140.173 20.2423 140.859 22.5919C140.977 22.9993 140.977 22.9993 141.098 23.4149C141.458 24.6529 141.822 25.8894 142.191 27.1242C143.387 31.236 143.387 31.236 143.131 33.4971C142.391 34.3065 142.391 34.3065 141.305 34.4583C140.932 34.4082 140.558 34.3581 140.173 34.3065C139.064 32.6876 139.064 32.6876 137.585 27.4263C132.461 27.226 132.461 27.226 127.233 27.0216C126.989 28.2236 126.745 29.4256 126.494 30.6641C126.098 31.8166 126.098 31.8166 125.708 32.7129C125.513 33.1707 125.513 33.1707 125.313 33.6378C125.215 33.8585 125.116 34.0791 125.015 34.3065C123.051 34.4499 123.051 34.4499 122.081 33.9018C121.181 32.047 122.136 29.4447 122.647 27.5401C122.897 26.6534 123.149 25.7676 123.404 24.8826C123.538 24.4076 123.673 23.9325 123.811 23.443C124.241 21.9285 124.674 20.4153 125.108 18.902C125.393 17.8958 125.679 16.8896 125.964 15.8833C126.634 13.5237 127.31 11.1664 127.992 8.81069C128.211 8.05141 128.429 7.29178 128.646 6.53165C128.894 5.66294 129.146 4.79581 129.4 3.92913C129.529 3.48181 129.659 3.03448 129.792 2.57359C130.672 0.260448 131.645 0.047368 133.888 0.310409ZM132.409 8.80943C131.881 10.5732 131.354 12.3378 130.83 14.103C130.651 14.7035 130.472 15.3037 130.292 15.9037C130.033 16.7661 129.777 17.6293 129.521 18.4926C129.44 18.7607 129.359 19.0289 129.276 19.3052C128.939 20.4466 128.712 21.3613 128.712 22.5698C131.274 22.5698 133.836 22.5698 136.476 22.5698C135.706 19.4219 134.878 16.3004 134.004 13.1854C133.885 12.7615 133.767 12.3377 133.645 11.9009C133.357 10.8702 133.068 9.83975 132.779 8.80943C132.657 8.80943 132.535 8.80943 132.409 8.80943Z" fill="#553B39"/>
<path d="M151.634 0.207031C152.743 0.30821 152.743 0.30821 153.482 1.11764C153.6 2.28693 153.6 2.28693 153.636 3.7641C153.65 4.29102 153.664 4.81794 153.679 5.36083C153.69 5.91942 153.702 6.47801 153.714 7.0366C153.728 7.59837 153.742 8.16012 153.757 8.72186C153.792 10.0993 153.823 11.4768 153.852 12.8544C154.14 12.5393 154.14 12.5393 154.434 12.2178C155.913 10.5987 157.392 8.97972 158.871 7.36069C159.156 7.04813 159.441 6.73556 159.735 6.41352C160.187 5.91903 160.641 5.42582 161.097 4.93576C161.952 4.01693 162.701 3.07776 163.418 2.02825C164.293 0.89518 164.562 0.716683 165.937 0.257621C167.161 0.30821 167.161 0.30821 167.878 0.763515C168.413 1.79742 168.411 2.36588 168.271 3.54593C167.565 4.54162 167.565 4.54162 166.582 5.57741C166.408 5.7645 166.234 5.95159 166.054 6.14434C165.495 6.74183 164.931 7.33202 164.366 7.92192C160.038 12.1489 160.038 12.1489 156.81 17.3063C157.219 17.7914 157.219 17.7914 157.637 18.2864C162.606 24.1738 162.606 24.1738 164.367 26.2954C164.977 27.0233 165.596 27.7429 166.224 28.4517C166.495 28.7637 166.766 29.0757 167.046 29.3971C167.284 29.6632 167.521 29.9293 167.767 30.2034C168.429 31.3374 168.428 32.1066 168.281 33.4C168.275 33.4607 168.199 33.553 168.151 33.591C167.149 34.3867 165.799 34.1449 164.871 33.2647C163.341 31.8144 161.06 29.5787 159.844 28.0296C157.897 25.6196 155.864 23.2934 153.852 20.9487C153.845 21.3245 153.838 21.7003 153.83 22.0875C153.801 23.48 153.769 24.8722 153.735 26.2645C153.721 26.8675 153.708 27.4705 153.696 28.0735C153.679 28.9396 153.658 29.8054 153.636 30.6713C153.624 31.1927 153.612 31.7141 153.6 32.2513C153.482 33.4949 153.482 33.4949 152.743 34.3043C151.634 34.4055 151.634 34.4055 150.525 34.3043C149.608 33.3003 149.696 32.7187 149.685 31.3485C149.687 31.0499 149.688 30.7513 149.69 30.4437C149.688 30.1291 149.687 29.8145 149.686 29.4903C149.683 28.4474 149.685 27.4047 149.687 26.3618C149.687 25.639 149.686 24.9161 149.685 24.1933C149.684 22.6773 149.686 21.1613 149.689 19.6452C149.693 17.699 149.691 15.7528 149.686 13.8066C149.684 12.3137 149.685 10.8208 149.687 9.32787C149.687 8.61012 149.686 7.89236 149.685 7.17461C149.683 6.17263 149.686 5.17079 149.69 4.16882C149.688 3.87025 149.687 3.57168 149.685 3.26406C149.707 0.382792 149.707 0.382792 151.634 0.207031Z" fill="#553B39"/>
<path d="M197.477 0.233815C198.586 0.309699 198.586 0.309699 199.325 0.714414C199.708 1.97243 199.745 2.85669 199.753 4.17623C199.757 4.63695 199.761 5.09768 199.765 5.57236C199.767 6.07066 199.77 6.56896 199.773 7.08236C199.783 8.13525 199.794 9.18815 199.805 10.241C199.82 11.9027 199.834 13.5643 199.843 15.2261C199.853 16.8286 199.87 18.4309 199.888 20.0333C199.89 20.5283 199.891 21.0233 199.892 21.5333C199.93 24.4236 200.017 26.725 201.774 29.0192C203.498 29.8633 205.275 29.7007 207.043 29.0698C208.78 27.2239 209.003 24.5858 209.086 22.0372C209.096 21.0683 209.101 20.0994 209.101 19.1305C209.106 18.6166 209.11 18.1027 209.115 17.5731C209.128 16.2181 209.136 14.8633 209.142 13.5083C209.15 11.5902 209.162 9.67217 209.179 7.75414C209.188 6.7349 209.194 5.7156 209.195 4.69631C209.199 4.23817 209.203 3.78003 209.207 3.30801C209.208 2.90379 209.21 2.49957 209.212 2.0831C209.307 1.11913 209.307 1.11913 210.047 0.309699C211.341 0.183225 211.341 0.183225 212.634 0.309699C213.466 1.6746 213.469 2.14115 213.475 3.7394C213.481 4.42069 213.481 4.42069 213.486 5.11574C213.486 5.60769 213.485 6.09964 213.485 6.6065C213.487 7.11428 213.488 7.62207 213.49 8.14524C213.492 9.22275 213.493 10.3001 213.491 11.3776C213.489 12.4747 213.491 13.5716 213.498 14.6687C213.507 16.2562 213.509 17.8434 213.508 19.4309C213.512 19.9155 213.515 20.4001 213.519 20.8993C213.498 25.1138 213.24 29.343 210.392 32.4609C208.188 34.4056 205.838 34.5291 203.067 34.4449C200.799 34.1715 199.304 33.199 197.731 31.4222C195.402 28.0592 195.467 24.0932 195.494 20.0396C195.494 19.4938 195.494 18.948 195.493 18.4022C195.493 17.2675 195.497 16.1329 195.504 14.9982C195.512 13.5429 195.512 12.0878 195.51 10.6325C195.509 9.5097 195.511 8.38692 195.515 7.26411C195.517 6.46643 195.517 5.66874 195.516 4.87105C195.52 4.38991 195.523 3.90876 195.527 3.41304C195.528 2.98848 195.53 2.56391 195.532 2.12647C195.68 0.575337 196.081 0.329311 197.477 0.233815Z" fill="#553B39"/>
<path d="M223.812 0.110165C224.109 0.109905 224.406 0.109644 224.712 0.109375C225.02 0.117461 225.328 0.125548 225.645 0.133879C225.945 0.13101 226.245 0.128141 226.555 0.125184C229.565 0.159258 232.403 0.881518 234.63 3.21193C237.073 6.46147 236.973 10.4893 236.666 14.476C236.242 17.1537 234.807 19.1753 232.969 20.9514C231.086 22.3845 229.397 22.6459 227.126 22.6082C226.696 22.6028 226.267 22.5973 225.824 22.5916C225.498 22.5846 225.172 22.5775 224.836 22.5703C224.84 22.8971 224.844 23.2239 224.848 23.5605C224.863 25.0348 224.872 26.509 224.882 27.9834C224.888 28.4978 224.894 29.0122 224.901 29.5421C224.903 30.0325 224.906 30.5229 224.908 31.0282C224.912 31.4818 224.916 31.9353 224.92 32.4026C224.836 33.4976 224.836 33.4976 224.096 34.307C222.196 34.5284 222.196 34.5284 221.262 33.8779C220.519 32.6951 220.612 31.5058 220.62 30.1201C220.617 29.8185 220.615 29.517 220.612 29.2063C220.605 28.2089 220.607 27.2118 220.609 26.2143C220.607 25.5212 220.605 24.8282 220.603 24.1351C220.6 22.682 220.6 21.229 220.604 19.7759C220.608 17.9136 220.601 16.0516 220.59 14.1893C220.583 12.7578 220.583 11.3264 220.586 9.89489C220.586 9.2083 220.583 8.5217 220.579 7.83513C220.573 6.87489 220.577 5.91522 220.584 4.95499C220.58 4.67132 220.576 4.38765 220.573 4.09539C220.592 2.72461 220.692 2.03828 221.473 0.943989C222.343 0.232958 222.739 0.107134 223.812 0.110165ZM224.836 4.76281C224.836 9.17016 224.836 13.5775 224.836 18.1184C228.793 18.458 228.793 18.458 231.49 16.4996C232.489 14.6837 232.751 13.3232 232.738 11.213C232.741 10.7325 232.744 10.252 232.747 9.75694C232.549 7.942 232 6.87014 230.751 5.67342C228.72 4.28366 227.588 4.76281 224.836 4.76281Z" fill="#553B39"/>
<path d="M178.321 0.161728C178.58 0.161526 178.838 0.161324 179.104 0.161116C179.65 0.162062 180.196 0.165993 180.741 0.172695C181.576 0.182245 182.411 0.181016 183.246 0.178327C187.34 0.195745 187.34 0.195745 188.604 1.11818C188.742 2.53469 188.742 2.53469 188.604 3.95119C187.347 4.86827 186.917 4.85671 185.445 4.83967C185.088 4.83765 184.73 4.83563 184.362 4.83354C183.682 4.82249 183.682 4.82249 182.989 4.81121C181.548 4.79452 180.106 4.77782 178.622 4.76062C178.622 7.96597 178.622 11.1713 178.622 14.4738C180.745 14.4419 180.745 14.4419 182.869 14.4009C183.135 14.3989 183.402 14.3968 183.676 14.3947C183.947 14.3905 184.218 14.3863 184.498 14.3819C185.411 14.4897 185.987 14.7324 186.755 15.2832C187.102 16.4721 187.102 16.4721 187.125 17.7115C186.68 18.3886 186.68 18.3886 186.016 18.9257C185.211 19.0635 185.211 19.0635 184.29 19.0442C183.992 19.0412 183.695 19.0382 183.389 19.035C183.013 19.024 182.637 19.0129 182.249 19.0015C181.052 18.9765 179.855 18.9515 178.622 18.9257C178.622 22.5317 178.622 26.1377 178.622 29.853C181.63 29.821 181.63 29.821 184.639 29.7801C185.012 29.778 185.385 29.776 185.77 29.7739C186.154 29.7697 186.537 29.7655 186.932 29.7611C187.864 29.853 187.864 29.853 188.604 30.6624C188.65 32.1295 188.65 32.1295 188.604 33.4954C186.721 34.7802 184.497 34.44 182.356 34.4326C181.582 34.4313 180.808 34.4408 180.034 34.4511C179.54 34.452 179.046 34.4523 178.552 34.4519C177.881 34.4537 177.881 34.4537 177.196 34.4555C175.882 34.2852 175.457 34.1359 174.555 33.0907C174.408 32.0293 174.356 31.1361 174.369 30.0743C174.366 29.6151 174.366 29.6151 174.363 29.1467C174.359 28.1341 174.365 27.1219 174.372 26.1094C174.372 25.4062 174.371 24.7031 174.37 24C174.369 22.5261 174.374 21.0524 174.382 19.5786C174.393 17.6881 174.392 15.798 174.387 13.9075C174.385 12.4555 174.388 11.0036 174.392 9.55165C174.394 8.85457 174.394 8.15747 174.393 7.46039C174.391 6.48655 174.398 5.51308 174.406 4.53929C174.404 4.25038 174.402 3.96147 174.401 3.66381C174.417 2.50567 174.439 1.70887 175.044 0.736719C176.087 0.0166814 177.108 0.158696 178.321 0.161728Z" fill="#553B39"/>
<path d="M17.7793 0.865939C18.9116 1.5236 18.9116 1.5236 19.651 2.33303C19.782 3.45164 19.7689 4.11461 19.2813 5.11545C18.3016 5.71872 17.6163 5.49835 16.5388 5.30358C15.3389 5.13069 14.1602 5.08864 12.9501 5.06486C12.5222 5.05443 12.0942 5.04399 11.6533 5.03324C9.85215 5.22538 8.63914 5.8747 7.38149 7.2908C4.52136 12.0413 4.58494 18.647 5.48533 24.0991C6.18164 26.4017 7.07711 27.7217 8.92962 29.0442C10.6322 29.9762 13.1949 29.7286 14.9907 29.177C15.6839 28.8694 16.3737 28.5526 17.0631 28.2348C18.1833 28.0713 18.6404 28.0403 19.5816 28.7154C20.1942 29.7388 20.2347 30.272 20.0207 31.4725C18.3157 33.5879 15.759 34.1795 13.2837 34.4225C9.58293 34.5268 6.78471 33.9384 4.04552 31.101C1.0476 27.2818 0.66671 22.5928 0.680655 17.7628C0.674697 17.3533 0.66874 16.9437 0.662603 16.5218C0.659854 11.821 1.76757 7.74464 4.19282 3.87601C7.61072 0.134407 13.2238 -0.962608 17.7793 0.865939Z" fill="#553B39"/>
<path d="M28.8697 0.183594C30.0019 0.310067 30.0019 0.310067 30.6193 0.756214C31.3543 1.90434 31.2439 2.83446 31.2369 4.22551C31.2371 4.49806 31.2372 4.77061 31.2374 5.05142C31.2366 5.95155 31.228 6.85138 31.2193 7.75146C31.2172 8.37581 31.2157 9.00017 31.2146 9.62453C31.2103 11.2673 31.1994 12.91 31.1872 14.5527C31.1758 16.2292 31.1707 17.9057 31.1652 19.5823C31.1533 22.8714 31.1343 26.1605 31.111 29.4496C31.5084 29.4616 31.5084 29.4616 31.9138 29.4739C33.1097 29.5123 34.3054 29.5568 35.5012 29.6013C35.9182 29.6139 36.3352 29.6264 36.7648 29.6393C37.1628 29.6549 37.5607 29.6706 37.9707 29.6867C38.5225 29.7058 38.5225 29.7058 39.0854 29.7252C39.9838 29.8543 39.9838 29.8543 40.7232 30.6637C40.7695 32.1308 40.7695 32.1308 40.7232 33.4967C38.8603 34.7569 36.7531 34.4415 34.6335 34.4339C33.8861 34.4326 33.1393 34.4421 32.392 34.4524C31.9197 34.4527 31.4474 34.4529 30.9608 34.4532C30.5288 34.4544 30.0968 34.4556 29.6517 34.4568C28.358 34.2841 27.9338 34.1239 27.0443 33.092C26.8991 32.0165 26.8494 31.1077 26.8647 30.032C26.8633 29.7213 26.8619 29.4106 26.8604 29.0905C26.8577 28.0628 26.8656 27.0356 26.8739 26.0079C26.8748 25.2948 26.8751 24.5816 26.8749 23.8684C26.8761 22.3738 26.8822 20.8793 26.8921 19.3848C26.9047 17.4662 26.9075 15.5478 26.9069 13.6292C26.9071 12.1567 26.9112 10.6843 26.9166 9.21191C26.9189 8.50433 26.9204 7.79674 26.9209 7.08915C26.9225 6.10172 26.929 5.11448 26.9369 4.1271C26.9365 3.83295 26.9362 3.5388 26.9359 3.23574C26.9691 0.40493 26.9691 0.40493 28.8697 0.183594Z" fill="#553B39"/>
<path d="M51.0754 0.311576C51.9925 1.31555 51.9045 1.89721 51.915 3.26743C51.9135 3.56599 51.912 3.86456 51.9105 4.17218C51.9118 4.48679 51.9131 4.8014 51.9144 5.12555C51.9177 6.16844 51.9155 7.21122 51.913 8.25411C51.9135 8.97692 51.9142 9.69973 51.9151 10.4225C51.9162 11.9386 51.9146 13.4546 51.9112 14.9707C51.907 16.9169 51.9094 18.8631 51.9138 20.8093C51.9165 22.3022 51.9157 23.7951 51.9137 25.288C51.9132 26.0058 51.9139 26.7235 51.9156 27.4413C51.9174 28.4432 51.9146 29.4451 51.9105 30.4471C51.912 30.7456 51.9135 31.0442 51.915 31.3518C51.8993 33.4057 51.8993 33.4057 51.0754 34.3077C49.9894 34.4594 49.9894 34.4594 48.8572 34.3077C47.9131 33.3405 47.7544 32.7519 47.6122 31.3346C47.6079 30.79 47.6097 30.2453 47.6163 29.7008C47.6155 29.4025 47.6148 29.1042 47.614 28.7969C47.6129 27.8128 47.6197 26.829 47.6268 25.845C47.6279 25.1606 47.6286 24.4762 47.6289 23.7918C47.6306 22.3585 47.6359 20.9253 47.6441 19.492C47.6546 17.6538 47.6586 15.8157 47.6603 13.9775C47.6618 12.5647 47.6654 11.152 47.6698 9.7393C47.6719 9.06142 47.6737 8.38354 47.6751 7.70565C47.6776 6.75911 47.6827 5.81263 47.6885 4.86611C47.6889 4.5854 47.6893 4.3047 47.6898 4.01548C47.6997 2.80243 47.7642 1.87748 48.1178 0.716291C49.1391 0.157278 49.9468 0.234359 51.0754 0.311576Z" fill="#553B39"/>
<path d="M197.477 0.233815C198.586 0.309699 198.586 0.309699 199.325 0.714414C199.708 1.97243 199.745 2.85669 199.753 4.17623C199.757 4.63695 199.761 5.09768 199.765 5.57236C199.767 6.07066 199.77 6.56896 199.773 7.08236C199.783 8.13525 199.794 9.18815 199.805 10.241C199.82 11.9027 199.834 13.5643 199.843 15.2261C199.853 16.8286 199.87 18.4309 199.888 20.0333C199.89 20.5283 199.891 21.0233 199.892 21.5333C199.93 24.4236 200.017 26.725 201.774 29.0192C203.498 29.8633 205.275 29.7007 207.043 29.0698C208.78 27.2239 209.003 24.5858 209.086 22.0372C209.096 21.0683 209.101 20.0994 209.101 19.1305C209.106 18.6166 209.11 18.1027 209.115 17.5731C209.128 16.2181 209.136 14.8633 209.142 13.5083C209.15 11.5902 209.162 9.67217 209.179 7.75414C209.188 6.7349 209.194 5.7156 209.195 4.69631C209.199 4.23817 209.203 3.78003 209.207 3.30801C209.208 2.90379 209.21 2.49957 209.212 2.0831C209.307 1.11913 209.307 1.11913 210.047 0.309699C211.341 0.183225 211.341 0.183225 212.634 0.309699C213.466 1.6746 213.469 2.14115 213.475 3.7394C213.481 4.42069 213.481 4.42069 213.486 5.11574C213.486 5.60769 213.485 6.09964 213.485 6.6065C213.487 7.11428 213.488 7.62207 213.49 8.14524C213.492 9.22275 213.493 10.3001 213.491 11.3776C213.489 12.4747 213.491 13.5716 213.498 14.6687C213.507 16.2562 213.509 17.8434 213.508 19.4309C213.512 19.9155 213.515 20.4001 213.519 20.8993C213.498 25.1138 213.24 29.343 210.392 32.4609C208.188 34.4056 205.838 34.5291 203.067 34.4449C200.799 34.1715 199.304 33.199 197.731 31.4222C195.402 28.0592 195.467 24.0932 195.494 20.0396C195.494 19.4938 195.494 18.948 195.493 18.4022C195.493 17.2675 195.497 16.1329 195.504 14.9982C195.512 13.5429 195.512 12.0878 195.51 10.6325C195.509 9.5097 195.511 8.38692 195.515 7.26411C195.517 6.46643 195.517 5.66874 195.516 4.87105C195.52 4.38991 195.523 3.90876 195.527 3.41304C195.528 2.98848 195.53 2.56391 195.532 2.12647C195.68 0.575337 196.081 0.329311 197.477 0.233815Z" fill="#553B39"/>
<path d="M223.812 0.110165C224.109 0.109905 224.406 0.109644 224.712 0.109375C225.02 0.117461 225.328 0.125548 225.645 0.133879C225.945 0.13101 226.245 0.128141 226.555 0.125184C229.565 0.159258 232.403 0.881518 234.63 3.21193C237.073 6.46147 236.973 10.4893 236.666 14.476C236.242 17.1537 234.807 19.1753 232.969 20.9514C231.086 22.3845 229.397 22.6459 227.126 22.6082C226.696 22.6028 226.267 22.5973 225.824 22.5916C225.498 22.5846 225.172 22.5775 224.836 22.5703C224.84 22.8971 224.844 23.2239 224.848 23.5605C224.863 25.0348 224.872 26.509 224.882 27.9834C224.888 28.4978 224.894 29.0122 224.901 29.5421C224.903 30.0325 224.906 30.5229 224.908 31.0282C224.912 31.4818 224.916 31.9353 224.92 32.4026C224.836 33.4976 224.836 33.4976 224.096 34.307C222.196 34.5284 222.196 34.5284 221.262 33.8779C220.519 32.6951 220.612 31.5058 220.62 30.1201C220.617 29.8185 220.615 29.517 220.612 29.2063C220.605 28.2089 220.607 27.2118 220.609 26.2143C220.607 25.5212 220.605 24.8282 220.603 24.1351C220.6 22.682 220.6 21.229 220.604 19.7759C220.608 17.9136 220.601 16.0516 220.59 14.1893C220.583 12.7578 220.583 11.3264 220.586 9.89489C220.586 9.2083 220.583 8.5217 220.579 7.83513C220.573 6.87489 220.577 5.91522 220.584 4.95499C220.58 4.67132 220.576 4.38765 220.573 4.09539C220.592 2.72461 220.692 2.03828 221.473 0.943989C222.343 0.232958 222.739 0.107134 223.812 0.110165ZM224.836 4.76281C224.836 9.17016 224.836 13.5775 224.836 18.1184C228.793 18.458 228.793 18.458 231.49 16.4996C232.489 14.6837 232.751 13.3232 232.738 11.213C232.741 10.7325 232.744 10.252 232.747 9.75694C232.549 7.942 232 6.87014 230.751 5.67342C228.72 4.28366 227.588 4.76281 224.836 4.76281Z" fill="#553B39"/>
<path d="M178.321 0.161728C178.58 0.161526 178.838 0.161324 179.104 0.161116C179.65 0.162062 180.196 0.165993 180.741 0.172695C181.576 0.182245 182.411 0.181016 183.246 0.178327C187.34 0.195745 187.34 0.195745 188.604 1.11818C188.742 2.53469 188.742 2.53469 188.604 3.95119C187.347 4.86827 186.917 4.85671 185.445 4.83967C185.088 4.83765 184.73 4.83563 184.362 4.83354C183.682 4.82249 183.682 4.82249 182.989 4.81121C181.548 4.79452 180.106 4.77782 178.622 4.76062C178.622 7.96597 178.622 11.1713 178.622 14.4738C180.745 14.4419 180.745 14.4419 182.869 14.4009C183.135 14.3989 183.402 14.3968 183.676 14.3947C183.947 14.3905 184.218 14.3863 184.498 14.3819C185.411 14.4897 185.987 14.7324 186.755 15.2832C187.102 16.4721 187.102 16.4721 187.125 17.7115C186.68 18.3886 186.68 18.3886 186.016 18.9257C185.211 19.0635 185.211 19.0635 184.29 19.0442C183.992 19.0412 183.695 19.0382 183.389 19.035C183.013 19.024 182.637 19.0129 182.249 19.0015C181.052 18.9765 179.855 18.9515 178.622 18.9257C178.622 22.5317 178.622 26.1377 178.622 29.853C181.63 29.821 181.63 29.821 184.639 29.7801C185.012 29.778 185.385 29.776 185.77 29.7739C186.154 29.7697 186.537 29.7655 186.932 29.7611C187.864 29.853 187.864 29.853 188.604 30.6624C188.65 32.1295 188.65 32.1295 188.604 33.4954C186.721 34.7802 184.497 34.44 182.356 34.4326C181.582 34.4313 180.808 34.4408 180.034 34.4511C179.54 34.452 179.046 34.4523 178.552 34.4519C177.881 34.4537 177.881 34.4537 177.196 34.4555C175.882 34.2852 175.457 34.1359 174.555 33.0907C174.408 32.0293 174.356 31.1361 174.369 30.0743C174.366 29.6151 174.366 29.6151 174.363 29.1467C174.359 28.1341 174.365 27.1219 174.372 26.1094C174.372 25.4062 174.371 24.7031 174.37 24C174.369 22.5261 174.374 21.0524 174.382 19.5786C174.393 17.6881 174.392 15.798 174.387 13.9075C174.385 12.4555 174.388 11.0036 174.392 9.55165C174.394 8.85457 174.394 8.15747 174.393 7.46039C174.391 6.48655 174.398 5.51308 174.406 4.53929C174.404 4.25038 174.402 3.96147 174.401 3.66381C174.417 2.50567 174.439 1.70887 175.044 0.736719C176.087 0.0166814 177.108 0.158696 178.321 0.161728Z" fill="#553B39"/>
<path d="M17.7793 0.865939C18.9116 1.5236 18.9116 1.5236 19.651 2.33303C19.782 3.45164 19.7689 4.11461 19.2813 5.11545C18.3016 5.71872 17.6163 5.49835 16.5388 5.30358C15.3389 5.13069 14.1602 5.08864 12.9501 5.06486C12.5222 5.05443 12.0942 5.04399 11.6533 5.03324C9.85215 5.22538 8.63914 5.8747 7.38149 7.2908C4.52136 12.0413 4.58494 18.647 5.48533 24.0991C6.18164 26.4017 7.07711 27.7217 8.92962 29.0442C10.6322 29.9762 13.1949 29.7286 14.9907 29.177C15.6839 28.8694 16.3737 28.5526 17.0631 28.2348C18.1833 28.0713 18.6404 28.0403 19.5816 28.7154C20.1942 29.7388 20.2347 30.272 20.0207 31.4725C18.3157 33.5879 15.759 34.1795 13.2837 34.4225C9.58293 34.5268 6.78471 33.9384 4.04552 31.101C1.0476 27.2818 0.66671 22.5928 0.680655 17.7628C0.674697 17.3533 0.66874 16.9437 0.662603 16.5218C0.659854 11.821 1.76757 7.74464 4.19282 3.87601C7.61072 0.134407 13.2238 -0.962608 17.7793 0.865939Z" fill="#553B39"/>
<path d="M28.8697 0.183594C30.0019 0.310067 30.0019 0.310067 30.6193 0.756214C31.3543 1.90434 31.2439 2.83446 31.2369 4.22551C31.2371 4.49806 31.2372 4.77061 31.2374 5.05142C31.2366 5.95155 31.228 6.85138 31.2193 7.75146C31.2172 8.37581 31.2157 9.00017 31.2146 9.62453C31.2103 11.2673 31.1994 12.91 31.1872 14.5527C31.1758 16.2292 31.1707 17.9057 31.1652 19.5823C31.1533 22.8714 31.1343 26.1605 31.111 29.4496C31.5084 29.4616 31.5084 29.4616 31.9138 29.4739C33.1097 29.5123 34.3054 29.5568 35.5012 29.6013C35.9182 29.6139 36.3352 29.6264 36.7648 29.6393C37.1628 29.6549 37.5607 29.6706 37.9707 29.6867C38.5225 29.7058 38.5225 29.7058 39.0854 29.7252C39.9838 29.8543 39.9838 29.8543 40.7232 30.6637C40.7695 32.1308 40.7695 32.1308 40.7232 33.4967C38.8603 34.7569 36.7531 34.4415 34.6335 34.4339C33.8861 34.4326 33.1393 34.4421 32.392 34.4524C31.9197 34.4527 31.4474 34.4529 30.9608 34.4532C30.5288 34.4544 30.0968 34.4556 29.6517 34.4568C28.358 34.2841 27.9338 34.1239 27.0443 33.092C26.8991 32.0165 26.8494 31.1077 26.8647 30.032C26.8633 29.7213 26.8619 29.4106 26.8604 29.0905C26.8577 28.0628 26.8656 27.0356 26.8739 26.0079C26.8748 25.2948 26.8751 24.5816 26.8749 23.8684C26.8761 22.3738 26.8822 20.8793 26.8921 19.3848C26.9047 17.4662 26.9075 15.5478 26.9069 13.6292C26.9071 12.1567 26.9112 10.6843 26.9166 9.21191C26.9189 8.50433 26.9204 7.79674 26.9209 7.08915C26.9225 6.10172 26.929 5.11448 26.9369 4.1271C26.9365 3.83295 26.9362 3.5388 26.9359 3.23574C26.9691 0.40493 26.9691 0.40493 28.8697 0.183594Z" fill="#553B39"/>
<path d="M51.0754 0.311576C51.9925 1.31555 51.9045 1.89721 51.915 3.26743C51.9135 3.56599 51.912 3.86456 51.9105 4.17218C51.9118 4.48679 51.9131 4.8014 51.9144 5.12555C51.9177 6.16844 51.9155 7.21122 51.913 8.25411C51.9135 8.97692 51.9142 9.69973 51.9151 10.4225C51.9162 11.9386 51.9146 13.4546 51.9112 14.9707C51.907 16.9169 51.9094 18.8631 51.9138 20.8093C51.9165 22.3022 51.9157 23.7951 51.9137 25.288C51.9132 26.0058 51.9139 26.7235 51.9156 27.4413C51.9174 28.4432 51.9146 29.4451 51.9105 30.4471C51.912 30.7456 51.9135 31.0442 51.915 31.3518C51.8993 33.4057 51.8993 33.4057 51.0754 34.3077C49.9894 34.4594 49.9894 34.4594 48.8572 34.3077C47.9131 33.3405 47.7544 32.7519 47.6122 31.3346C47.6079 30.79 47.6097 30.2453 47.6163 29.7008C47.6155 29.4025 47.6148 29.1042 47.614 28.7969C47.6129 27.8128 47.6197 26.829 47.6268 25.845C47.6279 25.1606 47.6286 24.4762 47.6289 23.7918C47.6306 22.3585 47.6359 20.9253 47.6441 19.492C47.6546 17.6538 47.6586 15.8157 47.6603 13.9775C47.6618 12.5647 47.6654 11.152 47.6698 9.7393C47.6719 9.06142 47.6737 8.38354 47.6751 7.70565C47.6776 6.75911 47.6827 5.81263 47.6885 4.86611C47.6889 4.5854 47.6893 4.3047 47.6898 4.01548C47.6997 2.80243 47.7642 1.87748 48.1178 0.716291C49.1391 0.157278 49.9468 0.234359 51.0754 0.311576Z" fill="#553B39"/>
</svg>
