<svg width="429" height="34" viewBox="0 0 429 34" fill="none" xmlns="http://www.w3.org/2000/svg">
<path d="M344.24 12.7976C340.123 10.7851 340.026 9.07042 340.083 8.19118C340.139 7.3135 340.735 5.35416 343.454 5.35416C346.642 5.35416 347.243 8.5335 347.338 9.29863C347.439 10.1169 347.511 11.9692 347.511 11.9692H352.438L354.99 0.830562L350.449 0.840722C349.882 0.840722 349.339 1.15647 349.173 1.74185L348.926 2.56169C348.911 2.59139 348.902 2.61405 348.902 2.61405C348.902 2.61405 346.825 0.565617 343.002 0.598442C341.809 0.606257 339.557 0.379608 336.513 2.61405C333.184 5.05795 332.756 8.39516 332.675 9.65346C332.591 10.9117 332.385 13.1142 334.748 16.3208C337.106 19.533 344.356 21.2235 344.161 24.9992C343.986 28.3575 341.381 28.5654 340.763 28.5654C340.336 28.5654 338.14 28.6021 336.859 26.4161C336.162 25.2266 335.668 23.1672 335.518 21.9542C335.404 21.0476 335.453 20.66 334.515 20.66C333.584 20.66 330.421 20.66 330.421 20.66L326.967 32.8428H333.315L333.673 31.1812C335.635 33.3015 340.09 33.3656 340.09 33.3656C346.666 33.3656 351.471 29.2781 352.326 23.4939C353.181 17.7057 348.351 14.8132 344.24 12.7976Z" fill="#553B39"/>
<path d="M38.4924 0.870261C33.224 -0.413041 27.7782 3.00311 26.5253 8.41064L23.4546 21.9603C22.4191 27.2045 25.6258 31.8289 30.7598 33.0826C35.893 34.3299 41.4474 31.9016 42.7808 26.6684C42.7808 26.6684 45.8132 13.4938 45.8397 13.3844C47.3231 6.45599 43.8429 2.17076 38.4924 0.870261ZM39.0129 11.0054L35.9297 24.5402L35.8852 24.7192C35.571 26.0048 34.476 26.9052 33.2224 26.9052C33.0161 26.9052 32.8082 26.8794 32.6042 26.8294C31.1631 26.4792 30.2572 24.9544 30.5863 23.4296L30.6121 23.2999L33.7179 9.68378C34.0149 8.3739 35.1185 7.45793 36.3979 7.45793C36.6026 7.45793 36.8082 7.48294 37.009 7.53061C38.4721 7.89247 39.3748 9.43837 39.0129 11.0054Z" fill="#553B39"/>
<path d="M15.7837 13.72H22.913L25.8579 0.865086C25.8579 0.865086 21.5187 0.865086 20.5512 0.865086C19.5844 0.865086 19.035 2.60247 19.035 2.60247C18.0252 1.8725 16.9186 1.216 15.647 0.905726C10.3778 -0.378357 5.06482 3.02997 3.70023 8.41093L0.625624 21.9599C-0.461509 27.29 2.74674 31.8292 7.87761 33.0821C13.0108 34.3294 18.6856 31.8347 19.9564 26.6679L21.6414 19.4018C21.6414 19.4018 16.3183 19.3995 16.0073 19.3995C15.0632 19.3995 14.3223 20.3522 14.1167 21.1291L13.2726 24.7742C12.8717 26.4178 11.2961 27.4416 9.72675 27.0555C8.15584 26.6765 7.1875 25.0337 7.5392 23.3799L7.53607 23.3768C7.53607 23.3768 10.6662 9.64656 10.6701 9.62937C11.0515 7.96311 12.649 6.9213 14.2332 7.3027C15.8142 7.69347 16.7904 9.35661 16.4105 11.0291C16.4082 11.0408 15.7837 13.72 15.7837 13.72Z" fill="#553B39"/>
<path d="M68.3547 27.0345C67.2457 26.6648 66.6376 25.6261 67.0784 24.1537C67.3559 23.2205 67.4067 22.9837 67.6599 22.0631C67.9147 21.1471 68.1718 18.0256 66.3242 16.2991C68.8502 15.0854 70.4852 12.1562 70.7595 9.08467C71.1573 4.64548 68.6446 0.88623 62.2875 0.88623C58.998 0.88623 51.3138 0.88623 50.8347 0.88623C50.265 0.88623 49.6905 1.36376 49.5569 1.94757L48.3502 7.22537C48.4103 7.22537 51.1208 6.96902 50.3384 10.6556C49.9484 12.4883 48.2876 19.6489 47.1083 24.8758C46.9582 25.2955 46.7769 25.6871 46.5143 26.0388C45.8695 26.8969 44.9364 27.1165 44.34 27.1642L44.283 27.1587V27.1642L42.9755 32.8859H55.7053L57.0214 27.1447H56.8292C55.7889 27.1447 55.1082 26.9157 54.7456 26.4429C54.4134 26.0083 54.3196 25.3417 54.4885 24.453C54.5064 24.3569 55.8249 18.6039 55.8249 18.6039C56.0523 17.5965 56.4923 17.6129 57.0871 17.6129C58.1266 17.6129 58.937 17.6129 59.5568 17.6129C60.486 17.6129 60.6033 18.2624 60.318 19.4972C59.9741 20.9908 58.8088 26.1959 58.7002 26.7195C57.989 30.1333 59.7006 32.8906 63.4036 32.8906C64.3977 32.8906 65.9733 32.8906 67.0018 32.8906L68.3547 27.0345ZM62.5634 9.67865C62.3711 10.6696 62.1101 11.8701 61.9225 12.5938C61.7928 13.0948 61.3926 13.2863 61.0112 13.291H57.0433L58.3274 7.6349C58.4884 6.93151 59.0668 6.72205 60.3688 6.72205C62.479 6.72205 62.8619 8.13118 62.5634 9.67865Z" fill="#553B39"/>
<path d="M93.4971 27.0345C92.3888 26.6648 91.78 25.6261 92.2208 24.1537C92.499 23.2205 92.5498 22.9837 92.803 22.0631C93.057 21.1471 93.315 18.0256 91.4674 16.2991C93.9933 15.0854 95.6276 12.1562 95.9027 9.08467C96.3005 4.64548 93.7878 0.88623 87.4299 0.88623C84.1404 0.88623 76.457 0.88623 75.9771 0.88623C75.4073 0.88623 74.8329 1.36376 74.6985 1.94757L73.4933 7.22459C73.5543 7.22459 76.2639 6.96824 75.4816 10.6548C75.0916 12.4875 73.4308 19.6481 72.2507 24.8751C72.1014 25.2948 71.9193 25.6863 71.6567 26.038C71.0119 26.8961 70.0795 27.1158 69.4824 27.1634L69.4254 27.158V27.1634L68.1171 32.8851H80.8477L82.163 27.1439H81.9708C80.9313 27.1439 80.2506 26.9149 79.8872 26.4421C79.5542 26.0075 79.4605 25.3409 79.6301 24.4522C79.648 24.3561 80.9657 18.6031 80.9657 18.6031C81.1931 17.5957 81.6332 17.6121 82.2287 17.6121C83.2682 17.6121 84.0786 17.6121 84.6976 17.6121C85.6269 17.6121 85.7449 18.2616 85.4596 19.4965C85.115 20.99 83.9504 26.1951 83.8426 26.7187C83.1306 30.1325 84.8422 32.8898 88.5459 32.8898C89.5393 32.8898 91.1149 32.8898 92.1442 32.8898L93.4971 27.0345ZM87.705 9.67865C87.5135 10.6696 87.2525 11.8701 87.0649 12.5938C86.9344 13.0948 86.5342 13.2863 86.1529 13.291H82.1849L83.469 7.63412C83.63 6.93072 84.2084 6.72127 85.5104 6.72127C87.6222 6.72205 88.0043 8.13118 87.705 9.67865Z" fill="#553B39"/>
<path d="M156.824 27.0345C155.715 26.6648 155.107 25.6261 155.549 24.1537C155.826 23.2205 155.877 22.9837 156.13 22.0631C156.385 21.1471 156.642 18.0256 154.795 16.2991C157.321 15.0854 158.955 12.1562 159.23 9.08467C159.627 4.64548 157.115 0.88623 150.757 0.88623C147.468 0.88623 139.784 0.88623 139.304 0.88623C138.735 0.88623 138.16 1.36376 138.026 1.94757L136.821 7.22459C136.881 7.22459 139.592 6.96824 138.809 10.6548C138.418 12.4875 136.759 19.6481 135.578 24.8751C135.429 25.2948 135.247 25.6863 134.984 26.038C134.338 26.8961 133.407 27.1158 132.81 27.1634L132.752 27.158V27.1634L131.444 32.8851H144.175L145.491 27.1439H145.299C144.259 27.1439 143.578 26.9149 143.215 26.4421C142.882 26.0075 142.789 25.3409 142.958 24.4522C142.976 24.3561 144.294 18.6031 144.294 18.6031C144.522 17.5957 144.961 17.6121 145.557 17.6121C146.596 17.6121 147.407 17.6121 148.026 17.6121C148.956 17.6121 149.073 18.2616 148.788 19.4965C148.443 20.99 147.278 26.1951 147.17 26.7187C146.458 30.1325 148.169 32.8898 151.874 32.8898C152.867 32.8898 154.443 32.8898 155.471 32.8898L156.824 27.0345ZM151.032 9.67865C150.841 10.6696 150.579 11.8701 150.393 12.5938C150.263 13.0948 149.862 13.2863 149.481 13.291H145.514L146.798 7.63412C146.958 6.93072 147.536 6.72127 148.838 6.72127C150.949 6.72205 151.332 8.13118 151.032 9.67865Z" fill="#553B39"/>
<path d="M399.625 27.0345C398.517 26.6648 397.908 25.6261 398.348 24.1537C398.626 23.2205 398.677 22.9837 398.93 22.0631C399.185 21.1471 399.442 18.0256 397.595 16.2991C400.12 15.0854 401.754 12.1562 402.029 9.08467C402.427 4.64548 399.916 0.88623 393.557 0.88623C390.267 0.88623 382.584 0.88623 382.105 0.88623C381.535 0.88623 380.96 1.36376 380.827 1.94757L379.62 7.22459C379.681 7.22459 382.392 6.96824 381.609 10.6548C381.219 12.4875 379.559 19.6481 378.378 24.8751C378.229 25.2948 378.047 25.6863 377.784 26.038C377.14 26.8961 376.207 27.1158 375.61 27.1634L375.553 27.158V27.1634L374.246 32.8851H386.975L388.292 27.1439H388.099C387.06 27.1439 386.379 26.9149 386.016 26.4421C385.683 26.0075 385.589 25.3409 385.759 24.4522C385.777 24.3561 387.095 18.6031 387.095 18.6031C387.323 17.5957 387.763 17.6121 388.358 17.6121C389.397 17.6121 390.207 17.6121 390.826 17.6121C391.756 17.6121 391.874 18.2616 391.589 19.4965C391.244 20.99 390.079 26.1951 389.972 26.7187C389.26 30.1325 390.971 32.8898 394.676 32.8898C395.669 32.8898 397.245 32.8898 398.273 32.8898L399.625 27.0345ZM393.833 9.67865C393.641 10.6696 393.381 11.8701 393.193 12.5938C393.064 13.0948 392.663 13.2863 392.281 13.291H388.315L389.599 7.63412C389.759 6.93072 390.338 6.72127 391.64 6.72127C393.749 6.72205 394.133 8.13118 393.833 9.67865Z" fill="#553B39"/>
<path d="M262.987 20.7281C262.41 23.1376 262.111 24.4795 261.613 25.7738C261.182 26.8976 260.029 27.3439 258.673 27.3353C258.235 27.3329 257.732 27.3517 257.299 27.3064C256.495 27.2196 255.724 26.9047 255.433 26.5279C255.104 26.095 254.812 25.4979 255.05 24.4764C255.568 22.249 258.45 9.7403 258.529 9.38157C258.89 8.31475 259.674 7.23544 262.036 7.23544L263.568 0.864258H251.469C250.898 0.864258 250.32 1.34335 250.185 1.92716L248.959 7.24794C249.019 7.24794 251.682 7.27608 250.925 10.6789C250.73 11.5558 250.24 13.6637 249.65 16.1951C249.647 16.1928 249.644 16.192 249.642 16.1912C249.002 18.9352 248.244 22.1794 247.612 24.9008C247.465 25.3173 247.279 25.7112 247.016 26.0629C246.38 26.9023 245.473 27.1305 244.874 27.1829L243.556 32.8929H265.123L267.938 20.7289L262.987 20.7281Z" fill="#553B39"/>
<path d="M285.571 20.71C284.994 23.1195 284.697 24.4614 284.198 25.7557C283.766 26.8796 282.614 27.3258 281.258 27.3172C280.82 27.3149 280.317 27.3336 279.885 27.2875C279.08 27.2016 278.308 26.8858 278.018 26.5099C277.688 26.0761 277.397 25.4798 277.634 24.4583C278.153 22.2309 281.034 9.72223 281.114 9.3635C281.475 8.29747 282.26 7.21737 284.62 7.21737L286.153 0.846191H274.053C273.483 0.846191 272.905 1.3245 272.77 1.9091L271.545 7.23066C271.603 7.23066 274.268 7.25879 273.51 10.6617C273.315 11.5378 272.824 13.6472 272.235 16.1778C272.232 16.1763 272.229 16.1747 272.227 16.1739C271.586 18.9187 270.828 22.1614 270.197 24.8819C270.05 25.3008 269.864 25.6924 269.601 26.0456C268.964 26.8858 268.058 27.1132 267.459 27.1656L266.141 32.8756H287.708L290.522 20.7116H285.571V20.71Z" fill="#553B39"/>
<path d="M214.811 0.876953C214.151 0.876953 204.111 0.879298 204.111 0.879298C203.541 0.879298 202.966 1.35839 202.833 1.9422L201.629 7.25126C201.694 7.25126 204.353 7.28487 203.609 10.6776C203.212 12.5103 201.57 19.656 200.39 24.8814C200.24 25.2956 200.059 25.688 199.794 26.0389C199.137 26.9134 198.182 27.1245 197.588 27.1635L196.272 32.8657C199 32.8642 211.471 32.8579 212.086 32.8579C215.361 32.8579 219.09 31.4425 220.667 24.8564C222.062 18.4172 223.513 12.4579 223.513 12.4579C224.692 6.40953 220.312 0.876953 214.811 0.876953ZM216.394 11.5928C216.212 12.3813 215.846 13.9937 215.433 15.8123C214.694 19.0675 213.776 23.1182 213.541 24.053C213 26.1858 212.272 26.8728 210.544 26.8728C210.303 26.8728 207.733 26.8861 207.392 26.8791L211.784 7.48416H213.925C214.727 7.48416 215.462 7.85461 215.944 8.50017C216.516 9.26843 216.673 10.3665 216.394 11.5928Z" fill="#553B39"/>
<path d="M317.539 27.168C316.688 27.168 315.646 27.1508 314.878 24.4717C313.037 18.0575 308.961 0.926758 308.961 0.926758H303.78L303.775 0.93301C303.219 0.966617 302.603 1.42539 302.381 1.98966L292.807 25.5518C292.152 26.8601 290.95 27.118 290.042 27.1688L288.722 32.8889H299.75L301.127 26.9367L299.208 26.9312C298.99 26.9312 298.84 26.7913 298.753 26.66C298.539 26.3325 298.426 25.7143 298.662 25.0688C298.864 24.5139 298.962 24.3169 299.075 24.0895L299.083 24.0707H307.014L307.028 24.1255C307.083 24.349 307.167 24.6835 307.334 25.415C307.432 25.8409 307.383 26.2497 307.209 26.4826C306.98 26.7843 306.682 26.9359 306.324 26.9359H305.199L303.829 32.8882L316.47 32.8944L317.791 27.1665C317.708 27.168 317.837 27.168 317.539 27.168ZM300.461 20.4045L303.868 12.0498L306.161 20.4045H300.461Z" fill="#553B39"/>
<path d="M428.024 27.168C427.175 27.168 426.13 27.1508 425.363 24.4717C423.523 18.0575 419.446 0.926758 419.446 0.926758H414.265L414.259 0.93301C413.705 0.966617 413.088 1.42539 412.867 1.98966L403.293 25.5526C402.639 26.8609 401.436 27.1188 400.528 27.1696L399.207 32.8897H410.235L411.614 26.9375L409.693 26.932C409.475 26.932 409.326 26.7921 409.241 26.6608C409.025 26.3333 408.912 25.7151 409.147 25.0696C409.35 24.5147 409.448 24.3177 409.561 24.0903L409.57 24.0715H417.5L417.515 24.1262C417.569 24.3498 417.653 24.6843 417.82 25.4158C417.917 25.8417 417.868 26.2505 417.694 26.4834C417.466 26.7851 417.169 26.9367 416.809 26.9367H415.686L414.315 32.8889L426.957 32.8952L428.276 27.1672C428.195 27.168 428.322 27.168 428.024 27.168ZM410.945 20.4045L414.352 12.0497L416.645 20.4045H410.945Z" fill="#553B39"/>
<path d="M101.141 0.88623C100.573 0.88623 99.9972 1.3661 99.8627 1.94992L98.6357 7.23162C98.6967 7.23162 101.452 7.00966 100.758 10.1741C100.68 10.5243 100.316 12.2421 100.316 12.2421C99.6251 15.2245 98.4942 20.5523 97.3751 24.9024C97.2641 25.3346 97.0453 25.7129 96.778 26.0646C95.8253 27.319 94.5466 27.1853 94.5466 27.1853L93.218 32.8922H105.885L107.219 27.172C106.446 27.172 104.117 27.3213 104.854 24.1084C105.112 22.9798 107.667 11.9131 108.068 10.2515C108.353 9.00261 108.774 7.22068 111.813 7.22068L113.283 0.887012L101.141 0.88623Z" fill="#553B39"/>
<path d="M115.842 0.88623C115.274 0.88623 114.698 1.3661 114.564 1.94992L113.349 7.25038C113.405 7.25038 116.071 7.28007 115.323 10.6814C114.921 12.511 113.261 19.6746 112.069 24.9024C111.923 25.3213 111.738 25.7129 111.476 26.0646C110.456 27.4174 108.722 27.1853 108.722 27.1853L107.408 32.8922H129.607L132.139 21.7809H127.19C126.796 23.573 126.589 24.7594 126.072 25.7746C125.508 26.8813 124.513 27.3643 123.079 27.3643C121.878 27.3643 121.025 26.8071 120.372 26.0435C119.767 25.326 119.595 24.2412 119.819 23.219C120.076 22.0506 120.381 20.7782 120.537 20.0506C120.824 18.718 121.155 18.0475 122.291 18.099C122.885 18.1256 123.597 18.8048 123.399 19.9036C123.334 20.2491 122.991 21.8309 122.991 21.8309H125.544L127.869 11.9326H125.233C125.233 11.9326 125.04 12.7806 124.774 13.9795C124.62 14.6774 123.891 15.1604 123.235 15.1198C122.205 15.0565 121.937 14.1022 122.127 13.23C122.268 12.5743 122.51 11.3371 122.714 10.3602C123.293 7.58879 124.95 7.012 126.76 7.05186C128.236 7.0886 128.972 8.0374 129.332 8.78534C129.633 9.41214 129.854 10.3664 129.452 12.0186H134.044L136.577 0.887012L115.842 0.88623Z" fill="#553B39"/>
<path d="M182.751 12.0178L185.284 0.88623H164.55C163.983 0.88623 163.407 1.3661 163.272 1.94992L162.057 7.25038C162.114 7.25038 164.781 7.28007 164.032 10.6814C163.629 12.511 161.97 19.6746 160.777 24.9024C160.631 25.3213 160.448 25.7129 160.185 26.0646C159.543 26.9165 158.619 27.14 158.022 27.1884L156.704 32.8914H178.315L180.847 21.7801H175.897C175.503 23.5722 175.296 24.7586 174.78 25.7738C174.216 26.8805 173.221 27.3635 171.787 27.3635C170.585 27.3635 169.732 26.8063 169.08 26.0427C168.475 25.3252 168.304 24.2404 168.527 23.2182C168.784 22.0498 169.088 20.7774 169.245 20.0498C169.532 18.7172 169.861 18.0467 170.998 18.0983C171.592 18.1248 172.304 18.804 172.106 19.9029C172.042 20.2483 171.699 21.8302 171.699 21.8302H174.253L176.578 11.9318H173.942C173.942 11.9318 173.749 12.7798 173.482 13.9787C173.329 14.6766 172.599 15.1596 171.943 15.119C170.913 15.0557 170.645 14.1014 170.834 13.2292C170.976 12.5735 171.219 11.3363 171.421 10.3594C172.002 7.58801 173.657 7.01122 175.469 7.05108C176.945 7.08781 177.681 8.03661 178.04 8.78455C178.341 9.41136 178.562 10.3656 178.161 12.0178H182.751Z" fill="#553B39"/>
<path d="M246.2 12.0178L248.734 0.88623H227.999C227.431 0.88623 226.855 1.3661 226.721 1.94992L225.504 7.25038C225.561 7.25038 228.229 7.28007 227.479 10.6814C227.077 12.511 225.418 19.6746 224.226 24.9024C224.079 25.3213 223.896 25.7129 223.633 26.0646C222.992 26.9165 222.066 27.14 221.469 27.1884L220.151 32.8914H241.762L244.294 21.7801H239.344C238.95 23.5722 238.744 24.7586 238.226 25.7738C237.664 26.8805 236.668 27.3635 235.235 27.3635C234.033 27.3635 233.179 26.8063 232.527 26.0427C231.922 25.3252 231.75 24.2404 231.973 23.2182C232.23 22.0498 232.536 20.7774 232.692 20.0498C232.979 18.7172 233.309 18.0467 234.445 18.0983C235.04 18.1248 235.751 18.804 235.553 19.9029C235.489 20.2483 235.146 21.8302 235.146 21.8302H237.699L240.025 11.9318H237.389C237.389 11.9318 237.196 12.7798 236.929 13.9787C236.776 14.6766 236.046 15.1596 235.389 15.119C234.36 15.0557 234.092 14.1014 234.28 13.2292C234.422 12.5735 234.665 11.3363 234.867 10.3594C235.449 7.58801 237.103 7.01122 238.914 7.05108C240.391 7.08781 241.127 8.03661 241.486 8.78455C241.787 9.41136 242.009 10.3656 241.607 12.0178H246.2Z" fill="#553B39"/>
<path d="M376.871 12.0178L379.405 0.88623H358.672C358.103 0.88623 357.527 1.3661 357.392 1.94992L356.177 7.25038C356.233 7.25038 358.901 7.28007 358.152 10.6814C357.749 12.511 356.091 19.6746 354.897 24.9024C354.751 25.3213 354.568 25.7129 354.305 26.0646C353.663 26.9165 352.74 27.14 352.142 27.1884L350.824 32.8914H372.434L374.967 21.7801H370.016C369.622 23.5722 369.416 24.7586 368.899 25.7738C368.336 26.8805 367.341 27.3635 365.906 27.3635C364.705 27.3635 363.852 26.8063 363.2 26.0427C362.593 25.3252 362.422 24.2404 362.647 23.2182C362.903 22.0498 363.208 20.7774 363.365 20.0498C363.65 18.7172 363.982 18.0467 365.119 18.0983C365.712 18.1248 366.424 18.804 366.226 19.9029C366.16 20.2483 365.818 21.8302 365.818 21.8302H368.373L370.699 11.9318H368.062C368.062 11.9318 367.869 12.7798 367.602 13.9787C367.448 14.6766 366.719 15.1596 366.062 15.119C365.033 15.0557 364.765 14.1014 364.954 13.2292C365.094 12.5735 365.337 11.3363 365.541 10.3594C366.121 7.58801 367.776 7.01122 369.587 7.05108C371.063 7.08781 371.8 8.03661 372.16 8.78455C372.46 9.41136 372.682 10.3656 372.279 12.0178H376.871Z" fill="#553B39"/>
</svg>
