<svg width="70" height="58" viewBox="0 0 70 58" fill="none" xmlns="http://www.w3.org/2000/svg">
<path d="M21.2785 35.6544L23.7206 24.5924C30.977 24.5924 40.67 24.5763 47.7489 24.6247C51.8531 24.6516 55.8712 25.2378 59.6904 26.8403C71.7448 31.89 71.5135 44.8718 63.6386 51.6262C59.4322 55.2347 54.4565 57.0469 49.0452 57.6546C42.628 58.3752 36.2861 57.9343 30.2024 55.5573C26.706 54.1914 23.5969 52.2554 21.5206 48.9911C20.3318 47.1251 19.8047 45.1622 19.8047 42.8605C19.8047 42.1722 19.8262 41.9194 19.8262 41.9194C24.1348 41.9463 30.0034 41.9302 34.3066 41.9571C34.3066 41.9571 34.3389 42.0861 34.425 42.2797C35.7536 45.1891 39.2284 46.1033 41.1864 46.3991C43.6285 46.7647 47.878 46.9315 51.0032 45.3504C51.7832 44.9578 52.5416 44.4523 53.171 43.8608C55.3064 41.8549 55.0267 38.9187 52.5846 37.2731C50.5782 35.9233 48.276 35.6974 45.9523 35.6867C38.2387 35.6544 21.2785 35.6544 21.2785 35.6544Z" fill="#553B39"/>
<path d="M65.8066 19.0268H24.9258L27.0021 9.47061C31.5797 9.48137 39.1157 9.50826 43.6879 9.3523C48.8195 9.17484 52.6978 8.46498 57.4906 6.48598C60.6319 5.18995 63.2031 3.5605 64.876 0.468316C65.0212 0.199431 65.0643 0.0273438 65.0643 0.0273438H65.8389C65.8389 0.0273438 65.8389 0.462939 65.8389 0.683425C65.8389 6.67958 65.8066 19.0268 65.8066 19.0268Z" fill="#553B39"/>
<path d="M20.5105 16.3845C20.5105 14.8249 19.3432 13.5289 17.8478 13.3299C17.7671 13.3192 17.7295 13.2277 17.7779 13.1632C18.1598 12.6523 18.3911 12.007 18.3911 11.3025C18.3911 9.60315 17.0194 8.22108 15.3089 8.22108C14.2708 8.22108 13.6683 8.64054 13.4101 8.87716C13.3509 8.93632 13.2487 8.89867 13.238 8.81263C13.0282 7.3714 11.7695 6.32812 10.2526 6.32812C8.74108 6.32812 7.5039 7.43056 7.2726 8.86641C7.25646 8.95245 7.15426 8.98472 7.09509 8.92556C6.8369 8.67819 6.23982 8.23721 5.2178 8.23721C3.5234 8.23721 2.13561 9.61929 2.13561 11.3186C2.13561 12.0446 2.38842 12.7115 2.80261 13.2331C2.8564 13.2976 2.81337 13.3891 2.73268 13.3998C1.19427 13.588 0.00012207 14.8948 0.00012207 16.4759C0.00012207 18.0569 1.20503 19.3422 2.74344 19.525C2.82413 19.5358 2.86178 19.6272 2.81337 19.6917C2.4207 20.208 2.18402 20.8641 2.18402 21.5578C2.18402 23.2572 3.57181 24.6446 5.26622 24.6446C5.93322 24.6446 6.55181 24.4349 7.05744 24.0746C7.12199 24.0316 7.20805 24.0638 7.21881 24.1445C7.46625 25.5965 8.72495 26.7097 10.2526 26.7097C11.8287 26.7097 13.1089 25.5373 13.3025 24.0262C13.3133 23.9455 13.4047 23.9079 13.4693 23.9563C13.991 24.3488 14.6311 24.5801 15.3358 24.5801C17.0463 24.5801 18.418 23.1926 18.418 21.4933C18.418 20.4984 18.0092 19.8907 17.7779 19.6272C17.7241 19.5627 17.7618 19.4605 17.8424 19.4498C19.3432 19.24 20.5105 17.9494 20.5105 16.3845ZM10.2741 19.6272C8.47751 19.6272 7.0413 18.1699 7.0413 16.3845C7.0413 14.5991 8.47751 13.1417 10.2741 13.1417C12.0707 13.1417 13.5231 14.5991 13.5231 16.3845C13.5231 18.1699 12.0707 19.6272 10.2741 19.6272Z" fill="#553B39"/>
</svg>
