<svg width="142" height="38" viewBox="0 0 142 38" fill="none" xmlns="http://www.w3.org/2000/svg">
<path d="M80.4028 12.8063C80.4028 8.7248 80.4731 4.92478 80.6842 1.40625L69.9175 3.447V4.43219L70.9731 4.57293C71.7472 4.6433 72.2398 4.92478 72.5212 5.34701C72.8027 5.8396 73.0138 6.54331 73.1546 7.59887C73.2953 9.63962 73.4361 14.2841 73.3657 21.6026C73.3657 28.8508 73.2953 33.4249 73.1546 35.1842C77.025 36.0286 80.0509 36.3805 82.3028 36.3805C86.525 36.3805 89.8324 35.1842 92.225 32.7212C94.6176 30.3286 95.8843 26.9508 95.8843 22.7989C95.8843 19.4915 94.9695 16.7471 93.1398 14.5656C91.3102 12.3841 88.988 11.3285 86.2435 11.3285C84.4139 11.3285 82.5139 11.8211 80.4028 12.8063ZM80.6139 34.4805C80.4731 32.2286 80.3324 25.473 80.3324 14.4248C80.9657 14.2137 81.8102 14.073 82.8657 14.073C84.5546 14.073 85.8917 14.9174 86.8769 16.6767C87.862 18.436 88.3546 20.5471 88.3546 23.2212C88.3546 26.5286 87.7917 29.2027 86.6657 31.4545C85.5398 33.636 84.1324 34.762 82.3731 34.762C81.8102 34.6212 81.2472 34.5508 80.6139 34.4805ZM29.5247 2.10996H1.37646V3.51737L2.85425 3.65811C3.98018 3.86922 4.75426 4.29145 5.24685 4.92478C5.73945 5.62849 6.02093 6.75442 6.0913 8.30258C6.65427 15.9026 6.65427 23.0101 6.0913 29.5545C5.95056 31.1027 5.66908 32.2286 5.24685 32.9323C4.75426 33.636 3.98018 34.0583 2.85425 34.199L1.37646 34.4101V35.8175H19.5321V34.4101L17.6321 34.2694C17.1685 34.2306 16.7175 34.0983 16.3063 33.8807C15.8951 33.663 15.5322 33.3643 15.2395 33.0027C14.7469 32.299 14.4654 31.1731 14.395 29.6249C14.1839 26.8101 14.0432 23.573 14.0432 19.9841L17.8432 20.0545C19.884 20.1249 21.2914 21.673 21.9951 24.7693H23.4025V13.2989H21.9951C21.2914 16.3248 19.9543 17.873 17.8432 17.9434L14.0432 18.0137C14.0432 11.6804 14.1839 7.17665 14.395 4.43219H19.9543C23.8951 4.43219 26.5692 6.96554 28.1173 12.0322L29.8062 11.5396L29.5247 2.10996ZM26.2173 23.7841C26.2173 27.4434 27.2729 30.4693 29.3136 32.8619C31.3544 35.2546 34.3803 36.3805 38.1803 36.3805C41.9804 36.3805 45.0767 35.1842 47.3285 32.7212C49.5804 30.3286 50.6359 27.3027 50.6359 23.6434C50.6359 19.9841 49.5804 16.9582 47.5396 14.5656C45.4989 12.173 42.4729 11.047 38.6729 11.047C34.8729 11.047 31.7766 12.2433 29.5247 14.7063C27.2729 17.0989 26.2173 20.1249 26.2173 23.7841ZM41.91 15.7619C42.7544 17.8026 43.1063 20.4767 43.1063 23.7138C43.1063 31.1731 41.5581 34.8323 38.5322 34.8323C36.984 34.8323 35.7877 33.7768 34.9433 31.6656C34.0988 29.5545 33.747 26.8804 33.747 23.7138C33.747 16.3248 35.2951 12.6656 38.3211 12.6656C39.8692 12.5952 41.0655 13.6508 41.91 15.7619ZM101.373 32.8619C103.695 35.1842 106.651 36.3805 110.17 36.3805C112.351 36.3805 114.251 35.9583 115.94 35.0434C117.629 34.199 118.966 33.1434 119.881 31.8768L119.177 31.0323C117.629 32.2286 115.87 32.7916 113.829 32.7916C111.014 32.7916 108.833 31.8768 107.355 29.9767C105.807 28.0767 105.103 25.6841 105.244 22.5878H120.303C120.303 19.21 119.458 16.4656 117.699 14.2841C115.94 12.173 113.477 11.1174 110.31 11.1174C106.37 11.1174 103.344 12.3841 101.162 14.8471C98.9806 17.31 97.925 20.336 97.925 23.9249C97.925 27.5841 99.051 30.5397 101.373 32.8619ZM106.581 15.1989C107.355 13.51 108.34 12.6656 109.677 12.6656C111.788 12.6656 112.844 15.3396 112.844 20.7582L105.384 20.8989C105.455 18.7878 105.807 16.8878 106.581 15.1989ZM139.233 12.3841C137.333 11.5396 134.94 11.047 132.055 11.047C129.099 11.047 126.777 11.8211 125.018 13.2989C123.258 14.7767 122.344 16.6063 122.344 18.7878C122.344 20.6878 122.907 22.1656 123.962 23.2212C125.018 24.2767 126.707 25.1915 128.888 25.9656C130.859 26.6693 132.266 27.373 132.97 28.0064C133.673 28.7101 134.096 29.4842 134.096 30.5397C134.096 31.5249 133.744 32.4397 132.97 33.1434C132.266 33.9175 131.281 34.2694 130.014 34.2694C126.918 34.2694 124.596 32.0175 122.977 27.5138L121.781 27.8656L122.062 34.9027C124.596 35.8879 127.41 36.3805 130.507 36.3805C133.744 36.3805 136.207 35.6768 138.036 34.199C139.866 32.7916 140.781 30.7508 140.781 28.2175C140.781 26.5286 140.359 25.1212 139.444 24.0656C138.529 23.0101 137.051 22.0952 134.94 21.2508C132.618 20.4063 130.999 19.6323 130.155 18.9286C129.31 18.2248 128.888 17.3804 128.888 16.3248C128.888 15.2693 129.17 14.4248 129.803 13.7211C130.436 13.0174 131.21 12.7359 132.196 12.7359C135.01 12.7359 137.051 14.7767 138.318 18.7878L139.514 18.436L139.233 12.3841ZM71.536 11.7507C70.5508 11.2581 69.4953 11.047 68.299 11.047C67.1027 11.047 65.9064 11.5396 64.5693 12.5248C63.2323 13.51 62.2471 14.8471 61.473 16.6767L61.5434 11.047L50.8471 13.1582V14.1433L51.9026 14.2137C53.2397 14.3545 54.0137 15.41 54.1545 17.31C54.5767 21.673 54.5767 26.3175 54.1545 31.2434C54.0137 33.1434 53.2397 34.1286 51.9026 34.3397L50.8471 34.4805V35.8175H65.7656V34.4805L63.8656 34.3397C62.5286 34.199 61.7545 33.1434 61.6138 31.2434C61.1916 27.1619 61.1212 22.7989 61.473 18.2952C61.8953 17.5915 62.8101 17.1693 64.2175 17.0285C65.6249 16.8878 67.2434 17.31 68.9323 18.2952L71.536 11.7507Z" fill="#553B39"/>
</svg>
