<svg width="125" height="40" viewBox="0 0 125 40" fill="none" xmlns="http://www.w3.org/2000/svg">
<mask id="mask0_0_3208" style="mask-type:luminance" maskUnits="userSpaceOnUse" x="0" y="0" width="125" height="40">
<path d="M0.276245 39.145H124.015V0.855019H0.276245V39.145Z" fill="white"/>
</mask>
<g mask="url(#mask0_0_3208)">
<path d="M13.182 1.14273C13.1834 1.13622 13.383 1.14562 13.383 1.14562L13.9181 14.0606L13.738 14.0714C13.3649 12.6064 12.3591 1.24831 8.43468 1.24831C5.41854 1.24831 4.40617 15.1756 4.40617 19.8419C4.40617 25.8851 5.15098 38.5657 8.53664 38.5657C10.1687 38.5657 11.0545 35.7694 11.0545 32.08V20.2968H9.24312V19.834H16.5539V20.2968H14.7193V38.761C14.715 38.7595 14.5103 38.7667 14.5089 38.7631C14.2435 37.9945 14.2052 36.4137 13.0157 36.4137C11.6967 36.4137 10.283 39.1449 8.44986 39.1392C2.38721 39.1203 0.275696 27.9199 0.275696 19.8448C0.275696 13.1552 2.7184 0.855652 8.4448 0.855652C9.40438 0.855652 10.0798 1.10368 10.8456 2.21078C11.4067 3.02284 12.4682 3.20797 12.9224 2.16811C13.0598 1.85428 13.1227 1.45006 13.182 1.14273Z" fill="#553B39"/>
<path d="M95.4232 1.81815H93.8012V1.37633H100.707V1.81815H99.0778L99.0894 38.0849H100.707V38.5332H93.8012V38.0849H95.4232" fill="#553B39"/>
<path d="M75.3726 38.0822H79.7012C81.731 38.002 84.2171 36.1067 84.2171 30.8199C84.2171 29.8112 84.2294 28.7576 84.2294 27.7018L84.6148 27.704V38.5262L71.5054 38.5342L80.4048 1.8213H76.2541C73.6292 1.8213 72.1808 5.79413 72.1808 9.44734C72.1808 10.3845 72.1526 12.1988 72.1526 12.1988L71.7867 12.2032V1.3773H84.5223L75.3726 38.0822Z" fill="#553B39"/>
<path d="M31.4225 1.82631V19.8422C32.1745 19.8378 33.4197 19.9232 34.7134 18.2549C35.9152 16.7045 36.3917 12.7961 36.3917 9.88333C36.3917 6.77536 34.8363 1.81836 32.8391 1.81836L31.4225 1.82631ZM26.1654 1.37943L33.889 1.38159C37.5871 1.38159 39.9849 5.49109 39.9849 10.425C39.9849 15.3422 37.9674 19.9246 34.8573 19.9246C34.4415 19.9246 34.4798 20.1741 34.8573 20.1741C36.7208 20.1741 38.12 22.3058 38.4028 22.8728C39.5424 25.1651 38.7571 35.7125 39.8974 36.7545C40.8592 37.6338 41.5657 36.2592 41.6915 36.0459L41.8087 36.1312C41.7906 36.2281 40.9662 38.9478 38.8858 38.9478C37.1575 38.9478 36.2826 36.8239 36.0338 35.4941C35.6296 33.3277 35.7612 26.701 35.5406 25.3683C35.3483 24.2062 34.8262 20.7381 33.1948 20.4351C32.4674 20.2999 32.2381 20.2999 31.4232 20.305C31.4188 20.305 31.4246 38.0778 31.4246 38.0778H33.0538V38.5341H25.9441V38.0778H27.77L27.7627 1.82631H26.1654V1.37943Z" fill="#553B39"/>
<path d="M52.3232 27.2207H57.5058L55.0089 12.6881L52.3232 27.2207ZM49.7359 38.0769L56.7212 0.854939L63.1773 38.0776L64.6452 38.082V38.5317L57.9288 38.531V38.0747H59.3997L57.5716 27.6936H52.2212L50.3245 38.0834H52.2104V38.5288H48.1443V38.087L49.7359 38.0769Z" fill="#553B39"/>
<path d="M111.693 27.2207H116.876L114.379 12.6881L111.693 27.2207ZM109.107 38.0769L116.091 0.854939L122.548 38.0776L124.015 38.082V38.5317L117.299 38.531V38.0747H118.77L116.942 27.6936H111.591L109.694 38.0841H111.58V38.5288H107.514V38.0877L109.107 38.0769Z" fill="#553B39"/>
</g>
</svg>
