<svg width="114" height="113" viewBox="0 0 114 113" fill="none" xmlns="http://www.w3.org/2000/svg">
<g filter="url(#filter0_d_0_3833)">
<path d="M54.609 21.1714C55.8138 19.6095 58.1862 19.6095 59.391 21.1714L61.9419 24.4784C62.8436 25.6473 64.4702 25.9901 65.7735 25.2858L69.4605 23.2935C71.2018 22.3525 73.3692 23.3092 73.8291 25.2219L74.8028 29.2717C75.147 30.7032 76.4923 31.6723 77.9719 31.5545L82.1574 31.2212C84.1343 31.0638 85.7218 32.8119 85.3572 34.7447L84.5854 38.837C84.3126 40.2835 85.1441 41.7114 86.544 42.2004L90.5044 43.5838C92.375 44.2373 93.1081 46.4744 91.9822 48.0931L89.5983 51.5203C88.7556 52.7318 88.9295 54.3715 90.0078 55.3828L93.0582 58.2437C94.499 59.595 94.251 61.9343 92.5584 62.959L88.9746 65.1287C87.7078 65.8956 87.1939 67.4636 87.7641 68.8223L89.3772 72.6661C90.1391 74.4815 88.9529 76.5186 86.9862 76.7722L82.8222 77.309C81.3503 77.4987 80.2376 78.724 80.2011 80.1952L80.0979 84.3571C80.0492 86.3229 78.1298 87.7055 76.2291 87.144L72.2049 85.9552C70.7824 85.535 69.2633 86.2056 68.6264 87.5349L66.8248 91.2954C65.9738 93.0715 63.6532 93.5606 62.1472 92.2811L58.9586 89.5723C57.8314 88.6148 56.1686 88.6148 55.0414 89.5723L51.8528 92.2811C50.3468 93.5606 48.0262 93.0715 47.1753 91.2954L45.3736 87.5349C44.7367 86.2056 43.2176 85.535 41.7951 85.9552L37.7709 87.144C35.8702 87.7055 33.9508 86.3229 33.9021 84.3571L33.7989 80.1952C33.7624 78.724 32.6497 77.4987 31.1778 77.309L27.0138 76.7722C25.0471 76.5186 23.8609 74.4815 24.6228 72.6661L26.2359 68.8223C26.8061 67.4636 26.2922 65.8956 25.0254 65.1287L21.4416 62.9591C19.749 61.9343 19.501 59.595 20.9418 58.2437L23.9922 55.3828C25.0706 54.3715 25.2444 52.7318 24.4017 51.5203L22.0178 48.0931C20.8919 46.4744 21.625 44.2373 23.4956 43.5838L27.456 42.2004C28.8559 41.7114 29.6874 40.2835 29.4146 38.837L28.6428 34.7447C28.2782 32.8119 29.8657 31.0638 31.8426 31.2212L36.0281 31.5545C37.5077 31.6723 38.853 30.7032 39.1972 29.2717L40.1709 25.2219C40.6308 23.3092 42.7982 22.3525 44.5395 23.2935L48.2265 25.2858C49.5298 25.9901 51.1564 25.6473 52.0581 24.4784L54.609 21.1714Z" fill="url(#paint0_linear_0_3833)"/>
<path d="M55.0049 21.4766C56.0095 20.1744 57.9905 20.1744 58.9951 21.4766L61.5459 24.7842C62.598 26.148 64.4931 26.5455 66.0107 25.7256L69.6982 23.7334C71.1547 22.9464 72.9606 23.7496 73.3428 25.3389L74.3164 29.3887C74.7189 31.0623 76.2899 32.1898 78.0117 32.0527L82.1973 31.7197C83.8514 31.5881 85.1685 33.0493 84.8662 34.6523L84.0938 38.7441C83.7746 40.4365 84.7481 42.1031 86.3789 42.6729L90.3398 44.0557C91.9012 44.6012 92.5063 46.4634 91.5713 47.8076L89.1875 51.2344C88.2028 52.6501 88.4073 54.5665 89.666 55.7471L92.7158 58.6084C93.9141 59.7322 93.71 61.6773 92.2998 62.5312L88.7158 64.7012C87.2387 65.5954 86.6361 67.4267 87.3027 69.0156L88.916 72.8594C89.5481 74.3655 88.5661 76.0644 86.9219 76.2764L82.7578 76.8135C81.0447 77.0346 79.7439 78.4619 79.7012 80.1826L79.5977 84.3447C79.5572 85.976 77.9617 87.1338 76.3711 86.6641L72.3467 85.4756C70.6912 84.9865 68.9199 85.7659 68.1758 87.3184L66.374 91.0791C65.6658 92.5574 63.7287 92.969 62.4707 91.9004L59.2822 89.1914C57.9684 88.0753 56.0316 88.0753 54.7178 89.1914L51.5293 91.9004C50.2713 92.969 48.3342 92.5574 47.626 91.0791L45.8242 87.3184C45.0801 85.7659 43.3088 84.9865 41.6533 85.4756L37.6289 86.6641C36.0383 87.1338 34.4428 85.976 34.4023 84.3447L34.2988 80.1826C34.2561 78.4619 32.9553 77.0346 31.2422 76.8135L27.0781 76.2764C25.4339 76.0644 24.4519 74.3655 25.084 72.8594L26.6973 69.0156C27.3639 67.4267 26.7613 65.5954 25.2842 64.7012L21.7002 62.5312C20.29 61.6773 20.0859 59.7322 21.2842 58.6084L24.334 55.7471C25.5927 54.5665 25.7972 52.6501 24.8125 51.2344L22.4287 47.8076C21.4937 46.4634 22.0988 44.6012 23.6602 44.0557L27.6211 42.6729C29.2519 42.1031 30.2254 40.4365 29.9062 38.7441L29.1338 34.6523C28.8315 33.0493 30.1486 31.5881 31.8027 31.7197L35.9883 32.0527C37.7101 32.1898 39.2811 31.0623 39.6836 29.3887L40.6572 25.3389C41.0394 23.7496 42.8453 22.9464 44.3018 23.7334L47.9893 25.7256C49.5069 26.5455 51.4019 26.148 52.4541 24.7842L55.0049 21.4766Z" stroke="#F3EFEC" stroke-opacity="0.2"/>
<path d="M49.9913 64.24C49.0846 64.24 48.2579 64.08 47.5113 63.76C46.7646 63.4267 46.1646 62.9267 45.7113 62.26C45.2713 61.58 45.0379 60.7267 45.0113 59.7H47.3713C47.3846 60.1667 47.4913 60.5933 47.6913 60.98C47.9046 61.3533 48.2046 61.6533 48.5913 61.88C48.9779 62.0933 49.4446 62.2 49.9913 62.2C50.5113 62.2 50.9513 62.1 51.3113 61.9C51.6846 61.7 51.9646 61.4267 52.1513 61.08C52.3379 60.7333 52.4313 60.3467 52.4313 59.92C52.4313 59.4 52.3046 58.9733 52.0513 58.64C51.7979 58.2933 51.4513 58.0333 51.0113 57.86C50.5713 57.6867 50.0713 57.6 49.5113 57.6H48.4713V55.62H49.5113C50.2446 55.62 50.8446 55.4533 51.3113 55.12C51.7779 54.7733 52.0113 54.2733 52.0113 53.62C52.0113 53.0733 51.8313 52.6333 51.4713 52.3C51.1246 51.9667 50.6246 51.8 49.9713 51.8C49.2913 51.8 48.7513 52 48.3513 52.4C47.9646 52.8 47.7513 53.2933 47.7113 53.88H45.3512C45.3913 53.04 45.6046 52.3133 45.9913 51.7C46.3913 51.0733 46.9313 50.5933 47.6113 50.26C48.2913 49.9267 49.0846 49.76 49.9913 49.76C50.9379 49.76 51.7379 49.9267 52.3913 50.26C53.0446 50.5933 53.5379 51.04 53.8713 51.6C54.2179 52.16 54.3913 52.7733 54.3913 53.44C54.3913 53.96 54.2913 54.4333 54.0913 54.86C53.8913 55.2867 53.6179 55.6467 53.2713 55.94C52.9379 56.22 52.5446 56.4267 52.0913 56.56C52.6113 56.6667 53.0713 56.8733 53.4713 57.18C53.8846 57.4867 54.2046 57.88 54.4313 58.36C54.6713 58.8267 54.7913 59.3733 54.7913 60C54.7913 60.76 54.6046 61.4667 54.2313 62.12C53.8713 62.76 53.3313 63.2733 52.6113 63.66C51.9046 64.0467 51.0313 64.24 49.9913 64.24ZM63.0039 64.24C61.7372 64.24 60.6506 63.94 59.7439 63.34C58.8372 62.7267 58.1372 61.88 57.6439 60.8C57.1639 59.7067 56.9239 58.44 56.9239 57C56.9239 55.56 57.1639 54.3 57.6439 53.22C58.1372 52.1267 58.8372 51.28 59.7439 50.68C60.6506 50.0667 61.7372 49.76 63.0039 49.76C64.2572 49.76 65.3306 50.0667 66.2239 50.68C67.1306 51.28 67.8239 52.1267 68.3039 53.22C68.7972 54.3 69.0439 55.56 69.0439 57C69.0439 58.44 68.7972 59.7067 68.3039 60.8C67.8239 61.88 67.1306 62.7267 66.2239 63.34C65.3306 63.94 64.2572 64.24 63.0039 64.24ZM62.9839 62.08C63.6906 62.08 64.3172 61.88 64.8639 61.48C65.4106 61.0667 65.8306 60.48 66.1239 59.72C66.4306 58.96 66.5839 58.0533 66.5839 57C66.5839 55.9467 66.4306 55.04 66.1239 54.28C65.8306 53.52 65.4106 52.94 64.8639 52.54C64.3172 52.1267 63.6906 51.92 62.9839 51.92C62.2772 51.92 61.6506 52.1267 61.1039 52.54C60.5572 52.94 60.1306 53.52 59.8239 54.28C59.5306 55.04 59.3839 55.9467 59.3839 57C59.3839 58.0533 59.5306 58.96 59.8239 59.72C60.1306 60.48 60.5572 61.0667 61.1039 61.48C61.6506 61.88 62.2772 62.08 62.9839 62.08Z" fill="#F3EFEC"/>
<mask id="path-4-inside-1_0_3833" fill="white">
<path d="M38.4272 50.1978C38.2068 50.6775 37.904 51.0491 37.519 51.3124C37.1361 51.5708 36.7052 51.7104 36.2262 51.731C35.7424 51.7493 35.2387 51.6383 34.7153 51.3978C34.1968 51.1596 33.7855 50.8474 33.4816 50.4613C33.1729 50.073 32.9939 49.6386 32.9446 49.1582C32.8927 48.6707 32.987 48.1652 33.2274 47.6418C33.499 47.0505 33.8669 46.6267 34.3309 46.3704C34.7923 46.1069 35.3018 46.0328 35.8592 46.1481L35.4084 47.1295C35.123 47.0864 34.861 47.1392 34.6225 47.2879C34.384 47.4365 34.1869 47.6805 34.031 48.0198C33.8729 48.3639 33.8122 48.694 33.8489 49.0102C33.883 49.3193 34.0105 49.6038 34.2315 49.8638C34.4499 50.1167 34.7505 50.3311 35.1334 50.507C35.5162 50.6829 35.8747 50.7713 36.2089 50.7722C36.5452 50.7682 36.8406 50.6809 37.0951 50.5102C37.3448 50.3373 37.5431 50.0909 37.69 49.7711C37.9082 49.2961 37.9397 48.8763 37.7844 48.5115C37.6292 48.1467 37.3483 47.8446 36.9419 47.605L36.3374 48.9208L35.6759 48.6169L36.6844 46.4215L39.4687 47.7005L39.1014 48.5002L38.3701 48.2523C38.4837 48.4395 38.5676 48.6336 38.622 48.8346C38.6715 49.0335 38.6821 49.2467 38.6539 49.4743C38.623 49.6949 38.5474 49.936 38.4272 50.1978ZM40.4125 45.3365L38.0615 39.8568L38.8416 39.1215L44.1731 41.7915L43.4338 42.4885L39.214 40.3096L41.1402 44.6505L40.4125 45.3365ZM40.1707 43.7504L39.8357 43.0218L41.844 41.1286L42.5516 41.506L40.1707 43.7504ZM46.1494 39.9571L43.9873 34.7914L45.8396 34.0161C46.2479 33.8452 46.6148 33.7754 46.9402 33.8069C47.2684 33.8314 47.5459 33.935 47.7727 34.1176C48.0023 34.2932 48.1789 34.5286 48.3024 34.8238C48.4177 35.0993 48.4609 35.3819 48.4318 35.6716C48.4027 35.9613 48.2827 36.2341 48.0719 36.49C47.861 36.746 47.544 36.9625 47.1209 37.1396L46.1763 37.5349L47.035 39.5865L46.1494 39.9571ZM48.843 38.8297L46.8038 37.0035L47.7631 36.6019L49.854 38.4066L48.843 38.8297ZM45.9014 36.8781L46.8091 36.4982C47.1387 36.3602 47.3469 36.1806 47.4335 35.9594C47.523 35.7311 47.5131 35.4866 47.404 35.2259C47.2969 34.97 47.1352 34.7978 46.9189 34.7091C46.7004 34.6155 46.424 34.6387 46.0894 34.7787L45.1817 35.1587L45.9014 36.8781ZM52.1481 37.3279L53.993 31.6577L55.0643 31.6191L57.3127 37.1417L56.2974 37.1783L54.561 32.758L53.1474 37.2918L52.1481 37.3279ZM53.0119 35.9759L53.2404 35.2071L55.9986 35.1077L56.2818 35.858L53.0119 35.9759ZM59.9631 37.0598L61.8232 31.7778L62.7287 32.0966L63.927 36.8103L65.2716 32.9922L66.1771 33.3111L64.317 38.5931L63.4115 38.2742L62.2105 33.5681L60.8685 37.3787L59.9631 37.0598ZM67.0529 39.5133L67.5232 38.9471L72.1456 37.514L70.1272 35.8374L70.6435 35.2158L73.5173 37.6031L73.047 38.1692L68.4123 39.5921L70.4676 41.2994L69.9513 41.9209L67.0529 39.5133ZM72.341 43.9709L76.9414 40.7777L77.4888 41.5663L72.8884 44.7595L72.341 43.9709ZM74.6694 47.2683L80.6313 47.1691L81.0162 48.1696L76.5249 52.0917L76.1601 51.1434L79.7755 48.064L75.0284 48.2016L74.6694 47.2683ZM76.2288 47.6455L77.03 47.6116L78.021 50.1876L77.4036 50.6994L76.2288 47.6455Z"/>
</mask>
<path d="M38.4272 50.1978L37.5185 49.7803L38.4272 50.1978ZM37.519 51.3124L38.0785 52.1412L38.0834 52.1379L37.519 51.3124ZM36.2262 51.7309L36.2641 52.7302L36.2692 52.73L36.2262 51.7309ZM33.4816 50.4613L34.2674 49.8428L34.2644 49.839L33.4816 50.4613ZM32.9446 49.1582L33.9394 49.0561L33.939 49.0523L32.9446 49.1582ZM34.3309 46.3704L34.8145 47.2458L34.8267 47.2388L34.3309 46.3704ZM35.8592 46.1481L36.768 46.5655L37.2927 45.4232L36.0617 45.1688L35.8592 46.1481ZM35.4084 47.1295L35.2592 48.1183L36.0031 48.2305L36.3171 47.5469L35.4084 47.1295ZM34.6225 47.2879L35.1515 48.1365H35.1515L34.6225 47.2879ZM33.8489 49.0102L34.8429 48.9006L34.8423 48.8949L33.8489 49.0102ZM34.2315 49.8638L33.4696 50.5115L33.4746 50.5173L34.2315 49.8638ZM35.1334 50.507L34.7159 51.4157L35.1334 50.507ZM36.2089 50.7722L36.2062 51.7722L36.2134 51.7722L36.2206 51.7721L36.2089 50.7722ZM37.0951 50.5102L37.6521 51.3407L37.6584 51.3366L37.6645 51.3323L37.0951 50.5102ZM37.7844 48.5115L38.7046 48.1199L37.7844 48.5115ZM36.9419 47.605L37.4496 46.7435L36.4955 46.1812L36.0332 47.1876L36.9419 47.605ZM36.3374 48.9208L35.92 49.8295L36.8287 50.247L37.2461 49.3383L36.3374 48.9208ZM35.6759 48.6169L34.7672 48.1995L34.3498 49.1082L35.2585 49.5256L35.6759 48.6169ZM36.6844 46.4215L37.1019 45.5128L36.1932 45.0954L35.7757 46.0041L36.6844 46.4215ZM39.4687 47.7005L40.3774 48.118L40.7949 47.2093L39.8862 46.7918L39.4687 47.7005ZM39.1014 48.5002L38.7803 49.4473L39.6338 49.7366L40.0101 48.9176L39.1014 48.5002ZM38.3701 48.2523L38.6911 47.3052L36.0908 46.4237L37.5152 48.7711L38.3701 48.2523ZM38.622 48.8346L39.5923 48.5929L39.5899 48.5832L39.5873 48.5736L38.622 48.8346ZM38.6539 49.4743L39.6442 49.6131L39.6453 49.6053L39.6462 49.5976L38.6539 49.4743ZM38.4272 50.1978L37.5185 49.7803C37.3635 50.1176 37.171 50.3389 36.9545 50.4869L37.519 51.3124L38.0834 52.1379C38.637 51.7593 39.05 51.2375 39.3359 50.6152L38.4272 50.1978ZM37.519 51.3124L36.9594 50.4836C36.7357 50.6346 36.485 50.7189 36.1833 50.7319L36.2262 51.7309L36.2692 52.73C36.9254 52.7018 37.5365 52.5071 38.0785 52.1412L37.519 51.3124ZM36.2262 51.7309L36.1883 50.7317C35.8883 50.7431 35.5405 50.6764 35.1328 50.4891L34.7153 51.3978L34.2979 52.3065C34.937 52.6001 35.5964 52.7556 36.2641 52.7302L36.2262 51.7309ZM34.7153 51.3978L35.1328 50.4891C34.735 50.3064 34.4586 50.0857 34.2674 49.8428L33.4816 50.4613L32.6958 51.0798C33.1125 51.6092 33.6586 52.0128 34.2979 52.3065L34.7153 51.3978ZM33.4816 50.4613L34.2644 49.839C34.0712 49.596 33.9686 49.341 33.9394 49.0561L32.9446 49.1582L31.9498 49.2602C32.0192 49.9362 32.2746 50.55 32.6989 51.0837L33.4816 50.4613ZM32.9446 49.1582L33.939 49.0523C33.9092 48.773 33.9575 48.448 34.1361 48.0592L33.2274 47.6418L32.3187 47.2244C32.0164 47.8824 31.8762 48.5684 31.9502 49.264L32.9446 49.1582ZM33.2274 47.6418L34.1361 48.0592C34.3392 47.6171 34.5765 47.3771 34.8145 47.2457L34.3309 46.3704L33.8474 45.4951C33.1572 45.8763 32.6589 46.4839 32.3187 47.2244L33.2274 47.6418ZM34.3309 46.3704L34.8267 47.2388C35.0608 47.1051 35.3194 47.0576 35.6568 47.1274L35.8592 46.1481L36.0617 45.1688C35.2842 45.0081 34.5239 45.1087 33.8351 45.5019L34.3309 46.3704ZM35.8592 46.1481L34.9505 45.7306L34.4997 46.712L35.4084 47.1295L36.3171 47.5469L36.768 46.5655L35.8592 46.1481ZM35.4084 47.1295L35.5576 46.1407C35.0436 46.0631 34.5401 46.1609 34.0935 46.4392L34.6225 47.2879L35.1515 48.1365C35.182 48.1175 35.2024 48.1097 35.2592 48.1183L35.4084 47.1295ZM34.6225 47.2879L34.0935 46.4392C33.6426 46.7203 33.3335 47.1425 33.1223 47.6023L34.031 48.0198L34.9397 48.4372C35.0402 48.2185 35.1255 48.1528 35.1515 48.1365L34.6225 47.2879ZM34.031 48.0198L33.1223 47.6023C32.9024 48.081 32.7941 48.5954 32.8556 49.1255L33.8489 49.0102L34.8423 48.8949C34.8304 48.7926 34.8435 48.6467 34.9397 48.4372L34.031 48.0198ZM33.8489 49.0102L32.855 49.1197C32.913 49.6466 33.1324 50.1147 33.4696 50.5115L34.2315 49.8638L34.9935 49.2162C34.8887 49.0929 34.853 48.992 34.8429 48.9006L33.8489 49.0102ZM34.2315 49.8638L33.4746 50.5173C33.8076 50.903 34.2358 51.1952 34.7159 51.4157L35.1334 50.507L35.5508 49.5983C35.2652 49.4671 35.0922 49.3304 34.9884 49.2103L34.2315 49.8638ZM35.1334 50.507L34.7159 51.4157C35.196 51.6363 35.6966 51.7708 36.2062 51.7722L36.2089 50.7722L36.2115 49.7722C36.0528 49.7718 35.8364 49.7295 35.5508 49.5983L35.1334 50.507ZM36.2089 50.7722L36.2206 51.7721C36.7316 51.7661 37.2206 51.6302 37.6521 51.3407L37.0951 50.5102L36.5381 49.6797C36.4607 49.7316 36.3589 49.7703 36.1971 49.7722L36.2089 50.7722ZM37.0951 50.5102L37.6645 51.3323C38.0836 51.042 38.389 50.6449 38.5987 50.1885L37.69 49.7711L36.7813 49.3536C36.6971 49.5369 36.606 49.6326 36.5257 49.6882L37.0951 50.5102ZM37.69 49.7711L38.5987 50.1885C38.895 49.5434 39.0024 48.8197 38.7046 48.1199L37.7844 48.5115L36.8643 48.9031C36.8769 48.9328 36.9213 49.0488 36.7813 49.3536L37.69 49.7711ZM37.7844 48.5115L38.7046 48.1199C38.4506 47.5232 38.0042 47.0703 37.4496 46.7435L36.9419 47.605L36.4342 48.4665C36.6925 48.6188 36.8078 48.7703 36.8643 48.9031L37.7844 48.5115ZM36.9419 47.605L36.0332 47.1876L35.4287 48.5034L36.3374 48.9208L37.2461 49.3383L37.8506 48.0225L36.9419 47.605ZM36.3374 48.9208L36.7549 48.0121L36.0933 47.7082L35.6759 48.6169L35.2585 49.5256L35.92 49.8295L36.3374 48.9208ZM35.6759 48.6169L36.5846 49.0344L37.5931 46.8389L36.6844 46.4215L35.7757 46.0041L34.7672 48.1995L35.6759 48.6169ZM36.6844 46.4215L36.267 47.3302L39.0513 48.6092L39.4687 47.7005L39.8862 46.7918L37.1019 45.5128L36.6844 46.4215ZM39.4687 47.7005L38.56 47.2831L38.1927 48.0828L39.1014 48.5002L40.0101 48.9176L40.3774 48.118L39.4687 47.7005ZM39.1014 48.5002L39.4224 47.5531L38.6911 47.3052L38.3701 48.2523L38.049 49.1994L38.7803 49.4473L39.1014 48.5002ZM38.3701 48.2523L37.5152 48.7711C37.5825 48.8821 37.628 48.9898 37.6567 49.0957L38.622 48.8346L39.5873 48.5736C39.5072 48.2773 39.3848 47.9969 39.225 47.7335L38.3701 48.2523ZM38.622 48.8346L37.6516 49.0763C37.6681 49.1425 37.6764 49.2309 37.6615 49.3511L38.6539 49.4743L39.6462 49.5976C39.6879 49.2625 39.6749 48.9244 39.5923 48.5929L38.622 48.8346ZM38.6539 49.4743L37.6635 49.3356C37.6494 49.4364 37.6093 49.5826 37.5185 49.7803L38.4272 50.1978L39.3359 50.6152C39.4855 50.2895 39.5965 49.9534 39.6442 49.6131L38.6539 49.4743ZM40.4125 45.3365L39.4935 45.7308L40.0575 47.0454L41.0985 46.0641L40.4125 45.3365ZM38.0615 39.8568L37.3756 39.1291L36.8669 39.6086L37.1425 40.2511L38.0615 39.8568ZM38.8416 39.1215L39.2893 38.2273L38.6643 37.9143L38.1556 38.3938L38.8416 39.1215ZM44.1731 41.7915L44.859 42.5192L45.8999 41.538L44.6209 40.8974L44.1731 41.7915ZM43.4338 42.4885L42.975 43.377L43.6043 43.702L44.1197 43.2161L43.4338 42.4885ZM39.214 40.3096L39.6728 39.421L37.1469 38.1169L38.2999 40.7152L39.214 40.3096ZM41.1402 44.6505L41.8261 45.3782L42.3415 44.8924L42.0542 44.2449L41.1402 44.6505ZM40.1707 43.7504L39.2621 44.1682L39.8437 45.4329L40.8566 44.4781L40.1707 43.7504ZM39.8357 43.0218L39.1497 42.2941L38.627 42.7869L38.9271 43.4395L39.8357 43.0218ZM41.844 41.1286L42.3146 40.2462L41.6808 39.9082L41.1581 40.4009L41.844 41.1286ZM42.5516 41.506L43.2375 42.2337L44.2505 41.2788L43.0222 40.6237L42.5516 41.506ZM40.4125 45.3365L41.3315 44.9422L38.9805 39.4625L38.0615 39.8568L37.1425 40.2511L39.4935 45.7308L40.4125 45.3365ZM38.0615 39.8568L38.7474 40.5844L39.5275 39.8491L38.8416 39.1215L38.1556 38.3938L37.3756 39.1291L38.0615 39.8568ZM38.8416 39.1215L38.3938 40.0156L43.7253 42.6857L44.1731 41.7915L44.6209 40.8974L39.2893 38.2273L38.8416 39.1215ZM44.1731 41.7915L43.4871 41.0639L42.7478 41.7608L43.4338 42.4885L44.1197 43.2161L44.859 42.5192L44.1731 41.7915ZM43.4338 42.4885L43.8926 41.5999L39.6728 39.421L39.214 40.3096L38.7552 41.1981L42.975 43.377L43.4338 42.4885ZM39.214 40.3096L38.2999 40.7152L40.2261 45.0561L41.1402 44.6505L42.0542 44.2449L40.128 39.904L39.214 40.3096ZM41.1402 44.6505L40.4542 43.9229L39.7266 44.6088L40.4125 45.3365L41.0985 46.0641L41.8261 45.3782L41.1402 44.6505ZM40.1707 43.7504L41.0793 43.3326L40.7442 42.604L39.8357 43.0218L38.9271 43.4395L39.2621 44.1682L40.1707 43.7504ZM39.8357 43.0218L40.5216 43.7494L42.5299 41.8562L41.844 41.1286L41.1581 40.4009L39.1497 42.2941L39.8357 43.0218ZM41.844 41.1286L41.3734 42.0109L42.081 42.3883L42.5516 41.506L43.0222 40.6237L42.3146 40.2462L41.844 41.1286ZM42.5516 41.506L41.8657 40.7783L39.4848 43.0227L40.1707 43.7504L40.8566 44.4781L43.2375 42.2337L42.5516 41.506ZM46.1494 39.9571L45.227 40.3432L45.6131 41.2657L46.5355 40.8796L46.1494 39.9571ZM43.9873 34.7914L43.6012 33.8689L42.6787 34.255L43.0648 35.1774L43.9873 34.7914ZM45.8396 34.0161L45.4535 33.0936L45.8396 34.0161ZM46.9402 33.8069L46.8439 34.8023L46.8548 34.8033L46.8657 34.8041L46.9402 33.8069ZM47.7727 34.1176L47.1455 34.8964L47.1552 34.9043L47.1651 34.9119L47.7727 34.1176ZM48.4318 35.6716L47.4368 35.5717V35.5717L48.4318 35.6716ZM48.0719 36.49L47.3001 35.8541L48.0719 36.49ZM47.1209 37.1396L46.7348 36.2171L47.1209 37.1396ZM46.1763 37.5349L45.7902 36.6125L44.8678 36.9986L45.2538 37.921L46.1763 37.5349ZM47.035 39.5865L47.4211 40.5089L48.3435 40.1228L47.9574 39.2004L47.035 39.5865ZM48.843 38.8297L48.1759 39.5747L48.6464 39.9961L49.2291 39.7522L48.843 38.8297ZM46.8038 37.0035L46.4177 36.081L44.9573 36.6922L46.1366 37.7484L46.8038 37.0035ZM47.7631 36.6019L48.4165 35.8449L47.948 35.4405L47.377 35.6795L47.7631 36.6019ZM49.854 38.4066L50.2401 39.329L51.7305 38.7052L50.5074 37.6495L49.854 38.4066ZM45.9014 36.8781L44.9789 37.2642L45.365 38.1867L46.2875 37.8006L45.9014 36.8781ZM46.8091 36.4982L46.423 35.5758L46.8091 36.4982ZM47.4335 35.9594L46.5025 35.5944L46.5023 35.5948L47.4335 35.9594ZM47.404 35.2259L46.4815 35.612L47.404 35.2259ZM46.9189 34.7091L46.5249 35.6283L46.5322 35.6314L46.5396 35.6344L46.9189 34.7091ZM45.1817 35.1587L44.7956 34.2362L43.8732 34.6223L44.2593 35.5448L45.1817 35.1587ZM46.1494 39.9571L47.0719 39.571L44.9097 34.4053L43.9873 34.7914L43.0648 35.1774L45.227 40.3432L46.1494 39.9571ZM43.9873 34.7914L44.3734 35.7138L46.2257 34.9385L45.8396 34.0161L45.4535 33.0936L43.6012 33.8689L43.9873 34.7914ZM45.8396 34.0161L46.2257 34.9385C46.5333 34.8098 46.7307 34.7913 46.8439 34.8023L46.9402 33.8069L47.0365 32.8116C46.4989 32.7596 45.9626 32.8805 45.4535 33.0936L45.8396 34.0161ZM46.9402 33.8069L46.8657 34.8041C47.0192 34.8156 47.0967 34.8571 47.1455 34.8964L47.7727 34.1176L48.3999 33.3387C47.9952 33.0128 47.5176 32.8472 47.0146 32.8097L46.9402 33.8069ZM47.7727 34.1176L47.1651 34.9119C47.2414 34.9702 47.3165 35.0583 47.38 35.2099L48.3024 34.8238L49.2249 34.4377C49.0412 33.999 48.7631 33.6162 48.3802 33.3233L47.7727 34.1176ZM48.3024 34.8238L47.38 35.2099C47.4328 35.3361 47.4488 35.452 47.4368 35.5717L48.4318 35.6716L49.4268 35.7715C49.4729 35.3119 49.4027 34.8625 49.2249 34.4377L48.3024 34.8238ZM48.4318 35.6716L47.4368 35.5717C47.4301 35.6382 47.4032 35.729 47.3001 35.8541L48.0719 36.49L48.8436 37.1259C49.1623 36.7392 49.3753 36.2844 49.4268 35.7715L48.4318 35.6716ZM48.0719 36.49L47.3001 35.8541C47.2245 35.9459 47.0624 36.08 46.7348 36.2171L47.1209 37.1396L47.507 38.062C48.0256 37.8449 48.4975 37.5461 48.8436 37.1259L48.0719 36.49ZM47.1209 37.1396L46.7348 36.2171L45.7902 36.6125L46.1763 37.5349L46.5624 38.4574L47.507 38.062L47.1209 37.1396ZM46.1763 37.5349L45.2538 37.921L46.1125 39.9726L47.035 39.5865L47.9574 39.2004L47.0988 37.1488L46.1763 37.5349ZM47.035 39.5865L46.6489 38.664L45.7633 39.0347L46.1494 39.9571L46.5355 40.8796L47.4211 40.5089L47.035 39.5865ZM48.843 38.8297L49.5101 38.0848L47.4709 36.2585L46.8038 37.0035L46.1366 37.7484L48.1759 39.5747L48.843 38.8297ZM46.8038 37.0035L47.1899 37.9259L48.1492 37.5244L47.7631 36.6019L47.377 35.6795L46.4177 36.081L46.8038 37.0035ZM47.7631 36.6019L47.1097 37.3589L49.2006 39.1636L49.854 38.4066L50.5074 37.6495L48.4165 35.8449L47.7631 36.6019ZM49.854 38.4066L49.4679 37.4841L48.4569 37.9073L48.843 38.8297L49.2291 39.7522L50.2401 39.329L49.854 38.4066ZM45.9014 36.8781L46.2875 37.8006L47.1952 37.4207L46.8091 36.4982L46.423 35.5758L45.5153 35.9557L45.9014 36.8781ZM46.8091 36.4982L47.1952 37.4207C47.6497 37.2304 48.139 36.9003 48.3647 36.3239L47.4335 35.9594L46.5023 35.5948C46.5138 35.5653 46.5277 35.5419 46.5401 35.5251C46.552 35.5089 46.5602 35.502 46.5591 35.503C46.5577 35.5041 46.5477 35.5125 46.525 35.5259C46.5023 35.5393 46.4691 35.5564 46.423 35.5758L46.8091 36.4982ZM47.4335 35.9594L48.3645 36.3244C48.5634 35.817 48.5194 35.3007 48.3264 34.8398L47.404 35.2259L46.4815 35.612C46.4972 35.6493 46.4946 35.6586 46.494 35.645C46.4938 35.6385 46.4941 35.6294 46.4959 35.619C46.4976 35.6085 46.5002 35.6001 46.5025 35.5944L47.4335 35.9594ZM47.404 35.2259L48.3264 34.8398C48.1374 34.3882 47.8049 33.9916 47.2981 33.7838L46.9189 34.7091L46.5396 35.6344C46.5285 35.6298 46.5157 35.6232 46.5028 35.6143C46.49 35.6054 46.4801 35.5965 46.4733 35.5893C46.4596 35.5746 46.4663 35.5755 46.4815 35.612L47.404 35.2259ZM46.9189 34.7091L47.3128 33.79C46.7407 33.5448 46.158 33.666 45.7033 33.8563L46.0894 34.7787L46.4755 35.7012C46.5234 35.6812 46.5606 35.669 46.5875 35.6617C46.6145 35.6545 46.6287 35.653 46.6314 35.6528C46.6337 35.6526 46.6235 35.6537 46.6033 35.6508C46.5826 35.6479 46.5553 35.6413 46.5249 35.6283L46.9189 34.7091ZM46.0894 34.7787L45.7033 33.8563L44.7956 34.2362L45.1817 35.1587L45.5678 36.0811L46.4755 35.7012L46.0894 34.7787ZM45.1817 35.1587L44.2593 35.5448L44.9789 37.2642L45.9014 36.8781L46.8239 36.492L46.1042 34.7726L45.1817 35.1587ZM52.1481 37.3279L51.1972 37.0185L50.7545 38.3787L52.1841 38.3272L52.1481 37.3279ZM53.993 31.6577L53.957 30.6584L53.2584 30.6836L53.0421 31.3483L53.993 31.6577ZM55.0643 31.6191L55.9905 31.242L55.7269 30.5946L55.0283 30.6197L55.0643 31.6191ZM57.3127 37.1417L57.3488 38.141L58.7783 38.0895L58.2389 36.7646L57.3127 37.1417ZM56.2974 37.1783L55.3666 37.5439L55.6256 38.2032L56.3334 38.1776L56.2974 37.1783ZM54.561 32.758L55.4918 32.3923L54.4525 29.7465L53.6063 32.4603L54.561 32.758ZM53.1474 37.2918L53.1835 38.2912L53.8913 38.2657L54.1021 37.5895L53.1474 37.2918ZM53.0119 35.9759L52.0534 35.691L51.6568 37.0254L53.048 36.9752L53.0119 35.9759ZM53.2404 35.2071L53.2044 34.2078L52.4865 34.2337L52.2818 34.9223L53.2404 35.2071ZM55.9986 35.1077L56.9342 34.7546L56.6805 34.0825L55.9626 34.1084L55.9986 35.1077ZM56.2818 35.858L56.3178 36.8573L57.709 36.8072L57.2174 35.5048L56.2818 35.858ZM52.1481 37.3279L53.099 37.6373L54.9439 31.9671L53.993 31.6577L53.0421 31.3483L51.1972 37.0185L52.1481 37.3279ZM53.993 31.6577L54.029 32.6571L55.1003 32.6184L55.0643 31.6191L55.0283 30.6197L53.957 30.6584L53.993 31.6577ZM55.0643 31.6191L54.1381 31.9962L56.3865 37.5188L57.3127 37.1417L58.2389 36.7646L55.9905 31.242L55.0643 31.6191ZM57.3127 37.1417L57.2767 36.1423L56.2614 36.1789L56.2974 37.1783L56.3334 38.1776L57.3488 38.141L57.3127 37.1417ZM56.2974 37.1783L57.2282 36.8127L55.4918 32.3923L54.561 32.758L53.6303 33.1236L55.3666 37.5439L56.2974 37.1783ZM54.561 32.758L53.6063 32.4603L52.1928 36.9942L53.1474 37.2918L54.1021 37.5895L55.5157 33.0556L54.561 32.758ZM53.1474 37.2918L53.1114 36.2925L52.1121 36.3285L52.1481 37.3279L52.1841 38.3272L53.1835 38.2912L53.1474 37.2918ZM53.0119 35.9759L53.9705 36.2607L54.199 35.492L53.2404 35.2071L52.2818 34.9223L52.0534 35.691L53.0119 35.9759ZM53.2404 35.2071L53.2764 36.2065L56.0346 36.1071L55.9986 35.1077L55.9626 34.1084L53.2044 34.2078L53.2404 35.2071ZM55.9986 35.1077L55.063 35.4609L55.3462 36.2111L56.2818 35.858L57.2174 35.5048L56.9342 34.7546L55.9986 35.1077ZM56.2818 35.858L56.2458 34.8586L52.9759 34.9765L53.0119 35.9759L53.048 36.9752L56.3178 36.8573L56.2818 35.858ZM59.9631 37.0598L59.0198 36.7276L58.6877 37.6708L59.6309 38.003L59.9631 37.0598ZM61.8232 31.7778L62.1554 30.8345L61.2122 30.5024L60.88 31.4456L61.8232 31.7778ZM62.7287 32.0966L63.6979 31.8503L63.5659 31.3313L63.0609 31.1534L62.7287 32.0966ZM63.927 36.8103L62.9578 37.0567L63.7722 40.2603L64.8702 37.1425L63.927 36.8103ZM65.2716 32.9922L65.6038 32.049L64.6606 31.7168L64.3284 32.66L65.2716 32.9922ZM66.1771 33.3111L67.1203 33.6432L67.4525 32.7L66.5093 32.3678L66.1771 33.3111ZM64.317 38.5931L63.9848 39.5363L64.928 39.8685L65.2602 38.9253L64.317 38.5931ZM63.4115 38.2742L62.4425 38.5215L62.5748 39.0398L63.0793 39.2174L63.4115 38.2742ZM62.2105 33.5681L63.1795 33.3208L62.3635 30.1232L61.2673 33.2359L62.2105 33.5681ZM60.8685 37.3787L60.5364 38.3219L61.4796 38.6541L61.8118 37.7108L60.8685 37.3787ZM59.9631 37.0598L60.9063 37.392L62.7664 32.1099L61.8232 31.7778L60.88 31.4456L59.0198 36.7276L59.9631 37.0598ZM61.8232 31.7778L61.491 32.721L62.3965 33.0399L62.7287 32.0966L63.0609 31.1534L62.1554 30.8345L61.8232 31.7778ZM62.7287 32.0966L61.7595 32.343L62.9578 37.0567L63.927 36.8103L64.8962 36.5639L63.6979 31.8503L62.7287 32.0966ZM63.927 36.8103L64.8702 37.1425L66.2148 33.3243L65.2716 32.9922L64.3284 32.66L62.9838 36.4782L63.927 36.8103ZM65.2716 32.9922L64.9394 33.9354L65.8449 34.2543L66.1771 33.3111L66.5093 32.3678L65.6038 32.049L65.2716 32.9922ZM66.1771 33.3111L65.2339 32.9789L63.3737 38.2609L64.317 38.5931L65.2602 38.9253L67.1203 33.6432L66.1771 33.3111ZM64.317 38.5931L64.6491 37.6499L63.7436 37.331L63.4115 38.2742L63.0793 39.2174L63.9848 39.5363L64.317 38.5931ZM63.4115 38.2742L64.3804 38.0269L63.1795 33.3208L62.2105 33.5681L61.2416 33.8153L62.4425 38.5215L63.4115 38.2742ZM62.2105 33.5681L61.2673 33.2359L59.9253 37.0465L60.8685 37.3787L61.8118 37.7108L63.1537 33.9002L62.2105 33.5681ZM60.8685 37.3787L61.2007 36.4355L60.2952 36.1166L59.9631 37.0598L59.6309 38.003L60.5364 38.3219L60.8685 37.3787ZM67.0529 39.5133L66.2837 38.8743L65.6447 39.6435L66.4139 40.2825L67.0529 39.5133ZM67.5232 38.9471L67.2271 37.992L66.9436 38.0799L66.754 38.3082L67.5232 38.9471ZM72.1456 37.514L72.4418 38.4692L74.2031 37.9231L72.7846 36.7448L72.1456 37.514ZM70.1272 35.8374L69.358 35.1984L68.719 35.9676L69.4882 36.6066L70.1272 35.8374ZM70.6435 35.2158L71.2825 34.4466L70.5132 33.8076L69.8742 34.5769L70.6435 35.2158ZM73.5173 37.6031L74.2865 38.242L74.9255 37.4728L74.1563 36.8338L73.5173 37.6031ZM73.047 38.1692L73.3405 39.1252L73.6256 39.0376L73.8162 38.8082L73.047 38.1692ZM68.4123 39.5921L68.1188 38.6361L66.3501 39.1791L67.7733 40.3613L68.4123 39.5921ZM70.4676 41.2994L71.2369 41.9384L71.8758 41.1692L71.1066 40.5302L70.4676 41.2994ZM69.9513 41.9209L69.3124 42.6902L70.0816 43.3291L70.7206 42.5599L69.9513 41.9209ZM67.0529 39.5133L67.8221 40.1523L68.2924 39.5861L67.5232 38.9471L66.754 38.3082L66.2837 38.8743L67.0529 39.5133ZM67.5232 38.9471L67.8193 39.9023L72.4418 38.4692L72.1456 37.514L71.8495 36.5589L67.2271 37.992L67.5232 38.9471ZM72.1456 37.514L72.7846 36.7448L70.7662 35.0681L70.1272 35.8374L69.4882 36.6066L71.5067 38.2833L72.1456 37.514ZM70.1272 35.8374L70.8964 36.4763L71.4127 35.8548L70.6435 35.2158L69.8742 34.5769L69.358 35.1984L70.1272 35.8374ZM70.6435 35.2158L70.0045 35.9851L72.8783 38.3723L73.5173 37.6031L74.1563 36.8338L71.2825 34.4466L70.6435 35.2158ZM73.5173 37.6031L72.7481 36.9641L72.2778 37.5302L73.047 38.1692L73.8162 38.8082L74.2865 38.242L73.5173 37.6031ZM73.047 38.1692L72.7535 37.2132L68.1188 38.6361L68.4123 39.5921L68.7057 40.548L73.3405 39.1252L73.047 38.1692ZM68.4123 39.5921L67.7733 40.3613L69.8287 42.0686L70.4676 41.2994L71.1066 40.5302L69.0512 38.8228L68.4123 39.5921ZM70.4676 41.2994L69.6984 40.6604L69.1821 41.282L69.9513 41.9209L70.7206 42.5599L71.2369 41.9384L70.4676 41.2994ZM69.9513 41.9209L70.5903 41.1517L67.6919 38.7441L67.0529 39.5133L66.4139 40.2825L69.3124 42.6902L69.9513 41.9209ZM72.341 43.9709L71.7708 43.1494L70.9493 43.7196L71.5195 44.5411L72.341 43.9709ZM76.9414 40.7777L77.7629 40.2074L77.1927 39.3859L76.3712 39.9562L76.9414 40.7777ZM77.4888 41.5663L78.059 42.3878L78.8805 41.8176L78.3103 40.9961L77.4888 41.5663ZM72.8884 44.7595L72.0669 45.3297L72.6371 46.1512L73.4586 45.581L72.8884 44.7595ZM72.341 43.9709L72.9112 44.7923L77.5116 41.5992L76.9414 40.7777L76.3712 39.9562L71.7708 43.1494L72.341 43.9709ZM76.9414 40.7777L76.1199 41.3479L76.6673 42.1365L77.4888 41.5663L78.3103 40.9961L77.7629 40.2074L76.9414 40.7777ZM77.4888 41.5663L76.9186 40.7448L72.3182 43.938L72.8884 44.7595L73.4586 45.581L78.059 42.3878L77.4888 41.5663ZM72.8884 44.7595L73.7099 44.1893L73.1625 43.4006L72.341 43.9709L71.5195 44.5411L72.0669 45.3297L72.8884 44.7595ZM74.6694 47.2683L74.6527 46.2684L73.2224 46.2922L73.736 47.6273L74.6694 47.2683ZM80.6313 47.1691L81.5646 46.81L81.3136 46.1576L80.6146 46.1692L80.6313 47.1691ZM81.0162 48.1696L81.6739 48.9228L82.2005 48.463L81.9495 47.8106L81.0162 48.1696ZM76.5249 52.0917L75.5916 52.4507L76.1052 53.7858L77.1826 52.8449L76.5249 52.0917ZM76.1601 51.1434L75.5117 50.3821L74.9725 50.8414L75.2268 51.5025L76.1601 51.1434ZM79.7755 48.064L80.424 48.8253L82.588 46.9821L79.7466 47.0644L79.7755 48.064ZM75.0284 48.2016L74.0951 48.5606L74.3494 49.2217L75.0574 49.2012L75.0284 48.2016ZM76.2288 47.6455L76.1865 46.6464L74.7957 46.7053L75.2955 48.0046L76.2288 47.6455ZM77.03 47.6116L77.9634 47.2525L77.7054 46.5821L76.9877 46.6125L77.03 47.6116ZM78.021 50.1875L78.6592 50.9574L79.2122 50.499L78.9543 49.8285L78.021 50.1875ZM77.4036 50.6994L76.4703 51.0584L76.9701 52.3576L78.0418 51.4692L77.4036 50.6994ZM74.6694 47.2683L74.686 48.2681L80.6479 48.1689L80.6313 47.1691L80.6146 46.1692L74.6527 46.2684L74.6694 47.2683ZM80.6313 47.1691L79.698 47.5281L80.0829 48.5286L81.0162 48.1696L81.9495 47.8106L81.5646 46.81L80.6313 47.1691ZM81.0162 48.1696L80.3584 47.4164L75.8671 51.3384L76.5249 52.0917L77.1826 52.8449L81.6739 48.9228L81.0162 48.1696ZM76.5249 52.0917L77.4582 51.7326L77.0934 50.7844L76.1601 51.1434L75.2268 51.5025L75.5916 52.4507L76.5249 52.0917ZM76.1601 51.1434L76.8085 51.9047L80.424 48.8253L79.7755 48.064L79.1271 47.3027L75.5117 50.3821L76.1601 51.1434ZM79.7755 48.064L79.7466 47.0644L74.9994 47.202L75.0284 48.2016L75.0574 49.2012L79.8045 49.0636L79.7755 48.064ZM75.0284 48.2016L75.9617 47.8425L75.6027 46.9092L74.6694 47.2683L73.736 47.6273L74.0951 48.5606L75.0284 48.2016ZM76.2288 47.6455L76.2711 48.6446L77.0724 48.6107L77.03 47.6116L76.9877 46.6125L76.1865 46.6464L76.2288 47.6455ZM77.03 47.6116L76.0967 47.9706L77.0877 50.5466L78.021 50.1875L78.9543 49.8285L77.9634 47.2525L77.03 47.6116ZM78.021 50.1875L77.3828 49.4177L76.7654 49.9295L77.4036 50.6994L78.0418 51.4692L78.6592 50.9574L78.021 50.1875ZM77.4036 50.6994L78.3369 50.3403L77.1621 47.2865L76.2288 47.6455L75.2955 48.0046L76.4703 51.0584L77.4036 50.6994Z" fill="white" mask="url(#path-4-inside-1_0_3833)"/>
<path d="M39.0753 75.1034C38.677 74.7567 38.4058 74.3616 38.2616 73.918C38.1214 73.4778 38.1089 73.0251 38.2241 72.5597C38.3427 72.0902 38.5911 71.6383 38.9693 71.2038C39.3439 70.7733 39.7593 70.4666 40.2153 70.2838C40.6749 70.0969 41.1421 70.0475 41.617 70.1356C42.0994 70.2231 42.5578 70.4559 42.9923 70.834C43.4831 71.2612 43.7862 71.7335 43.9015 72.251C44.0243 72.7679 43.9519 73.2776 43.6843 73.78L42.8696 73.071C42.9913 72.8093 43.0145 72.5431 42.939 72.2723C42.8635 72.0016 42.6849 71.7437 42.4033 71.4986C42.1177 71.25 41.818 71.0988 41.5043 71.045C41.1981 70.9906 40.8891 71.0328 40.5774 71.1716C40.2733 71.3099 39.9829 71.538 39.7063 71.8558C39.4297 72.1736 39.2439 72.4927 39.1489 72.8131C39.058 73.1369 39.0586 73.445 39.1507 73.7372C39.2463 74.0255 39.4268 74.2851 39.6923 74.5162C40.0866 74.8593 40.4806 75.0078 40.8743 74.9616C41.2681 74.9154 41.6371 74.731 41.9814 74.4085L40.8891 73.4579L41.367 72.9087L43.1895 74.4948L41.178 76.8061L40.5142 76.2284L40.9581 75.5965C40.7465 75.6528 40.5366 75.6787 40.3284 75.6742C40.1236 75.6657 39.916 75.6159 39.7056 75.5246C39.5026 75.4329 39.2925 75.2924 39.0753 75.1034ZM44.9705 79.7195L47.2378 74.599L48.1156 74.9877L45.8483 80.1082L44.9705 79.7195ZM53.0457 82.1693C52.5096 82.1168 52.0463 81.9508 51.6556 81.6714C51.2708 81.3872 50.9827 81.0187 50.7913 80.5659C50.6003 80.1078 50.533 79.5921 50.5891 79.0189C50.6447 78.4509 50.8103 77.9634 51.086 77.5563C51.3622 77.1439 51.7166 76.8357 52.1492 76.6315C52.5871 76.4279 53.0741 76.3524 53.6102 76.4049C54.157 76.4584 54.6254 76.6275 55.0155 76.9122C55.4056 77.1969 55.6935 77.5681 55.8791 78.0257C56.0652 78.478 56.1305 78.9881 56.0748 79.5561C56.0187 80.1293 55.8552 80.6224 55.5843 81.0353C55.314 81.4429 54.9599 81.7485 54.5219 81.9521C54.0845 82.1504 53.5925 82.2228 53.0457 82.1693ZM53.1379 81.3102C53.4935 81.345 53.8119 81.2958 54.0928 81.1625C54.3744 81.024 54.6016 80.8104 54.7745 80.5219C54.9475 80.2334 55.0545 79.8795 55.0955 79.4602C55.1366 79.0408 55.1003 78.6729 54.9866 78.3563C54.8729 78.0397 54.6912 77.7888 54.4414 77.6036C54.1921 77.413 53.8896 77.3003 53.534 77.2655C53.1784 77.2307 52.8598 77.2826 52.5783 77.4211C52.2973 77.5544 52.0677 77.765 51.8894 78.053C51.7165 78.3415 51.6095 78.6954 51.5684 79.1148C51.5273 79.5341 51.5637 79.902 51.6773 80.2186C51.7963 80.5357 51.9805 80.7896 52.2298 80.9801C52.4796 81.1653 52.7823 81.2753 53.1379 81.3102ZM60.6862 82.4138L59.1434 77.0305L61.0737 76.4773C61.4992 76.3553 61.8717 76.329 62.1912 76.3984C62.5143 76.4611 62.7778 76.5964 62.9816 76.8043C63.1891 77.0056 63.3369 77.2601 63.4251 77.5677C63.5074 77.8548 63.5171 78.1405 63.4544 78.4248C63.3916 78.7091 63.2405 78.966 63.0012 79.1955C62.7618 79.425 62.4216 79.6029 61.9807 79.7293L60.9964 80.0114L61.6091 82.1493L60.6862 82.4138ZM63.4932 81.6093L61.6817 79.557L62.6814 79.2705L64.5468 81.3074L63.4932 81.6093ZM60.8002 79.3269L61.7461 79.0558C62.0896 78.9574 62.3173 78.8034 62.4293 78.5938C62.5448 78.3775 62.5637 78.1336 62.4858 77.8619C62.4094 77.5953 62.269 77.4053 62.0645 77.2919C61.8585 77.1734 61.5812 77.1641 61.2326 77.264L60.2867 77.5351L60.8002 79.3269ZM69.1092 79.6037L65.7651 75.1117L66.5352 74.5385L71.115 76.1756L68.6978 72.9286L69.4678 72.3553L72.8118 76.8473L72.0418 77.4205L67.4667 75.7898L69.8792 79.0304L69.1092 79.6037ZM76.4586 73.8729L72.1636 70.2795L72.7796 69.5432L77.0746 73.1366L76.4586 73.8729Z" fill="white"/>
</g>
<defs>
<filter id="filter0_d_0_3833" x="0" y="0" width="114" height="114" filterUnits="userSpaceOnUse" color-interpolation-filters="sRGB">
<feFlood flood-opacity="0" result="BackgroundImageFix"/>
<feColorMatrix in="SourceAlpha" type="matrix" values="0 0 0 0 0 0 0 0 0 0 0 0 0 0 0 0 0 0 127 0" result="hardAlpha"/>
<feOffset/>
<feGaussianBlur stdDeviation="10"/>
<feComposite in2="hardAlpha" operator="out"/>
<feColorMatrix type="matrix" values="0 0 0 0 0.627451 0 0 0 0 0.45098 0 0 0 0 0.396078 0 0 0 0.25 0"/>
<feBlend mode="normal" in2="BackgroundImageFix" result="effect1_dropShadow_0_3833"/>
<feBlend mode="normal" in="SourceGraphic" in2="effect1_dropShadow_0_3833" result="shape"/>
</filter>
<linearGradient id="paint0_linear_0_3833" x1="57" y1="18.0715" x2="57" y2="173.5" gradientUnits="userSpaceOnUse">
<stop offset="1" stop-color="#7E3207"/>
</linearGradient>
</defs>
</svg>
