<svg width="75" height="73" viewBox="0 0 75 73" fill="none" xmlns="http://www.w3.org/2000/svg">
<path d="M34.9422 1.17142C36.147 -0.390473 38.5195 -0.390474 39.7243 1.17142L42.2752 4.47836C43.1769 5.64732 44.8034 5.99011 46.1067 5.28584L49.7937 3.29349C51.5351 2.35249 53.7024 3.30922 54.1623 5.22194L55.1361 9.27167C55.4803 10.7032 56.8256 11.6723 58.3051 11.5545L62.4907 11.2212C64.4675 11.0638 66.055 12.8119 65.6905 14.7447L64.9187 18.837C64.6459 20.2835 65.4773 21.7114 66.8773 22.2004L70.8377 23.5838C72.7082 24.2373 73.4414 26.4744 72.3154 28.0931L69.9316 31.5203C69.0889 32.7318 69.2627 34.3715 70.341 35.3828L73.3915 38.2437C74.8322 39.595 74.5843 41.9343 72.8916 42.959L69.3079 45.1287C68.0411 45.8956 67.5272 47.4636 68.0974 48.8223L69.7105 52.6661C70.4724 54.4815 69.2861 56.5186 67.3195 56.7722L63.1555 57.309C61.6836 57.4987 60.5709 58.724 60.5344 60.1952L60.4312 64.3571C60.3824 66.3229 58.4631 67.7055 56.5624 67.144L52.5382 65.9552C51.1157 65.535 49.5966 66.2056 48.9597 67.5349L47.158 71.2954C46.3071 73.0715 43.9865 73.5606 42.4804 72.2811L39.2918 69.5723C38.1647 68.6148 36.5018 68.6148 35.3747 69.5723L32.1861 72.2811C30.6801 73.5606 28.3595 73.0715 27.5085 71.2954L25.7068 67.5349C25.07 66.2056 23.5508 65.535 22.1283 65.9552L18.1041 67.144C16.2035 67.7055 14.2841 66.3229 14.2353 64.3571L14.1321 60.1952C14.0956 58.724 12.9829 57.4987 11.511 57.309L7.34706 56.7722C5.38038 56.5186 4.19416 54.4815 4.95603 52.6661L6.56911 48.8223C7.13932 47.4636 6.62546 45.8956 5.35864 45.1287L1.77489 42.9591C0.0822543 41.9343 -0.165736 39.595 1.27503 38.2437L4.3255 35.3828C5.4038 34.3715 5.57762 32.7318 4.73495 31.5203L2.35108 28.0931C1.22516 26.4744 1.95829 24.2373 3.82882 23.5838L7.78923 22.2004C9.18918 21.7114 10.0206 20.2835 9.74781 18.837L8.97601 14.7447C8.61149 12.8119 10.199 11.0638 12.1758 11.2212L16.3614 11.5545C17.8409 11.6723 19.1862 10.7032 19.5304 9.27167L20.5042 5.22194C20.9641 3.30922 23.1314 2.35249 24.8728 3.29349L28.5598 5.28584C29.8631 5.99011 31.4896 5.64732 32.3913 4.47836L34.9422 1.17142Z" fill="url(#paint0_linear_504_266)"/>
<path d="M35.3381 1.47656C36.3428 0.174362 38.3237 0.174365 39.3284 1.47656L41.8792 4.78418C42.9313 6.14796 44.8263 6.54551 46.344 5.72559L50.0315 3.7334C51.4879 2.94643 53.2939 3.7496 53.676 5.33887L54.6497 9.38867C55.0521 11.0623 56.6232 12.1898 58.345 12.0527L62.5305 11.7197C64.1847 11.5881 65.5018 13.0493 65.1995 14.6523L64.427 18.7441C64.1078 20.4365 65.0814 22.1031 66.7122 22.6729L70.6731 24.0557C72.2345 24.6012 72.8395 26.4634 71.9045 27.8076L69.5208 31.2344C68.536 32.6501 68.7405 34.5665 69.9993 35.7471L73.0491 38.6084C74.2473 39.7322 74.0432 41.6773 72.6331 42.5312L69.0491 44.7012C67.5719 45.5954 66.9693 47.4267 67.636 49.0156L69.2493 52.8594C69.8813 54.3655 68.8994 56.0644 67.2551 56.2764L63.0911 56.8135C61.3779 57.0346 60.0772 58.4619 60.0344 60.1826L59.9309 64.3447C59.8904 65.976 58.2949 67.1338 56.7043 66.6641L52.6799 65.4756C51.0244 64.9865 49.2531 65.7659 48.509 67.3184L46.7073 71.0791C45.999 72.5574 44.0619 72.969 42.804 71.9004L39.6155 69.1914C38.3017 68.0753 36.3648 68.0753 35.051 69.1914L31.8625 71.9004C30.6046 72.969 28.6675 72.5574 27.9592 71.0791L26.1575 67.3184C25.4134 65.7659 23.6421 64.9865 21.9866 65.4756L17.9622 66.6641C16.3716 67.1338 14.7761 65.976 14.7356 64.3447L14.6321 60.1826C14.5893 58.4619 13.2886 57.0346 11.5754 56.8135L7.41138 56.2764C5.76714 56.0644 4.78517 54.3655 5.41724 52.8594L7.03052 49.0156C7.69717 47.4267 7.09456 45.5954 5.61743 44.7012L2.03345 42.5312C0.623272 41.6773 0.419175 39.7322 1.61743 38.6084L4.66724 35.7471C5.92598 34.5665 6.13047 32.6501 5.14575 31.2344L2.76196 27.8076C1.82699 26.4634 2.43201 24.6012 3.99341 24.0557L7.95435 22.6729C9.58515 22.1031 10.5587 20.4365 10.2395 18.7441L9.46704 14.6523C9.1647 13.0493 10.4819 11.5881 12.136 11.7197L16.3215 12.0527C18.0433 12.1898 19.6144 11.0623 20.0168 9.38867L20.9905 5.33887C21.3726 3.7496 23.1786 2.94643 24.635 3.7334L28.3225 5.72559C29.8402 6.54552 31.7352 6.14796 32.7874 4.78418L35.3381 1.47656Z" stroke="#F3EFEC" stroke-opacity="0.2"/>
<path d="M30.3245 44.24C29.4178 44.24 28.5912 44.08 27.8445 43.76C27.0978 43.4267 26.4978 42.9267 26.0445 42.26C25.6045 41.58 25.3712 40.7267 25.3445 39.7H27.7045C27.7178 40.1667 27.8245 40.5933 28.0245 40.98C28.2378 41.3533 28.5378 41.6533 28.9245 41.88C29.3112 42.0933 29.7778 42.2 30.3245 42.2C30.8445 42.2 31.2845 42.1 31.6445 41.9C32.0178 41.7 32.2978 41.4267 32.4845 41.08C32.6712 40.7333 32.7645 40.3467 32.7645 39.92C32.7645 39.4 32.6378 38.9733 32.3845 38.64C32.1312 38.2933 31.7845 38.0333 31.3445 37.86C30.9045 37.6867 30.4045 37.6 29.8445 37.6H28.8045V35.62H29.8445C30.5778 35.62 31.1778 35.4533 31.6445 35.12C32.1112 34.7733 32.3445 34.2733 32.3445 33.62C32.3445 33.0733 32.1645 32.6333 31.8045 32.3C31.4578 31.9667 30.9578 31.8 30.3045 31.8C29.6245 31.8 29.0845 32 28.6845 32.4C28.2978 32.8 28.0845 33.2933 28.0445 33.88H25.6845C25.7245 33.04 25.9378 32.3133 26.3245 31.7C26.7245 31.0733 27.2645 30.5933 27.9445 30.26C28.6245 29.9267 29.4178 29.76 30.3245 29.76C31.2712 29.76 32.0712 29.9267 32.7245 30.26C33.3778 30.5933 33.8712 31.04 34.2045 31.6C34.5512 32.16 34.7245 32.7733 34.7245 33.44C34.7245 33.96 34.6245 34.4333 34.4245 34.86C34.2245 35.2867 33.9512 35.6467 33.6045 35.94C33.2712 36.22 32.8778 36.4267 32.4245 36.56C32.9445 36.6667 33.4045 36.8733 33.8045 37.18C34.2178 37.4867 34.5378 37.88 34.7645 38.36C35.0045 38.8267 35.1245 39.3733 35.1245 40C35.1245 40.76 34.9378 41.4667 34.5645 42.12C34.2045 42.76 33.6645 43.2733 32.9445 43.66C32.2378 44.0467 31.3645 44.24 30.3245 44.24ZM43.3372 44.24C42.0705 44.24 40.9838 43.94 40.0772 43.34C39.1705 42.7267 38.4705 41.88 37.9772 40.8C37.4972 39.7067 37.2572 38.44 37.2572 37C37.2572 35.56 37.4972 34.3 37.9772 33.22C38.4705 32.1267 39.1705 31.28 40.0772 30.68C40.9838 30.0667 42.0705 29.76 43.3372 29.76C44.5905 29.76 45.6638 30.0667 46.5572 30.68C47.4638 31.28 48.1572 32.1267 48.6372 33.22C49.1305 34.3 49.3772 35.56 49.3772 37C49.3772 38.44 49.1305 39.7067 48.6372 40.8C48.1572 41.88 47.4638 42.7267 46.5572 43.34C45.6638 43.94 44.5905 44.24 43.3372 44.24ZM43.3172 42.08C44.0238 42.08 44.6505 41.88 45.1972 41.48C45.7438 41.0667 46.1638 40.48 46.4572 39.72C46.7638 38.96 46.9172 38.0533 46.9172 37C46.9172 35.9467 46.7638 35.04 46.4572 34.28C46.1638 33.52 45.7438 32.94 45.1972 32.54C44.6505 32.1267 44.0238 31.92 43.3172 31.92C42.6105 31.92 41.9838 32.1267 41.4372 32.54C40.8905 32.94 40.4638 33.52 40.1572 34.28C39.8638 35.04 39.7172 35.9467 39.7172 37C39.7172 38.0533 39.8638 38.96 40.1572 39.72C40.4638 40.48 40.8905 41.0667 41.4372 41.48C41.9838 41.88 42.6105 42.08 43.3172 42.08Z" fill="#F3EFEC"/>
<mask id="path-4-inside-1_504_266" fill="white">
<path d="M18.7604 30.1978C18.54 30.6775 18.2373 31.0491 17.8522 31.3124C17.4694 31.5708 17.0385 31.7104 16.5595 31.731C16.0756 31.7493 15.572 31.6383 15.0486 31.3978C14.53 31.1596 14.1188 30.8474 13.8149 30.4613C13.5061 30.073 13.3271 29.6386 13.2779 29.1582C13.226 28.6707 13.3202 28.1652 13.5607 27.6418C13.8323 27.0505 14.2001 26.6267 14.6642 26.3704C15.1256 26.1069 15.635 26.0328 16.1925 26.1481L15.7417 27.1295C15.4563 27.0864 15.1943 27.1392 14.9558 27.2879C14.7173 27.4365 14.5201 27.6805 14.3643 28.0198C14.2062 28.3639 14.1455 28.694 14.1822 29.0102C14.2163 29.3193 14.3438 29.6038 14.5648 29.8638C14.7831 30.1167 15.0838 30.3311 15.4666 30.507C15.8495 30.6829 16.208 30.7713 16.5421 30.7722C16.8785 30.7682 17.1739 30.6809 17.4284 30.5102C17.678 30.3373 17.8763 30.0909 18.0232 29.7711C18.2414 29.2961 18.2729 28.8763 18.1177 28.5115C17.9624 28.1467 17.6816 27.8446 17.2751 27.605L16.6707 28.9208L16.0092 28.6169L17.0177 26.4215L19.802 27.7005L19.4346 28.5002L18.7033 28.2523C18.8169 28.4395 18.9009 28.6336 18.9552 28.8346C19.0048 29.0335 19.0154 29.2467 18.9871 29.4743C18.9562 29.6949 18.8807 29.936 18.7604 30.1978ZM20.7458 25.3365L18.3948 19.8568L19.1748 19.1215L24.5063 21.7915L23.767 22.4885L19.5472 20.3096L21.4734 24.6505L20.7458 25.3365ZM20.504 23.7504L20.1689 23.0218L22.1773 21.1286L22.8849 21.506L20.504 23.7504ZM26.4827 19.9571L24.3205 14.7914L26.1728 14.0161C26.5812 13.8452 26.948 13.7754 27.2734 13.8069C27.6017 13.8314 27.8792 13.935 28.1059 14.1176C28.3355 14.2932 28.5121 14.5286 28.6357 14.8238C28.751 15.0993 28.7941 15.3819 28.765 15.6716C28.736 15.9613 28.616 16.2341 28.4051 16.49C28.1942 16.746 27.8773 16.9625 27.4542 17.1396L26.5096 17.5349L27.3682 19.5865L26.4827 19.9571ZM29.1763 18.8297L27.137 17.0035L28.0964 16.6019L30.1873 18.4066L29.1763 18.8297ZM26.2347 16.8781L27.1424 16.4982C27.472 16.3602 27.6801 16.1806 27.7667 15.9594C27.8562 15.7311 27.8464 15.4866 27.7372 15.2259C27.6302 14.97 27.4685 14.7978 27.2521 14.7091C27.0337 14.6155 26.7572 14.6387 26.4227 14.7787L25.515 15.1587L26.2347 16.8781ZM32.4813 17.3279L34.3263 11.6577L35.3976 11.6191L37.646 17.1417L36.6306 17.1783L34.8943 12.758L33.4807 17.2918L32.4813 17.3279ZM33.3452 15.9759L33.5736 15.2071L36.3319 15.1077L36.6151 15.858L33.3452 15.9759ZM40.2963 17.0598L42.1565 11.7778L43.0619 12.0966L44.2602 16.8103L45.6049 12.9922L46.5104 13.3111L44.6502 18.5931L43.7447 18.2742L42.5438 13.5681L41.2018 17.3787L40.2963 17.0598ZM47.3861 19.5133L47.8564 18.9471L52.4789 17.514L50.4604 15.8374L50.9767 15.2158L53.8506 17.6031L53.3803 18.1692L48.7455 19.5921L50.8009 21.2994L50.2846 21.9209L47.3861 19.5133ZM52.6743 23.9709L57.2747 20.7777L57.8221 21.5663L53.2217 24.7595L52.6743 23.9709ZM55.0026 27.2683L60.9645 27.1691L61.3494 28.1696L56.8581 32.0917L56.4934 31.1434L60.1088 28.064L55.3617 28.2016L55.0026 27.2683ZM56.562 27.6455L57.3633 27.6116L58.3542 30.1876L57.7368 30.6994L56.562 27.6455Z"/>
</mask>
<path d="M18.7604 30.1978L17.8517 29.7803L18.7604 30.1978ZM17.8522 31.3124L18.4117 32.1412L18.4166 32.1379L17.8522 31.3124ZM16.5595 31.7309L16.5974 32.7302L16.6024 32.73L16.5595 31.7309ZM13.8149 30.4613L14.6007 29.8428L14.5976 29.839L13.8149 30.4613ZM13.2779 29.1582L14.2726 29.0561L14.2722 29.0523L13.2779 29.1582ZM14.6642 26.3704L15.1478 27.2458L15.16 27.2388L14.6642 26.3704ZM16.1925 26.1481L17.1012 26.5655L17.626 25.4232L16.3949 25.1688L16.1925 26.1481ZM15.7417 27.1295L15.5924 28.1183L16.3363 28.2305L16.6504 27.5469L15.7417 27.1295ZM14.9558 27.2879L15.4848 28.1365H15.4848L14.9558 27.2879ZM14.1822 29.0102L15.1762 28.9006L15.1755 28.8949L14.1822 29.0102ZM14.5648 29.8638L13.8028 30.5115L13.8079 30.5173L14.5648 29.8638ZM15.4666 30.507L15.0492 31.4157L15.4666 30.507ZM16.5421 30.7722L16.5394 31.7722L16.5466 31.7722L16.5539 31.7721L16.5421 30.7722ZM17.4284 30.5102L17.9854 31.3407L17.9916 31.3366L17.9978 31.3323L17.4284 30.5102ZM18.1177 28.5115L19.0378 28.1199L18.1177 28.5115ZM17.2751 27.605L17.7829 26.7435L16.8288 26.1812L16.3664 27.1876L17.2751 27.605ZM16.6707 28.9208L16.2532 29.8295L17.1619 30.247L17.5794 29.3383L16.6707 28.9208ZM16.0092 28.6169L15.1004 28.1995L14.683 29.1082L15.5917 29.5256L16.0092 28.6169ZM17.0177 26.4215L17.4351 25.5128L16.5264 25.0954L16.109 26.0041L17.0177 26.4215ZM19.802 27.7005L20.7107 28.118L21.1281 27.2093L20.2194 26.7918L19.802 27.7005ZM19.4346 28.5002L19.1136 29.4473L19.9671 29.7366L20.3433 28.9176L19.4346 28.5002ZM18.7033 28.2523L19.0244 27.3052L16.424 26.4237L17.8484 28.7711L18.7033 28.2523ZM18.9552 28.8346L19.9256 28.5929L19.9232 28.5832L19.9206 28.5736L18.9552 28.8346ZM18.9871 29.4743L19.9774 29.6131L19.9785 29.6053L19.9795 29.5976L18.9871 29.4743ZM18.7604 30.1978L17.8517 29.7803C17.6968 30.1176 17.5043 30.3389 17.2878 30.4869L17.8522 31.3124L18.4166 32.1379C18.9703 31.7593 19.3833 31.2375 19.6691 30.6152L18.7604 30.1978ZM17.8522 31.3124L17.2927 30.4836C17.069 30.6346 16.8182 30.7189 16.5165 30.7319L16.5595 31.7309L16.6024 32.73C17.2587 32.7018 17.8698 32.5071 18.4117 32.1412L17.8522 31.3124ZM16.5595 31.7309L16.5215 30.7317C16.2216 30.7431 15.8737 30.6764 15.466 30.4891L15.0486 31.3978L14.6311 32.3065C15.2703 32.6001 15.9297 32.7556 16.5974 32.7302L16.5595 31.7309ZM15.0486 31.3978L15.466 30.4891C15.0682 30.3064 14.7918 30.0857 14.6007 29.8428L13.8149 30.4613L13.0291 31.0798C13.4457 31.6092 13.9918 32.0128 14.6311 32.3065L15.0486 31.3978ZM13.8149 30.4613L14.5976 29.839C14.4044 29.596 14.3019 29.341 14.2726 29.0561L13.2779 29.1582L12.2831 29.2602C12.3524 29.9362 12.6079 30.55 13.0321 31.0837L13.8149 30.4613ZM13.2779 29.1582L14.2722 29.0523C14.2425 28.773 14.2908 28.448 14.4694 28.0592L13.5607 27.6418L12.652 27.2244C12.3497 27.8824 12.2094 28.5684 12.2835 29.264L13.2779 29.1582ZM13.5607 27.6418L14.4694 28.0592C14.6725 27.6171 14.9098 27.3771 15.1477 27.2457L14.6642 26.3704L14.1806 25.4951C13.4905 25.8763 12.9921 26.4839 12.652 27.2244L13.5607 27.6418ZM14.6642 26.3704L15.16 27.2388C15.3941 27.1051 15.6526 27.0576 15.9901 27.1274L16.1925 26.1481L16.3949 25.1688C15.6175 25.0081 14.8571 25.1087 14.1684 25.5019L14.6642 26.3704ZM16.1925 26.1481L15.2838 25.7306L14.833 26.712L15.7417 27.1295L16.6504 27.5469L17.1012 26.5655L16.1925 26.1481ZM15.7417 27.1295L15.8909 26.1407C15.3769 26.0631 14.8733 26.1609 14.4268 26.4392L14.9558 27.2879L15.4848 28.1365C15.5152 28.1175 15.5356 28.1097 15.5924 28.1183L15.7417 27.1295ZM14.9558 27.2879L14.4268 26.4392C13.9759 26.7203 13.6668 27.1425 13.4556 27.6023L14.3643 28.0198L15.273 28.4372C15.3734 28.2185 15.4587 28.1528 15.4848 28.1365L14.9558 27.2879ZM14.3643 28.0198L13.4556 27.6023C13.2356 28.081 13.1273 28.5954 13.1889 29.1255L14.1822 29.0102L15.1755 28.8949C15.1637 28.7926 15.1767 28.6467 15.273 28.4372L14.3643 28.0198ZM14.1822 29.0102L13.1882 29.1197C13.2463 29.6466 13.4656 30.1147 13.8028 30.5115L14.5648 29.8638L15.3267 29.2162C15.222 29.0929 15.1862 28.992 15.1762 28.9006L14.1822 29.0102ZM14.5648 29.8638L13.8079 30.5173C14.1409 30.903 14.5691 31.1952 15.0492 31.4157L15.4666 30.507L15.8841 29.5983C15.5984 29.4671 15.4254 29.3304 15.3217 29.2103L14.5648 29.8638ZM15.4666 30.507L15.0492 31.4157C15.5293 31.6363 16.0299 31.7708 16.5394 31.7722L16.5421 30.7722L16.5448 29.7722C16.3861 29.7718 16.1697 29.7295 15.8841 29.5983L15.4666 30.507ZM16.5421 30.7722L16.5539 31.7721C17.0648 31.7661 17.5538 31.6302 17.9854 31.3407L17.4284 30.5102L16.8714 29.6797C16.794 29.7316 16.6921 29.7703 16.5304 29.7722L16.5421 30.7722ZM17.4284 30.5102L17.9978 31.3323C18.4168 31.042 18.7223 30.6449 18.9319 30.1885L18.0232 29.7711L17.1145 29.3536C17.0303 29.5369 16.9392 29.6326 16.859 29.6882L17.4284 30.5102ZM18.0232 29.7711L18.9319 30.1885C19.2283 29.5434 19.3356 28.8197 19.0378 28.1199L18.1177 28.5115L17.1975 28.9031C17.2102 28.9328 17.2546 29.0488 17.1145 29.3536L18.0232 29.7711ZM18.1177 28.5115L19.0378 28.1199C18.7839 27.5232 18.3375 27.0703 17.7829 26.7435L17.2751 27.605L16.7674 28.4665C17.0257 28.6188 17.141 28.7703 17.1975 28.9031L18.1177 28.5115ZM17.2751 27.605L16.3664 27.1876L15.762 28.5034L16.6707 28.9208L17.5794 29.3383L18.1838 28.0225L17.2751 27.605ZM16.6707 28.9208L17.0881 28.0121L16.4266 27.7082L16.0092 28.6169L15.5917 29.5256L16.2532 29.8295L16.6707 28.9208ZM16.0092 28.6169L16.9179 29.0344L17.9264 26.8389L17.0177 26.4215L16.109 26.0041L15.1004 28.1995L16.0092 28.6169ZM17.0177 26.4215L16.6003 27.3302L19.3845 28.6092L19.802 27.7005L20.2194 26.7918L17.4351 25.5128L17.0177 26.4215ZM19.802 27.7005L18.8933 27.2831L18.5259 28.0828L19.4346 28.5002L20.3433 28.9176L20.7107 28.118L19.802 27.7005ZM19.4346 28.5002L19.7557 27.5531L19.0244 27.3052L18.7033 28.2523L18.3823 29.1994L19.1136 29.4473L19.4346 28.5002ZM18.7033 28.2523L17.8484 28.7711C17.9158 28.8821 17.9613 28.9898 17.9899 29.0957L18.9552 28.8346L19.9206 28.5736C19.8405 28.2773 19.718 27.9969 19.5582 27.7335L18.7033 28.2523ZM18.9552 28.8346L17.9849 29.0763C18.0014 29.1425 18.0097 29.2309 17.9947 29.3511L18.9871 29.4743L19.9795 29.5976C20.0211 29.2625 20.0082 28.9244 19.9256 28.5929L18.9552 28.8346ZM18.9871 29.4743L17.9968 29.3356C17.9827 29.4364 17.9425 29.5826 17.8517 29.7803L18.7604 30.1978L19.6691 30.6152C19.8188 30.2895 19.9298 29.9534 19.9774 29.6131L18.9871 29.4743ZM20.7458 25.3365L19.8268 25.7308L20.3908 27.0454L21.4317 26.0641L20.7458 25.3365ZM18.3948 19.8568L17.7088 19.1291L17.2001 19.6086L17.4758 20.2511L18.3948 19.8568ZM19.1748 19.1215L19.6226 18.2273L18.9975 17.9143L18.4889 18.3938L19.1748 19.1215ZM24.5063 21.7915L25.1922 22.5192L26.2332 21.538L24.9541 20.8974L24.5063 21.7915ZM23.767 22.4885L23.3082 23.377L23.9376 23.702L24.4529 23.2161L23.767 22.4885ZM19.5472 20.3096L20.006 19.421L17.4802 18.1169L18.6332 20.7152L19.5472 20.3096ZM21.4734 24.6505L22.1594 25.3782L22.6748 24.8924L22.3875 24.2449L21.4734 24.6505ZM20.504 23.7504L19.5954 24.1682L20.177 25.4329L21.1899 24.4781L20.504 23.7504ZM20.1689 23.0218L19.483 22.2941L18.9603 22.7869L19.2604 23.4395L20.1689 23.0218ZM22.1773 21.1286L22.6479 20.2462L22.014 19.9082L21.4913 20.4009L22.1773 21.1286ZM22.8849 21.506L23.5708 22.2337L24.5837 21.2788L23.3555 20.6237L22.8849 21.506ZM20.7458 25.3365L21.6648 24.9422L19.3137 19.4625L18.3948 19.8568L17.4758 20.2511L19.8268 25.7308L20.7458 25.3365ZM18.3948 19.8568L19.0807 20.5844L19.8607 19.8491L19.1748 19.1215L18.4889 18.3938L17.7088 19.1291L18.3948 19.8568ZM19.1748 19.1215L18.727 20.0156L24.0585 22.6857L24.5063 21.7915L24.9541 20.8974L19.6226 18.2273L19.1748 19.1215ZM24.5063 21.7915L23.8204 21.0639L23.0811 21.7608L23.767 22.4885L24.4529 23.2161L25.1922 22.5192L24.5063 21.7915ZM23.767 22.4885L24.2258 21.5999L20.006 19.421L19.5472 20.3096L19.0884 21.1981L23.3082 23.377L23.767 22.4885ZM19.5472 20.3096L18.6332 20.7152L20.5594 25.0561L21.4734 24.6505L22.3875 24.2449L20.4613 19.904L19.5472 20.3096ZM21.4734 24.6505L20.7875 23.9229L20.0598 24.6088L20.7458 25.3365L21.4317 26.0641L22.1594 25.3782L21.4734 24.6505ZM20.504 23.7504L21.4125 23.3326L21.0775 22.604L20.1689 23.0218L19.2604 23.4395L19.5954 24.1682L20.504 23.7504ZM20.1689 23.0218L20.8549 23.7494L22.8632 21.8562L22.1773 21.1286L21.4913 20.4009L19.483 22.2941L20.1689 23.0218ZM22.1773 21.1286L21.7066 22.0109L22.4142 22.3883L22.8849 21.506L23.3555 20.6237L22.6479 20.2462L22.1773 21.1286ZM22.8849 21.506L22.1989 20.7783L19.818 23.0227L20.504 23.7504L21.1899 24.4781L23.5708 22.2337L22.8849 21.506ZM26.4827 19.9571L25.5602 20.3432L25.9463 21.2657L26.8688 20.8796L26.4827 19.9571ZM24.3205 14.7914L23.9344 13.8689L23.012 14.255L23.3981 15.1774L24.3205 14.7914ZM26.1728 14.0161L25.7867 13.0936L26.1728 14.0161ZM27.2734 13.8069L27.1771 14.8023L27.1881 14.8033L27.199 14.8041L27.2734 13.8069ZM28.1059 14.1176L27.4787 14.8964L27.4884 14.9043L27.4984 14.9119L28.1059 14.1176ZM28.765 15.6716L27.77 15.5717V15.5717L28.765 15.6716ZM28.4051 16.49L27.6333 15.8541L28.4051 16.49ZM27.4542 17.1396L27.0681 16.2171L27.4542 17.1396ZM26.5096 17.5349L26.1235 16.6125L25.201 16.9986L25.5871 17.921L26.5096 17.5349ZM27.3682 19.5865L27.7543 20.5089L28.6768 20.1228L28.2907 19.2004L27.3682 19.5865ZM29.1763 18.8297L28.5091 19.5747L28.9797 19.9961L29.5624 19.7522L29.1763 18.8297ZM27.137 17.0035L26.7509 16.081L25.2906 16.6922L26.4699 17.7484L27.137 17.0035ZM28.0964 16.6019L28.7498 15.8449L28.2812 15.4405L27.7103 15.6795L28.0964 16.6019ZM30.1873 18.4066L30.5734 19.329L32.0638 18.7052L30.8407 17.6495L30.1873 18.4066ZM26.2347 16.8781L25.3122 17.2642L25.6983 18.1867L26.6208 17.8006L26.2347 16.8781ZM27.1424 16.4982L26.7563 15.5758L27.1424 16.4982ZM27.7667 15.9594L26.8357 15.5944L26.8355 15.5948L27.7667 15.9594ZM27.7372 15.2259L26.8148 15.612L27.7372 15.2259ZM27.2521 14.7091L26.8582 15.6283L26.8655 15.6314L26.8728 15.6344L27.2521 14.7091ZM25.515 15.1587L25.1289 14.2362L24.2064 14.6223L24.5925 15.5448L25.515 15.1587ZM26.4827 19.9571L27.4051 19.571L25.243 14.4053L24.3205 14.7914L23.3981 15.1774L25.5602 20.3432L26.4827 19.9571ZM24.3205 14.7914L24.7066 15.7138L26.5589 14.9385L26.1728 14.0161L25.7867 13.0936L23.9344 13.8689L24.3205 14.7914ZM26.1728 14.0161L26.5589 14.9385C26.8665 14.8098 27.0639 14.7913 27.1771 14.8023L27.2734 13.8069L27.3697 12.8116C26.8321 12.7596 26.2958 12.8805 25.7867 13.0936L26.1728 14.0161ZM27.2734 13.8069L27.199 14.8041C27.3525 14.8156 27.4299 14.8571 27.4787 14.8964L28.1059 14.1176L28.7331 13.3387C28.3284 13.0128 27.8509 12.8472 27.3479 12.8097L27.2734 13.8069ZM28.1059 14.1176L27.4984 14.9119C27.5747 14.9702 27.6498 15.0583 27.7132 15.2099L28.6357 14.8238L29.5581 14.4377C29.3745 13.999 29.0964 13.6162 28.7135 13.3233L28.1059 14.1176ZM28.6357 14.8238L27.7132 15.2099C27.766 15.3361 27.7821 15.452 27.77 15.5717L28.765 15.6716L29.76 15.7715C29.8062 15.3119 29.7359 14.8625 29.5581 14.4377L28.6357 14.8238ZM28.765 15.6716L27.77 15.5717C27.7634 15.6382 27.7365 15.729 27.6333 15.8541L28.4051 16.49L29.1769 17.1259C29.4955 16.7392 29.7086 16.2844 29.76 15.7715L28.765 15.6716ZM28.4051 16.49L27.6333 15.8541C27.5578 15.9459 27.3956 16.08 27.0681 16.2171L27.4542 17.1396L27.8403 18.062C28.3589 17.8449 28.8307 17.5461 29.1769 17.1259L28.4051 16.49ZM27.4542 17.1396L27.0681 16.2171L26.1235 16.6125L26.5096 17.5349L26.8957 18.4574L27.8403 18.062L27.4542 17.1396ZM26.5096 17.5349L25.5871 17.921L26.4458 19.9726L27.3682 19.5865L28.2907 19.2004L27.432 17.1488L26.5096 17.5349ZM27.3682 19.5865L26.9821 18.664L26.0966 19.0347L26.4827 19.9571L26.8688 20.8796L27.7543 20.5089L27.3682 19.5865ZM29.1763 18.8297L29.8434 18.0848L27.8042 16.2585L27.137 17.0035L26.4699 17.7484L28.5091 19.5747L29.1763 18.8297ZM27.137 17.0035L27.5231 17.9259L28.4825 17.5244L28.0964 16.6019L27.7103 15.6795L26.7509 16.081L27.137 17.0035ZM28.0964 16.6019L27.443 17.3589L29.5339 19.1636L30.1873 18.4066L30.8407 17.6495L28.7498 15.8449L28.0964 16.6019ZM30.1873 18.4066L29.8012 17.4841L28.7902 17.9073L29.1763 18.8297L29.5624 19.7522L30.5734 19.329L30.1873 18.4066ZM26.2347 16.8781L26.6208 17.8006L27.5285 17.4207L27.1424 16.4982L26.7563 15.5758L25.8486 15.9557L26.2347 16.8781ZM27.1424 16.4982L27.5285 17.4207C27.983 17.2304 28.4723 16.9003 28.6979 16.3239L27.7667 15.9594L26.8355 15.5948C26.8471 15.5653 26.861 15.5419 26.8733 15.5251C26.8853 15.5089 26.8934 15.502 26.8923 15.503C26.891 15.5041 26.881 15.5125 26.8583 15.5259C26.8356 15.5393 26.8024 15.5564 26.7563 15.5758L27.1424 16.4982ZM27.7667 15.9594L28.6977 16.3244C28.8967 15.817 28.8526 15.3007 28.6597 14.8398L27.7372 15.2259L26.8148 15.612C26.8304 15.6493 26.8278 15.6586 26.8273 15.645C26.827 15.6385 26.8274 15.6294 26.8291 15.619C26.8309 15.6085 26.8335 15.6001 26.8357 15.5944L27.7667 15.9594ZM27.7372 15.2259L28.6597 14.8398C28.4707 14.3882 28.1382 13.9916 27.6314 13.7838L27.2521 14.7091L26.8728 15.6344C26.8617 15.6298 26.849 15.6232 26.8361 15.6143C26.8232 15.6054 26.8134 15.5965 26.8066 15.5893C26.7928 15.5746 26.7995 15.5755 26.8148 15.612L27.7372 15.2259ZM27.2521 14.7091L27.646 13.79C27.074 13.5448 26.4913 13.666 26.0366 13.8563L26.4227 14.7787L26.8088 15.7012C26.8567 15.6812 26.8938 15.669 26.9208 15.6617C26.9478 15.6545 26.9619 15.653 26.9646 15.6528C26.967 15.6526 26.9567 15.6537 26.9366 15.6508C26.9159 15.6479 26.8886 15.6413 26.8582 15.6283L27.2521 14.7091ZM26.4227 14.7787L26.0366 13.8563L25.1289 14.2362L25.515 15.1587L25.9011 16.0811L26.8088 15.7012L26.4227 14.7787ZM25.515 15.1587L24.5925 15.5448L25.3122 17.2642L26.2347 16.8781L27.1571 16.492L26.4374 14.7726L25.515 15.1587ZM32.4813 17.3279L31.5304 17.0185L31.0878 18.3787L32.5174 18.3272L32.4813 17.3279ZM34.3263 11.6577L34.2902 10.6584L33.5916 10.6836L33.3753 11.3483L34.3263 11.6577ZM35.3976 11.6191L36.3237 11.242L36.0601 10.5946L35.3615 10.6197L35.3976 11.6191ZM37.646 17.1417L37.682 18.141L39.1116 18.0895L38.5722 16.7646L37.646 17.1417ZM36.6306 17.1783L35.6999 17.5439L35.9588 18.2032L36.6667 18.1776L36.6306 17.1783ZM34.8943 12.758L35.825 12.3923L34.7857 9.74652L33.9396 12.4603L34.8943 12.758ZM33.4807 17.2918L33.5167 18.2912L34.2245 18.2657L34.4354 17.5895L33.4807 17.2918ZM33.3452 15.9759L32.3866 15.691L31.9901 17.0254L33.3812 16.9752L33.3452 15.9759ZM33.5736 15.2071L33.5376 14.2078L32.8197 14.2337L32.6151 14.9223L33.5736 15.2071ZM36.3319 15.1077L37.2674 14.7546L37.0137 14.0825L36.2958 14.1084L36.3319 15.1077ZM36.6151 15.858L36.6511 16.8573L38.0422 16.8072L37.5506 15.5048L36.6151 15.858ZM32.4813 17.3279L33.4323 17.6373L35.2772 11.9671L34.3263 11.6577L33.3753 11.3483L31.5304 17.0185L32.4813 17.3279ZM34.3263 11.6577L34.3623 12.6571L35.4336 12.6184L35.3976 11.6191L35.3615 10.6197L34.2902 10.6584L34.3263 11.6577ZM35.3976 11.6191L34.4714 11.9962L36.7198 17.5188L37.646 17.1417L38.5722 16.7646L36.3237 11.242L35.3976 11.6191ZM37.646 17.1417L37.61 16.1423L36.5946 16.1789L36.6306 17.1783L36.6667 18.1776L37.682 18.141L37.646 17.1417ZM36.6306 17.1783L37.5614 16.8127L35.825 12.3923L34.8943 12.758L33.9635 13.1236L35.6999 17.5439L36.6306 17.1783ZM34.8943 12.758L33.9396 12.4603L32.526 16.9942L33.4807 17.2918L34.4354 17.5895L35.8489 13.0556L34.8943 12.758ZM33.4807 17.2918L33.4447 16.2925L32.4453 16.3285L32.4813 17.3279L32.5174 18.3272L33.5167 18.2912L33.4807 17.2918ZM33.3452 15.9759L34.3038 16.2607L34.5322 15.492L33.5736 15.2071L32.6151 14.9223L32.3866 15.691L33.3452 15.9759ZM33.5736 15.2071L33.6097 16.2065L36.3679 16.1071L36.3319 15.1077L36.2958 14.1084L33.5376 14.2078L33.5736 15.2071ZM36.3319 15.1077L35.3963 15.4609L35.6795 16.2111L36.6151 15.858L37.5506 15.5048L37.2674 14.7546L36.3319 15.1077ZM36.6151 15.858L36.579 14.8586L33.3092 14.9765L33.3452 15.9759L33.3812 16.9752L36.6511 16.8573L36.6151 15.858ZM40.2963 17.0598L39.3531 16.7276L39.0209 17.6708L39.9641 18.003L40.2963 17.0598ZM42.1565 11.7778L42.4886 10.8345L41.5454 10.5024L41.2132 11.4456L42.1565 11.7778ZM43.0619 12.0966L44.0311 11.8503L43.8992 11.3313L43.3941 11.1534L43.0619 12.0966ZM44.2602 16.8103L43.2911 17.0567L44.1055 20.2603L45.2035 17.1425L44.2602 16.8103ZM45.6049 12.9922L45.937 12.049L44.9938 11.7168L44.6616 12.66L45.6049 12.9922ZM46.5104 13.3111L47.4536 13.6432L47.7857 12.7L46.8425 12.3678L46.5104 13.3111ZM44.6502 18.5931L44.318 19.5363L45.2613 19.8685L45.5934 18.9253L44.6502 18.5931ZM43.7447 18.2742L42.7758 18.5215L42.908 19.0398L43.4126 19.2174L43.7447 18.2742ZM42.5438 13.5681L43.5127 13.3208L42.6967 10.1232L41.6005 13.2359L42.5438 13.5681ZM41.2018 17.3787L40.8696 18.3219L41.8129 18.6541L42.145 17.7108L41.2018 17.3787ZM40.2963 17.0598L41.2395 17.392L43.0997 12.1099L42.1565 11.7778L41.2132 11.4456L39.3531 16.7276L40.2963 17.0598ZM42.1565 11.7778L41.8243 12.721L42.7298 13.0399L43.0619 12.0966L43.3941 11.1534L42.4886 10.8345L42.1565 11.7778ZM43.0619 12.0966L42.0928 12.343L43.2911 17.0567L44.2602 16.8103L45.2294 16.5639L44.0311 11.8503L43.0619 12.0966ZM44.2602 16.8103L45.2035 17.1425L46.5481 13.3243L45.6049 12.9922L44.6616 12.66L43.317 16.4782L44.2602 16.8103ZM45.6049 12.9922L45.2727 13.9354L46.1782 14.2543L46.5104 13.3111L46.8425 12.3678L45.937 12.049L45.6049 12.9922ZM46.5104 13.3111L45.5671 12.9789L43.707 18.2609L44.6502 18.5931L45.5934 18.9253L47.4536 13.6432L46.5104 13.3111ZM44.6502 18.5931L44.9824 17.6499L44.0769 17.331L43.7447 18.2742L43.4126 19.2174L44.318 19.5363L44.6502 18.5931ZM43.7447 18.2742L44.7137 18.0269L43.5127 13.3208L42.5438 13.5681L41.5748 13.8153L42.7758 18.5215L43.7447 18.2742ZM42.5438 13.5681L41.6005 13.2359L40.2586 17.0465L41.2018 17.3787L42.145 17.7108L43.487 13.9002L42.5438 13.5681ZM41.2018 17.3787L41.534 16.4355L40.6285 16.1166L40.2963 17.0598L39.9641 18.003L40.8696 18.3219L41.2018 17.3787ZM47.3862 19.5133L46.6169 18.8743L45.9779 19.6435L46.7472 20.2825L47.3862 19.5133ZM47.8564 18.9471L47.5603 17.992L47.2768 18.0799L47.0872 18.3082L47.8564 18.9471ZM52.4789 17.514L52.775 18.4692L54.5364 17.9231L53.1179 16.7448L52.4789 17.514ZM50.4604 15.8374L49.6912 15.1984L49.0522 15.9676L49.8215 16.6066L50.4604 15.8374ZM50.9767 15.2158L51.6157 14.4466L50.8465 13.8076L50.2075 14.5769L50.9767 15.2158ZM53.8506 17.6031L54.6198 18.242L55.2588 17.4728L54.4895 16.8338L53.8506 17.6031ZM53.3803 18.1692L53.6737 19.1252L53.9589 19.0376L54.1495 18.8082L53.3803 18.1692ZM48.7455 19.5921L48.452 18.6361L46.6833 19.1791L48.1065 20.3613L48.7455 19.5921ZM50.8009 21.2994L51.5701 21.9384L52.2091 21.1692L51.4399 20.5302L50.8009 21.2994ZM50.2846 21.9209L49.6456 22.6902L50.4148 23.3291L51.0538 22.5599L50.2846 21.9209ZM47.3862 19.5133L48.1554 20.1523L48.6257 19.5861L47.8564 18.9471L47.0872 18.3082L46.6169 18.8743L47.3862 19.5133ZM47.8564 18.9471L48.1526 19.9023L52.775 18.4692L52.4789 17.514L52.1828 16.5589L47.5603 17.992L47.8564 18.9471ZM52.4789 17.514L53.1179 16.7448L51.0994 15.0681L50.4604 15.8374L49.8215 16.6066L51.8399 18.2833L52.4789 17.514ZM50.4604 15.8374L51.2297 16.4763L51.746 15.8548L50.9767 15.2158L50.2075 14.5769L49.6912 15.1984L50.4604 15.8374ZM50.9767 15.2158L50.3377 15.9851L53.2116 18.3723L53.8506 17.6031L54.4895 16.8338L51.6157 14.4466L50.9767 15.2158ZM53.8506 17.6031L53.0813 16.9641L52.611 17.5302L53.3803 18.1692L54.1495 18.8082L54.6198 18.242L53.8506 17.6031ZM53.3803 18.1692L53.0868 17.2132L48.452 18.6361L48.7455 19.5921L49.039 20.548L53.6737 19.1252L53.3803 18.1692ZM48.7455 19.5921L48.1065 20.3613L50.1619 22.0686L50.8009 21.2994L51.4399 20.5302L49.3845 18.8228L48.7455 19.5921ZM50.8009 21.2994L50.0317 20.6604L49.5154 21.282L50.2846 21.9209L51.0538 22.5599L51.5701 21.9384L50.8009 21.2994ZM50.2846 21.9209L50.9236 21.1517L48.0251 18.7441L47.3862 19.5133L46.7472 20.2825L49.6456 22.6902L50.2846 21.9209ZM52.6743 23.9709L52.1041 23.1494L51.2826 23.7196L51.8528 24.5411L52.6743 23.9709ZM57.2747 20.7777L58.0962 20.2074L57.5259 19.3859L56.7044 19.9562L57.2747 20.7777ZM57.8221 21.5663L58.3923 22.3878L59.2138 21.8176L58.6436 20.9961L57.8221 21.5663ZM53.2217 24.7595L52.4002 25.3297L52.9704 26.1512L53.7919 25.581L53.2217 24.7595ZM52.6743 23.9709L53.2445 24.7923L57.8449 21.5992L57.2747 20.7777L56.7044 19.9562L52.1041 23.1494L52.6743 23.9709ZM57.2747 20.7777L56.4532 21.3479L57.0006 22.1365L57.8221 21.5663L58.6436 20.9961L58.0962 20.2074L57.2747 20.7777ZM57.8221 21.5663L57.2519 20.7448L52.6515 23.938L53.2217 24.7595L53.7919 25.581L58.3923 22.3878L57.8221 21.5663ZM53.2217 24.7595L54.0432 24.1893L53.4958 23.4006L52.6743 23.9709L51.8528 24.5411L52.4002 25.3297L53.2217 24.7595ZM55.0026 27.2683L54.986 26.2684L53.5557 26.2922L54.0693 27.6273L55.0026 27.2683ZM60.9645 27.1691L61.8979 26.81L61.6469 26.1576L60.9479 26.1692L60.9645 27.1691ZM61.3494 28.1696L62.0072 28.9228L62.5337 28.463L62.2827 27.8106L61.3494 28.1696ZM56.8581 32.0917L55.9248 32.4507L56.4384 33.7858L57.5159 32.8449L56.8581 32.0917ZM56.4934 31.1434L55.8449 30.3821L55.3057 30.8414L55.56 31.5025L56.4934 31.1434ZM60.1088 28.064L60.7572 28.8253L62.9213 26.9821L60.0798 27.0644L60.1088 28.064ZM55.3617 28.2016L54.4283 28.5606L54.6826 29.2217L55.3906 29.2012L55.3617 28.2016ZM56.562 27.6455L56.5197 26.6464L55.1289 26.7053L55.6287 28.0046L56.562 27.6455ZM57.3633 27.6116L58.2966 27.2525L58.0387 26.5821L57.321 26.6125L57.3633 27.6116ZM58.3542 30.1875L58.9924 30.9574L59.5455 30.499L59.2876 29.8285L58.3542 30.1875ZM57.7368 30.6994L56.8035 31.0584L57.3033 32.3576L58.375 31.4692L57.7368 30.6994ZM55.0026 27.2683L55.0192 28.2681L60.9812 28.1689L60.9645 27.1691L60.9479 26.1692L54.986 26.2684L55.0026 27.2683ZM60.9645 27.1691L60.0312 27.5281L60.4161 28.5286L61.3494 28.1696L62.2827 27.8106L61.8979 26.81L60.9645 27.1691ZM61.3494 28.1696L60.6917 27.4164L56.2004 31.3384L56.8581 32.0917L57.5159 32.8449L62.0072 28.9228L61.3494 28.1696ZM56.8581 32.0917L57.7915 31.7326L57.4267 30.7844L56.4934 31.1434L55.56 31.5025L55.9248 32.4507L56.8581 32.0917ZM56.4934 31.1434L57.1418 31.9047L60.7572 28.8253L60.1088 28.064L59.4604 27.3027L55.8449 30.3821L56.4934 31.1434ZM60.1088 28.064L60.0798 27.0644L55.3327 27.202L55.3617 28.2016L55.3906 29.2012L60.1378 29.0636L60.1088 28.064ZM55.3617 28.2016L56.295 27.8425L55.9359 26.9092L55.0026 27.2683L54.0693 27.6273L54.4283 28.5606L55.3617 28.2016ZM56.562 27.6455L56.6044 28.6446L57.4056 28.6107L57.3633 27.6116L57.321 26.6125L56.5197 26.6464L56.562 27.6455ZM57.3633 27.6116L56.43 27.9706L57.4209 30.5466L58.3542 30.1875L59.2876 29.8285L58.2966 27.2525L57.3633 27.6116ZM58.3542 30.1875L57.716 29.4177L57.0986 29.9295L57.7368 30.6994L58.375 31.4692L58.9924 30.9574L58.3542 30.1875ZM57.7368 30.6994L58.6701 30.3403L57.4954 27.2865L56.562 27.6455L55.6287 28.0046L56.8035 31.0584L57.7368 30.6994Z" fill="white" mask="url(#path-4-inside-1_504_266)"/>
<path d="M19.4085 55.1034C19.0103 54.7567 18.739 54.3616 18.5948 53.918C18.4547 53.4778 18.4422 53.0251 18.5573 52.5597C18.676 52.0902 18.9244 51.6383 19.3025 51.2038C19.6772 50.7733 20.0925 50.4666 20.5486 50.2838C21.0082 50.0969 21.4754 50.0475 21.9502 50.1356C22.4326 50.2231 22.8911 50.4559 23.3256 50.834C23.8164 51.2612 24.1194 51.7335 24.2347 52.251C24.3575 52.7679 24.2851 53.2776 24.0176 53.78L23.2029 53.071C23.3246 52.8093 23.3477 52.5431 23.2722 52.2723C23.1967 52.0016 23.0182 51.7437 22.7366 51.4986C22.4509 51.25 22.1513 51.0988 21.8375 51.045C21.5313 50.9906 21.2224 51.0328 20.9107 51.1716C20.6065 51.3099 20.3161 51.538 20.0395 51.8558C19.7629 52.1736 19.5772 52.4927 19.4822 52.8131C19.3912 53.1369 19.3918 53.445 19.4839 53.7372C19.5795 54.0255 19.7601 54.2851 20.0256 54.5162C20.4199 54.8593 20.8139 55.0078 21.2076 54.9616C21.6013 54.9154 21.9703 54.731 22.3146 54.4085L21.2224 53.4579L21.7003 52.9087L23.5228 54.4948L21.5113 56.8061L20.8475 56.2284L21.2913 55.5965C21.0797 55.6528 20.8698 55.6787 20.6616 55.6742C20.4569 55.6657 20.2493 55.6159 20.0388 55.5246C19.8359 55.4329 19.6258 55.2924 19.4085 55.1034ZM25.3038 59.7195L27.571 54.599L28.4488 54.9877L26.1816 60.1082L25.3038 59.7195ZM33.379 62.1693C32.8429 62.1168 32.3795 61.9508 31.9889 61.6714C31.6041 61.3872 31.316 61.0187 31.1245 60.5659C30.9336 60.1078 30.8662 59.5921 30.9223 59.0189C30.978 58.4509 31.1436 57.9634 31.4192 57.5563C31.6954 57.1439 32.0498 56.8357 32.4824 56.6315C32.9204 56.4279 33.4074 56.3524 33.9435 56.4049C34.4902 56.4584 34.9586 56.6275 35.3487 56.9122C35.7388 57.1969 36.0267 57.5681 36.2123 58.0257C36.3985 58.478 36.4637 58.9881 36.4081 59.5561C36.352 60.1293 36.1885 60.6224 35.9176 61.0353C35.6473 61.4429 35.2931 61.7485 34.8552 61.9521C34.4178 62.1504 33.9257 62.2228 33.379 62.1693ZM33.4712 61.3102C33.8268 61.345 34.1451 61.2958 34.4261 61.1625C34.7076 61.024 34.9348 60.8104 35.1078 60.5219C35.2807 60.2334 35.3877 59.8795 35.4288 59.4602C35.4698 59.0408 35.4335 58.6729 35.3199 58.3563C35.2062 58.0397 35.0244 57.7888 34.7746 57.6036C34.5253 57.413 34.2229 57.3003 33.8672 57.2655C33.5116 57.2307 33.193 57.2826 32.9115 57.4211C32.6305 57.5544 32.4009 57.765 32.2227 58.053C32.0497 58.3415 31.9427 58.6954 31.9017 59.1148C31.8606 59.5341 31.8969 59.902 32.0106 60.2186C32.1296 60.5357 32.3137 60.7896 32.563 60.9801C32.8128 61.1653 33.1155 61.2753 33.4712 61.3102ZM41.0195 62.4138L39.4767 57.0305L41.407 56.4773C41.8325 56.3553 42.205 56.329 42.5245 56.3984C42.8476 56.4611 43.1111 56.5964 43.3149 56.8043C43.5224 57.0056 43.6702 57.2601 43.7584 57.5677C43.8406 57.8548 43.8504 58.1405 43.7876 58.4248C43.7249 58.7091 43.5738 58.966 43.3344 59.1955C43.095 59.425 42.7549 59.6029 42.314 59.7293L41.3296 60.0114L41.9423 62.1493L41.0195 62.4138ZM43.8265 61.6093L42.0149 59.557L43.0147 59.2705L44.8801 61.3074L43.8265 61.6093ZM41.1334 59.3269L42.0794 59.0558C42.4229 58.9574 42.6506 58.8034 42.7625 58.5938C42.8781 58.3775 42.8969 58.1336 42.8191 57.8619C42.7426 57.5953 42.6022 57.4053 42.3977 57.2919C42.1918 57.1734 41.9145 57.1641 41.5658 57.264L40.6199 57.5351L41.1334 59.3269ZM49.4424 59.6037L46.0984 55.1117L46.8685 54.5385L51.4482 56.1756L49.031 52.9286L49.8011 52.3553L53.1451 56.8473L52.375 57.4205L47.8 55.7898L50.2125 59.0304L49.4424 59.6037ZM56.7918 53.8729L52.4968 50.2795L53.1128 49.5432L57.4078 53.1366L56.7918 53.8729Z" fill="white"/>
<defs>
<linearGradient id="paint0_linear_504_266" x1="37.3332" y1="-1.92845" x2="37.3332" y2="153.5" gradientUnits="userSpaceOnUse">
<stop offset="1" stop-color="#7E3207"/>
</linearGradient>
</defs>
</svg>
