<svg width="400" height="47" viewBox="0 0 400 47" fill="none" xmlns="http://www.w3.org/2000/svg">
<g clip-path="url(#clip0_502_248)">
<path d="M51.8769 45.7767H66.47L74.2936 0.998765H59.7006L56.8152 17.0345H44.1642L47.0495 0.998765H32.4565L24.6328 45.7767H39.2259L42.1667 29.0197H54.8177L51.8769 45.7767ZM82.5612 0.943278L78.1222 25.8569C77.7338 27.799 77.5673 29.6855 77.5673 31.4611C77.5673 44.667 89.1086 46.6645 96.0445 46.6645C110.582 46.6645 116.852 41.8371 119.127 28.7977L124.01 0.887791H109.417L105.255 24.3033C103.924 31.6276 102.98 35.4562 97.5426 35.4562C93.9915 35.4562 92.2714 33.5696 92.2714 29.6855C92.2714 28.1874 92.4933 26.3563 92.9372 24.0813L97.1542 0.887791H82.5612V0.943278ZM201.137 45.7767H215.73L217.783 34.2354H224.663C237.37 34.2354 244.417 27.3551 244.417 14.815C244.417 5.99259 238.313 0.943278 227.604 0.943278H208.96L201.137 45.7767ZM223.886 23.1935H219.669L221.611 12.651H225.551C228.769 12.651 230.489 14.2601 230.489 17.2009C230.489 20.9186 227.992 23.1935 223.886 23.1935ZM272.77 0C256.901 0 247.413 10.2651 247.413 27.5215C247.413 39.5067 254.959 46.72 267.61 46.72C283.479 46.72 292.968 36.4549 292.968 19.1985C293.023 7.15781 285.477 0 272.77 0ZM268.498 35.1232C264.725 35.1232 262.505 32.4044 262.505 27.8544C262.505 26.1343 262.672 24.6362 263.005 22.9161C264.114 17.0345 266.001 11.6523 271.938 11.6523C275.711 11.6523 277.931 14.3711 277.931 18.921C277.931 20.6411 277.764 22.1393 277.431 23.8594C276.322 29.6855 274.435 35.1232 268.498 35.1232ZM343.738 45.7767H358.331L364.102 12.9839H375.088L377.197 0.998765H339.854L337.746 12.9839H349.398L343.738 45.7767ZM319.546 17.5339C314.94 16.0912 313.054 15.4809 313.054 13.3169C313.054 11.8742 313.997 10.1541 316.772 10.1541C318.825 10.1541 320.545 11.3193 321.21 13.0394L334.083 9.54375C332.585 3.21824 327.148 0 317.77 0C300.125 0 298.738 11.8187 298.738 15.4254C298.738 22.7496 302.622 27.2441 311.056 29.5745C313.276 30.1849 315.828 30.8507 315.828 33.2922C315.828 35.2342 314.386 36.4549 311.889 36.4549C309.614 36.4549 307.172 35.1232 306.34 32.7928L293.633 36.233C295.021 42.8914 301.291 46.6645 311.112 46.6645C318.603 46.6645 331.143 44.667 331.143 31.1282C331.198 24.3588 327.37 19.9198 319.546 17.5339Z" fill="#553B39"/>
<path d="M16.4764 45.778L24.3556 1H0.21875V45.778H16.4764ZM383.467 1L375.643 45.778H399.78V1H383.467Z" fill="#553B39"/>
<path d="M141.433 32.5729H153.696L155.693 21.309H143.431L144.818 12.986H161.963L164.072 0.945312H132.333L124.51 45.7788H139.103L141.433 32.5729ZM179.664 32.5729H191.982L193.979 21.309H181.717L183.104 12.986H200.249L202.358 0.945312H170.619L162.796 45.7788H177.389L179.664 32.5729Z" fill="#553B39"/>
</g>
<defs>
<clipPath id="clip0_502_248">
<rect width="400" height="46.72" fill="white"/>
</clipPath>
</defs>
</svg>
