<svg width="64" height="64" viewBox="0 0 64 64" fill="none" xmlns="http://www.w3.org/2000/svg">
<g clip-path="url(#clip0_502_252)">
<path d="M58.0019 34.2465C58.0215 30.5753 57.462 27.0121 56.2546 23.5667C54.5074 18.59 51.808 14.3005 47.4104 11.4244C42.0902 7.93972 36.5245 7.47837 30.9393 10.7275C27.2485 12.8771 25.0399 16.3618 23.6558 20.4158C22.0362 25.206 21.7908 30.1336 22.5761 35.1201C23.4988 40.9998 25.7368 46.2317 29.9479 50.4232C33.138 53.5839 36.9172 55.4489 41.3834 55.498C47.165 55.5667 51.5528 52.887 54.5957 47.871C57.1184 43.709 57.992 39.0857 58.0019 34.2465ZM63.9896 32.0477C63.9896 45.7508 53.3982 56.5876 39.9994 56.5876C26.6988 56.5876 15.9896 46.1336 16.1761 31.7041C16.3528 18.4722 26.6693 7.498 40.1859 7.50782C53.6828 7.51764 63.9896 18.1483 63.9896 32.0477ZM10.954 24.0182C10.954 25.2256 10.9638 26.4133 10.954 27.6011C10.9245 31.0661 10.8657 34.5311 10.8755 37.9962C10.8853 42.4133 10.954 46.8305 11.0129 51.2477C11.0325 52.936 11.6215 53.7311 13.2215 54.163C14.1147 54.3986 15.0374 54.5066 15.9405 54.6931C16.1172 54.7324 16.2546 54.909 16.4215 55.0268C16.2448 55.1152 16.0681 55.2919 15.8914 55.2821C13.7908 55.2133 11.6902 55.0563 9.58958 55.0661C6.68406 55.0759 3.76872 55.2035 0.8632 55.2919C0.774857 55.2919 0.666881 55.3311 0.588353 55.3017C0.421482 55.233 0.274243 55.1348 0.127004 55.0367C0.264427 54.9189 0.382218 54.7324 0.529457 54.7029C1.34418 54.536 2.17854 54.4477 2.98345 54.2612C4.87792 53.8293 5.49633 53.0342 5.52578 51.0317C5.59449 46.2317 5.69265 41.4317 5.70246 36.6317C5.71228 33.7164 5.6043 30.8109 5.50614 27.8955C5.45706 26.59 5.03498 26.0305 3.80799 25.7066C2.73805 25.4219 1.63866 25.2649 0.54909 25.0293C0.392035 24.99 0.264427 24.833 0.117188 24.725C0.264427 24.6268 0.401851 24.4502 0.54909 24.4403C3.89633 24.2833 7.24357 24.1459 10.5908 23.9986C10.6988 23.979 10.8068 23.9986 10.954 24.0182ZM11.5037 12.3471C11.4939 14.4968 9.93314 16.0968 7.86197 16.0771C5.8497 16.0575 4.26934 14.4182 4.25952 12.3373C4.2497 10.1876 5.79081 8.59739 7.90124 8.59739C10.0215 8.59739 11.5135 10.1483 11.5037 12.3471ZM26.4534 32.3618C26.4534 32.6367 26.473 32.8035 26.5515 32.9311C26.6595 33.0882 26.8558 33.1471 27.1699 33.1471C28.1515 33.1471 28.5933 32.4796 28.5933 31.5176C28.5933 30.9483 28.3282 29.9765 27.0031 29.9765C26.7086 29.9765 26.5417 30.0158 26.5025 30.0452C26.4632 30.0747 26.4534 30.2121 26.4534 30.4379V32.3618ZM26.0411 30.4968C26.0411 30.1336 26.0117 30.0256 25.8055 29.9863L25.6976 29.9667C25.6583 29.9373 25.6485 29.8587 25.7074 29.8391C26.1393 29.8097 26.5417 29.7998 26.9736 29.7998C27.3957 29.7998 27.7589 29.8293 28.0828 29.9569C28.7601 30.2121 29.1037 30.8109 29.1037 31.498C29.1037 32.1655 28.7994 32.725 28.2203 33.0489C27.8963 33.2354 27.4742 33.2943 27.0914 33.2943C26.7675 33.2943 26.4436 33.2551 26.2669 33.2551C26.0509 33.2551 25.8742 33.2649 25.6387 33.2747C25.6092 33.2551 25.5994 33.1765 25.6288 33.1471L25.7466 33.1275C26.0411 33.0882 26.0509 33.0195 26.0509 32.4698V30.4968H26.0411ZM35.1209 31.6943C35.1209 30.8305 34.7577 29.9078 33.7859 29.9078C33.2657 29.9078 32.5785 30.2808 32.5785 31.4195C32.5785 32.1949 32.9417 33.1962 33.9331 33.1962C34.5515 33.1863 35.1209 32.7152 35.1209 31.6943ZM32.0779 31.5863C32.0779 30.5459 32.8338 29.7409 33.8742 29.7409C35.0423 29.7409 35.6313 30.6146 35.6313 31.5275C35.6313 32.5778 34.8558 33.3434 33.8742 33.3434C32.7552 33.3532 32.0779 32.5189 32.0779 31.5863ZM41.7368 32.3814C41.7368 32.5385 41.7368 33.1569 41.7565 33.2943C41.7466 33.3238 41.7172 33.3532 41.6583 33.3532C41.5994 33.2649 41.4522 33.0784 41.0104 32.5679L39.8423 31.1937C39.7049 31.0367 39.3614 30.6048 39.2534 30.487H39.2436C39.2239 30.5459 39.2141 30.6735 39.2141 30.8305V31.9692C39.2141 32.2146 39.2239 32.8919 39.3025 33.0489C39.3319 33.1078 39.4301 33.1373 39.5577 33.1471L39.7147 33.1667C39.7442 33.206 39.7442 33.2747 39.7049 33.2943C39.4791 33.2845 39.3025 33.2747 39.116 33.2747C38.9 33.2747 38.7626 33.2845 38.5957 33.2943C38.5564 33.2649 38.5565 33.1962 38.5859 33.1667L38.7233 33.1471C38.8411 33.1275 38.9196 33.098 38.9491 33.0391C39.0178 32.8526 39.0178 32.2146 39.0178 31.9594V30.4477C39.0178 30.3005 39.0178 30.1925 38.9098 30.0747C38.8411 30.006 38.7135 29.9667 38.5957 29.9471L38.5074 29.9373C38.4779 29.9078 38.4779 29.8293 38.5172 29.8097C38.7331 29.8293 38.9982 29.8293 39.0865 29.8293C39.165 29.8293 39.2534 29.8195 39.3221 29.8097C39.4203 30.0747 40.019 30.7618 40.1859 30.9581L40.6767 31.5275C41.0203 31.9299 41.2755 32.2244 41.5111 32.4698H41.5209C41.5405 32.4403 41.5405 32.3618 41.5405 32.2538V31.1348C41.5405 30.8894 41.5405 30.2121 41.4423 30.0551C41.4129 30.006 41.3344 29.9765 41.1282 29.9471L41.0399 29.9373C41.0006 29.9078 41.0104 29.8195 41.0497 29.8097C41.2853 29.8195 41.4522 29.8293 41.6485 29.8293C41.8644 29.8293 41.992 29.8195 42.1687 29.8097C42.208 29.8391 42.208 29.9078 42.1785 29.9373L42.1098 29.9471C41.9528 29.9765 41.8448 30.0158 41.8252 30.0551C41.7368 30.2416 41.7466 30.8894 41.7466 31.1348V32.3814H41.7368ZM48.2153 32.3814C48.2153 32.5385 48.2153 33.1569 48.235 33.2943C48.2252 33.3238 48.1957 33.3532 48.1368 33.3532C48.0779 33.2649 47.9307 33.0784 47.489 32.5679L46.3209 31.1937C46.1834 31.0367 45.8399 30.6048 45.7319 30.487H45.7221C45.7025 30.5459 45.6926 30.6735 45.6926 30.8305V31.9692C45.6926 32.2146 45.7025 32.8919 45.781 33.0489C45.8104 33.1078 45.9086 33.1373 46.0362 33.1471L46.1933 33.1667C46.2227 33.206 46.2227 33.2747 46.1834 33.2943C45.9577 33.2845 45.781 33.2747 45.5945 33.2747C45.3785 33.2747 45.2411 33.2845 45.0742 33.2943C45.035 33.2649 45.035 33.1962 45.0644 33.1667L45.2018 33.1471C45.3196 33.1275 45.3982 33.098 45.4276 33.0391C45.4963 32.8526 45.4963 32.2146 45.4963 31.9594V30.4477C45.4963 30.3005 45.4963 30.1925 45.3884 30.0747C45.3196 30.006 45.2019 29.9667 45.0742 29.9471L44.9859 29.9373C44.9564 29.9078 44.9565 29.8293 44.9957 29.8097C45.2117 29.8293 45.4767 29.8293 45.565 29.8293C45.6436 29.8293 45.7319 29.8195 45.8006 29.8097C45.8988 30.0747 46.4976 30.7618 46.6644 30.9581L47.1552 31.5275C47.4988 31.9299 47.754 32.2244 47.9896 32.4698H47.9994C48.019 32.4403 48.019 32.3618 48.019 32.2538V31.1348C48.019 30.8894 48.0092 30.2121 47.9209 30.0551C47.8914 30.006 47.8129 29.9765 47.6068 29.9471L47.5086 29.9373C47.4693 29.9078 47.4792 29.8195 47.5184 29.8097C47.754 29.8195 47.9209 29.8293 48.1172 29.8293C48.3331 29.8293 48.4607 29.8195 48.6374 29.8097C48.6767 29.8391 48.6767 29.9078 48.6473 29.9373L48.5785 29.9471C48.4215 29.9765 48.3135 30.0158 48.2939 30.0551C48.2055 30.2416 48.2153 30.8894 48.2153 31.1348V32.3814ZM52.3773 31.5962C52.338 31.714 52.338 31.7238 52.4853 31.7238H53.1037C53.2509 31.7238 53.2607 31.7041 53.2117 31.5667L52.9368 30.7127C52.8976 30.5851 52.8485 30.4477 52.819 30.379H52.8092C52.7896 30.4084 52.7405 30.5262 52.6816 30.6833L52.3773 31.5962ZM53.3785 32.0575C53.3393 31.9397 53.3196 31.9299 53.1724 31.9299H52.4068C52.2792 31.9299 52.2497 31.9495 52.2104 32.0575L52.0338 32.6072C51.9552 32.8428 51.9258 32.9802 51.9258 33.0391C51.9258 33.098 51.9552 33.1373 52.073 33.1471L52.2399 33.1667C52.2791 33.1962 52.2792 33.2747 52.2301 33.2943C52.1025 33.2845 51.9454 33.2845 51.7098 33.2747C51.5429 33.2747 51.3565 33.2845 51.2288 33.2943C51.1994 33.2747 51.1896 33.1863 51.219 33.1667L51.3859 33.1471C51.5037 33.1373 51.6215 33.0784 51.6902 32.8919C51.7785 32.6465 51.9258 32.3127 52.1319 31.7336L52.6423 30.3201C52.711 30.1336 52.7405 30.0354 52.7307 29.9471C52.8485 29.9078 52.9368 29.8195 52.9957 29.7508C53.0252 29.7508 53.0644 29.7606 53.0742 29.7998C53.143 30.0256 53.2215 30.271 53.3 30.4968L53.9969 32.5974C54.1442 33.0489 54.2129 33.1275 54.4288 33.1471L54.5663 33.1667C54.6055 33.1962 54.5957 33.2747 54.5663 33.2943C54.3601 33.2845 54.1834 33.2747 53.9577 33.2747C53.7123 33.2747 53.5258 33.2845 53.3785 33.2943C53.3393 33.2747 53.3295 33.1863 53.3687 33.1667L53.516 33.1471C53.6239 33.1373 53.6926 33.1078 53.6926 33.0489C53.6926 32.99 53.6632 32.9017 53.6239 32.7741L53.3785 32.0575Z" fill="#553B39"/>
</g>
<defs>
<clipPath id="clip0_502_252">
<rect width="64" height="64" fill="white"/>
</clipPath>
</defs>
</svg>
