<svg width="186" height="35" viewBox="0 0 186 35" fill="none" xmlns="http://www.w3.org/2000/svg">
<g clip-path="url(#clip0_502_216)">
<path d="M0.00357462 28.663H8.3738V27.1528C6.96358 27.0742 6.88505 26.5102 6.88505 25.1892V0H5.42663L0 2.4527V3.36309L1.47626 4.72331V25.1892C1.47626 26.5102 1.39768 27.0743 0.00357462 27.1528V28.663Z" fill="#553B39"/>
<path d="M14.8399 11.4781C16.6357 11.4781 17.6567 12.2332 17.6567 14.3557V17.1136L14.3615 18.5239C10.6931 20.0911 9.13477 21.6263 9.13477 24.4289C9.13477 27.4617 11.2126 29.0558 13.867 29.0558C15.4647 29.0558 17.1391 28.1222 18.0209 26.5281C18.344 28.1186 19.64 29.0558 21.3179 29.0558C22.9566 29.0558 24.1955 28.3757 24.8185 27.6028V25.9998C24.5846 26.1533 24.2419 26.2604 23.9509 26.2604C23.3779 26.2604 23.1048 25.7927 23.1048 24.7056V15.6766C23.1048 11.7066 20.5485 9.64844 15.8467 9.64844C12.1373 9.64844 9.65065 11.4335 9.65065 14.0183C9.65065 15.4357 10.6164 16.7977 12.3461 16.7977C13.9027 16.7977 14.6685 15.8248 14.6685 14.6181C14.6685 13.049 13.2172 12.8187 13.2172 12.3118C13.2172 11.7691 13.9152 11.4781 14.8399 11.4781ZM17.6567 18.8791V24.0986C17.6567 25.2679 16.8392 26.2282 15.8003 26.2282C14.7096 26.2282 14.2151 25.3071 14.2151 23.6488C14.2151 21.5317 14.8649 20.6356 16.1769 19.8002L17.6567 18.8791Z" fill="#553B39"/>
<path d="M45.195 14.6401C49.7131 13.6118 51.5124 11.3948 51.5124 8.08881C51.5124 3.61541 48.3404 0.816406 41.9123 0.816406H32.0801V2.36764C34.0972 2.52294 34.3096 3.14415 34.3096 4.97028V24.5008C34.3096 26.2912 33.8277 26.9535 32.0801 27.107V28.6618H42.6799V27.107C40.9501 26.9535 40.5092 26.2912 40.5092 24.5008V15.3202H41.1215C42.471 15.3202 43.5796 15.7896 43.9151 16.9928C44.4507 18.9224 44.381 22.9656 45.2807 25.7843C46.0697 28.2352 48.0083 28.8582 50.4128 28.8582C52.2443 28.8582 53.4439 28.312 53.9634 27.9639L53.8848 26.4216C52.2853 26.8107 51.657 26.1788 50.9037 21.7429C50.1236 17.1106 48.5688 15.4183 45.195 14.6401ZM40.5092 2.56401H40.9144C44.2793 2.56401 45.1254 4.21877 45.1254 8.28339C45.1254 12.3052 44.2793 13.5012 40.8733 13.5012H40.5092V2.56401Z" fill="#553B39"/>
<path d="M58.0149 18.1971H67.4973V17.342C67.4973 12.4241 64.8571 9.60547 61.0853 9.60547C56.8136 9.60547 53.4434 13.4166 53.4434 19.6376C53.4434 25.5123 56.7154 29.0914 61.1549 29.0914C64.3377 29.0914 66.4887 27.2652 67.6651 24.211L66.2513 23.2595C65.3802 24.7358 64.4966 25.5533 62.9346 25.5533C60.4694 25.5533 58.7914 23.0364 58.7914 16.7404C58.7914 12.5973 59.5894 11.4102 60.8371 11.4102C61.8171 11.4102 62.558 12.5919 62.5865 15.855V16.4102H58.0149V18.1971Z" fill="#553B39"/>
<path d="M68.2988 34.9994H76.7922V33.4893C75.316 33.4089 75.2213 32.8466 75.2213 31.5257V28.6588C75.9497 28.9337 76.7833 29.089 77.6669 29.089C82.1903 29.089 85.1553 25.1976 85.1553 18.4321C85.1553 12.5753 82.8401 9.64062 79.684 9.64062C77.7579 9.64062 76.2763 10.5546 75.2213 12.1576V9.64062H73.7629L68.3363 11.8577V12.7699L69.8286 14.1301V31.5257C69.8286 32.8466 69.75 33.4089 68.2988 33.4893V34.9994ZM75.2213 15.335C75.2213 13.8195 76.0121 12.8431 77.1689 12.8431C78.7844 12.8431 79.3966 15.1779 79.3966 20.5903C79.3966 25.1422 78.9754 27.3022 77.0868 27.3022C75.7944 27.3022 75.2213 26.2526 75.2213 24.3086V15.335Z" fill="#553B39"/>
<path d="M92.5612 9.64062H91.0849L85.6797 10.9223V12.2415C86.9757 12.4646 87.172 13.2447 87.172 15.0994V22.7877C87.172 27.1433 89.0196 29.1265 91.8489 29.1265C93.7143 29.1265 95.2156 28.1144 96.1795 26.5025V28.873H97.2755L102.981 28.0501V26.54C101.685 26.2847 101.587 25.8598 101.587 23.898V9.64062H100.094L94.8264 10.9223V12.2415C96.0813 12.7002 96.1795 13.4214 96.1795 15.0994V23.5482C96.1795 24.8905 95.3137 25.9384 94.1195 25.9384C93.0021 25.9384 92.5612 25.1637 92.5612 23.8605V9.64062Z" fill="#553B39"/>
<path d="M111.962 29.0914C116.799 29.0914 119.793 25.1999 119.793 18.4345C119.793 12.5794 117.47 9.64477 114.231 9.64477C112.383 9.64477 110.903 10.6783 109.864 12.1189V0H108.367L102.986 2.4509V3.36129L104.454 4.72331V26.4852C105.975 27.9418 108.591 29.0914 111.962 29.0914ZM109.864 15.3392C109.864 13.8219 110.637 12.8472 111.794 12.8472C113.425 12.8472 114.023 15.1821 114.023 20.5944C114.023 25.1446 113.602 27.3045 111.733 27.3045C110.419 27.3045 109.864 26.3531 109.864 24.6055V15.3392Z" fill="#553B39"/>
<path d="M128.92 29.0914C133.758 29.0914 136.751 25.1999 136.751 18.4345C136.751 12.5794 134.424 9.64477 131.189 9.64477C129.341 9.64477 127.862 10.6783 126.823 12.1189V0H125.325L119.939 2.4509V3.36129L121.412 4.72331V26.4852C122.933 27.9418 125.55 29.0914 128.92 29.0914ZM126.823 15.3392C126.823 13.8219 127.596 12.8472 128.752 12.8472C130.384 12.8472 130.982 15.1821 130.982 20.5944C130.982 25.1446 130.561 27.3045 128.692 27.3045C127.378 27.3045 126.823 26.3531 126.823 24.6055V15.3392Z" fill="#553B39"/>
<path d="M137.539 28.663H145.915V27.1528C144.499 27.0742 144.426 26.5102 144.426 25.1892V0H142.966L137.539 2.4527V3.36309L139.015 4.72331V25.1892C139.015 26.5102 138.939 27.0743 137.539 27.1528V28.663Z" fill="#553B39"/>
<path d="M146.795 28.6633H155.17V27.1531C153.755 27.0745 153.682 26.5104 153.682 25.1895V9.64505H152.222L146.795 11.8621V12.7743L148.271 14.1345V25.1895C148.271 26.5104 148.194 27.0745 146.795 27.1531V28.6633ZM148.027 4.04704C148.027 5.6536 149.38 6.97099 151.043 6.97099C152.668 6.97099 154.037 5.69467 154.037 4.04704C154.037 2.39942 152.704 1.08203 151.043 1.08203C149.38 1.08203 148.027 2.43869 148.027 4.04704Z" fill="#553B39"/>
<path d="M163.945 11.4703C164.923 11.4703 165.532 11.7559 165.532 12.2629C165.532 12.7663 164.141 12.9698 164.141 14.6013C164.141 15.792 164.898 16.7899 166.457 16.7899C168.19 16.7899 169.109 15.41 169.109 13.9302C169.109 11.3275 166.93 9.64062 163.831 9.64062C159.288 9.64062 155.582 13.0608 155.582 19.9869C155.582 25.4314 158.572 29.1265 162.963 29.1265C166.178 29.1265 167.92 27.0094 168.959 24.3907L167.074 23.3625C166.284 25.1458 165.409 26.1365 164.075 26.1365C161.733 26.1365 160.784 23.1412 160.784 17.6681C160.784 12.8002 162.142 11.4703 163.945 11.4703Z" fill="#553B39"/>
<path d="M175.664 11.4781C177.46 11.4781 178.486 12.2332 178.486 14.3557V17.1136L175.186 18.5239C171.517 20.0911 169.959 21.6263 169.959 24.4289C169.959 27.4617 172.037 29.0558 174.691 29.0558C176.289 29.0558 177.967 28.1222 178.85 26.5281C179.168 28.1186 180.464 29.0558 182.142 29.0558C183.781 29.0558 185.025 28.3757 185.646 27.6028V25.9998C185.412 26.1533 185.07 26.2604 184.775 26.2604C184.202 26.2604 183.933 25.7927 183.933 24.7056V15.6766C183.933 11.7066 181.373 9.64844 176.674 9.64844C172.961 9.64844 170.478 11.4335 170.478 14.0183C170.478 15.4357 171.441 16.7977 173.17 16.7977C174.732 16.7977 175.493 15.8248 175.493 14.6181C175.493 13.049 174.045 12.8187 174.045 12.3118C174.045 11.7691 174.739 11.4781 175.664 11.4781ZM178.486 18.8791V24.0986C178.486 25.2679 177.667 26.2282 176.624 26.2282C175.534 26.2282 175.043 25.3071 175.043 23.6488C175.043 21.5317 175.693 20.6356 177.005 19.8002L178.486 18.8791Z" fill="#553B39"/>
</g>
<defs>
<clipPath id="clip0_502_216">
<rect width="185.647" height="35" fill="white"/>
</clipPath>
</defs>
</svg>
