<svg width="65" height="64" viewBox="0 0 65 64" fill="none" xmlns="http://www.w3.org/2000/svg">
<g clip-path="url(#clip0_191_1102)">
<path d="M0.384766 32V64H32.3848H64.3848V32V0H32.3848H0.384766V32ZM6.67852 23.825C7.46602 25.0687 10.7848 30 10.8285 30C10.8598 30 10.891 28.6688 10.8973 26.7938L10.916 23.5938L12.8848 23.5812C13.966 23.5687 14.8848 23.5812 14.916 23.6125C14.9598 23.6375 14.966 26.2625 14.9473 31.375L14.916 39.0938L13.2285 39.1062L11.541 39.1187L9.44102 35.95C8.28477 34.2062 7.25977 32.65 7.15977 32.4875C7.05977 32.3188 6.95977 32.1875 6.93477 32.1875C6.90977 32.1875 6.87852 33.7437 6.87227 35.6375L6.85352 39.0938H4.82227H2.79102L2.77227 31.4125C2.76602 25.7875 2.77852 23.7125 2.82852 23.65C2.88477 23.5812 3.25977 23.5625 4.70352 23.5625H6.50977L6.67852 23.825ZM46.8535 31.3438V39.0938L44.8723 39.1125L42.8848 39.125V31.3875C42.8848 27.1312 42.9035 23.625 42.9285 23.6063C42.9535 23.5812 43.841 23.5687 44.9098 23.575L46.8535 23.5938V31.3438ZM51.4785 31.3438V39.0938L49.4973 39.1125L47.5098 39.125V31.3875C47.5098 27.1312 47.5285 23.625 47.5535 23.6063C47.5785 23.5812 48.466 23.5687 49.5348 23.575L51.4785 23.5938V31.3438ZM54.391 24.8875C54.6723 25.0438 54.8848 25.3187 54.8848 25.55C54.8848 25.9875 54.4348 26.5 53.291 27.375C52.9535 27.6312 52.6035 27.9062 52.516 27.9813L52.3535 28.125L53.0723 28.1063C53.7848 28.0938 53.791 28.0938 53.8723 27.9188C53.9535 27.75 54.1348 27.6812 54.1348 27.825C54.1348 27.8687 54.0723 28.0625 53.9973 28.2625L53.8535 28.625H52.7785C52.0348 28.625 51.691 28.6 51.6598 28.55C51.6098 28.475 51.866 28.225 53.2785 26.975C54.1098 26.2437 54.4848 25.5312 54.2348 25.1562C54.016 24.825 53.3223 25.0562 53.3223 25.4625C53.3223 25.6312 53.1785 25.8125 53.041 25.8125C52.6723 25.8125 52.666 25.525 53.0285 25.1688C53.4473 24.75 53.9348 24.65 54.391 24.8875ZM56.916 24.8375C57.1223 24.9437 57.2098 25.075 57.3223 25.425C57.391 25.65 57.391 25.7625 57.3285 26.1C57.2285 26.575 57.266 26.6688 57.4223 26.3312C57.7973 25.5187 58.5973 24.75 59.0723 24.75C59.3098 24.75 59.566 24.9375 59.6848 25.2062C59.7785 25.4188 59.7848 26.15 59.691 26.3187C59.6598 26.3875 59.6348 26.5062 59.6535 26.5812C59.6723 26.7125 59.6785 26.7125 59.7223 26.5938C59.9098 26.1125 60.3223 25.5 60.691 25.1688C60.966 24.9188 61.316 24.75 61.5473 24.75C61.6223 24.75 61.7848 24.8438 61.9035 24.95C62.3035 25.3375 62.2785 26.1562 61.8223 27.15C61.5535 27.7375 60.7535 28.625 60.491 28.625C60.4348 28.625 60.3723 28.65 60.3535 28.6875C60.2598 28.8438 59.7785 28.6625 59.6098 28.4062C59.491 28.225 59.466 27.2562 59.5785 27.0562C59.6098 26.9875 59.6348 26.8812 59.6223 26.825C59.6098 26.7625 59.5035 26.925 59.3598 27.2062C58.9785 27.9937 58.166 28.75 57.7098 28.75C57.5035 28.75 57.1723 28.4062 57.0785 28.1C57.0098 27.8625 57.0098 27.7375 57.0723 27.4C57.166 26.9188 57.1285 26.8312 56.9723 27.1688C56.6473 27.8687 56.0848 28.4625 55.5285 28.6812C55.3535 28.7562 55.291 28.75 55.0973 28.6562C54.741 28.4875 54.6285 28.2437 54.6535 27.6875C54.6848 27.1 54.7535 26.85 55.041 26.2687C55.4035 25.5375 56.1973 24.775 56.6098 24.7562C56.6848 24.75 56.8223 24.7875 56.916 24.8375ZM20.8535 29.0875C22.8285 29.475 23.9785 30.6375 24.5785 32.8438C24.6348 33.05 24.666 33.5063 24.666 34.2188C24.6598 35.1437 24.641 35.3438 24.516 35.75C23.6535 38.5875 21.2098 39.9625 18.516 39.1313C17.5098 38.8188 16.491 37.9375 16.016 36.9688C15.866 36.6562 15.7223 36.35 15.6973 36.2812C15.241 35.05 15.2848 33.2563 15.7973 32C16.6348 29.925 18.791 28.6812 20.8535 29.0875ZM38.7723 29.0625C40.2785 29.3563 41.1598 30.0312 41.8098 31.375C42.2723 32.3438 42.541 33.5625 42.4973 34.5625L42.4785 35.0938L39.8723 35.1125C38.4348 35.1187 37.2598 35.1375 37.2598 35.1562C37.2598 35.275 37.566 35.8062 37.741 35.975C38.091 36.325 38.3348 36.4062 39.041 36.4C39.7973 36.3937 40.191 36.2625 40.8723 35.7937C41.1223 35.625 41.3348 35.4937 41.3535 35.5063C41.366 35.5187 41.4598 35.6875 41.5598 35.875C41.6598 36.0625 41.8035 36.3312 41.8848 36.4688C41.966 36.6062 42.1098 36.875 42.216 37.0625C42.3223 37.25 42.441 37.4625 42.491 37.5312C42.5348 37.6 42.5723 37.6875 42.5723 37.725C42.5723 37.8562 41.766 38.4688 41.2473 38.7312C40.3098 39.2062 39.616 39.375 38.6035 39.375C37.7535 39.375 37.066 39.2375 36.3473 38.9187C35.4348 38.525 34.541 37.5875 34.2035 36.6875C34.1598 36.5688 34.0973 36.4125 34.0723 36.3438C33.8785 35.85 33.7598 35.05 33.7598 34.25C33.7598 32.2875 34.5348 30.575 35.8223 29.7062C36.6848 29.125 37.816 28.875 38.7723 29.0625ZM28.3035 29.325C28.341 29.3687 28.3848 29.5312 28.4098 29.6875C28.4535 30.05 28.541 30.4688 28.766 31.4688C28.7973 31.6063 28.8535 31.8563 28.8848 32.0312C28.916 32.2 28.9723 32.4562 29.0035 32.5938C29.0348 32.7312 29.1098 33.1062 29.1723 33.4187C29.2348 33.7375 29.3035 34 29.3285 34C29.3473 34 29.3848 33.9062 29.4035 33.7937C29.4785 33.3937 29.5848 32.8375 29.6348 32.5938C29.666 32.4562 29.7223 32.2 29.7535 32.0312C29.791 31.8563 29.8785 31.45 29.9473 31.125C30.0223 30.8 30.1035 30.4188 30.1348 30.2812C30.1598 30.1437 30.216 29.8812 30.2535 29.7C30.291 29.5125 30.3348 29.3375 30.3535 29.3062C30.3785 29.275 31.2473 29.25 32.4223 29.25C34.2098 29.25 34.4535 29.2625 34.491 29.35C34.5098 29.4 34.4973 29.5062 34.4598 29.5812C34.391 29.725 34.316 29.95 33.6348 32.0625C33.4223 32.7312 33.1098 33.6875 32.9473 34.1875C32.7848 34.6875 32.4785 35.6437 32.2598 36.3125C32.0473 36.9812 31.7535 37.8813 31.6098 38.3125L31.3473 39.0938H29.2285H27.1035L26.991 38.7188C26.9223 38.5125 26.8473 38.2937 26.816 38.2375C26.7848 38.175 26.7598 38.0812 26.7598 38.0312C26.7598 37.9812 26.7348 37.8875 26.7035 37.825C26.6723 37.7687 26.5035 37.2563 26.3223 36.6875C26.141 36.1187 25.9723 35.6 25.9473 35.5312C25.9223 35.4625 25.8348 35.1938 25.7598 34.9375C25.6848 34.6812 25.5973 34.4187 25.566 34.3625C25.5348 34.3 25.5098 34.1938 25.5098 34.1313C25.5098 34.0625 25.4848 33.9875 25.4473 33.9688C25.416 33.95 25.3848 33.875 25.3848 33.8062C25.3848 33.7437 25.3598 33.6375 25.3285 33.575C25.2785 33.475 24.8785 32.25 24.4535 30.875C24.341 30.5125 24.2223 30.1688 24.191 30.1125C24.1598 30.05 24.1348 29.9437 24.1348 29.8812C24.1348 29.8125 24.1098 29.7375 24.0723 29.7188C24.041 29.7 24.0098 29.5812 24.0098 29.4625V29.25H26.1285C27.7473 29.25 28.2598 29.2687 28.3035 29.325ZM58.366 29.3187C59.1348 29.5 59.9598 29.95 60.1785 30.3C60.241 30.3937 60.3035 30.4813 60.3285 30.5C60.416 30.5625 60.6223 30.9875 60.741 31.3438C61.0035 32.1062 61.016 32.3312 60.9973 35.7812L60.9785 39.0938L59.0285 39.1125L57.0785 39.125L57.0598 38.7437L57.041 38.3625L56.7535 38.5875C56.1035 39.0812 55.741 39.2 54.7723 39.2312C54.166 39.2563 54.016 39.2375 53.6785 39.1187C52.8535 38.8312 52.4223 38.3813 52.066 37.4375C52.0098 37.3 51.9848 36.9562 51.9848 36.5C51.9848 35.7687 52.0473 35.4688 52.316 34.95C52.5785 34.4312 53.316 33.7812 53.8848 33.5625C54.0035 33.5187 54.1285 33.4562 54.166 33.425C54.1973 33.4 54.2785 33.375 54.3535 33.375C54.4285 33.375 54.5098 33.35 54.5473 33.325C54.6535 33.2312 55.7223 33.025 56.4473 32.9562L56.9785 32.9062L56.9973 32.675C57.0473 32.0562 56.0973 31.875 54.691 32.2375C54.4535 32.3 53.8598 32.5688 53.6848 32.7C53.5598 32.7937 53.3848 32.675 53.3848 32.4937C53.3848 32.4312 53.3598 32.3625 53.3223 32.3438C53.291 32.325 53.2598 32.2437 53.2598 32.1625C53.2598 32.0875 53.2348 32 53.2098 31.9625C53.1785 31.9312 53.116 31.7812 53.0723 31.625C53.0223 31.4688 52.9723 31.3125 52.9473 31.2812C52.9285 31.2437 52.841 31.0125 52.7598 30.7625C52.616 30.3187 52.616 30.3062 52.7348 30.2188C53.1535 29.9 54.2535 29.5062 55.2285 29.325C55.6848 29.2375 58.016 29.2375 58.366 29.3187Z" fill="#553B39"/>
<path d="M56.1971 25.2891C55.9534 25.5579 55.3846 26.6329 55.3846 26.8391C55.3846 26.8891 55.3596 26.9516 55.3221 26.9704C55.2909 26.9891 55.2596 27.0766 55.2596 27.1579C55.2596 27.2391 55.2346 27.3204 55.2034 27.3391C55.1721 27.3579 55.1284 27.4829 55.1096 27.6079C55.0846 27.7391 55.0534 27.9391 55.0346 28.0516C55.0034 28.2016 55.0284 28.2891 55.1034 28.3766C55.4596 28.7704 56.0159 28.1454 56.5971 26.6954C56.6846 26.4704 56.7596 26.2454 56.7596 26.1829C56.7596 26.1204 56.7846 26.0579 56.8159 26.0391C56.8971 25.9829 56.9534 25.3391 56.8846 25.1641C56.7846 24.8954 56.5159 24.9454 56.1971 25.2891Z" fill="#553B39"/>
<path d="M58.6532 25.2377C58.4219 25.4689 57.9782 26.2877 57.8157 26.7814C57.7719 26.9189 57.7094 27.0564 57.6844 27.0877C57.6594 27.1252 57.6344 27.2127 57.6344 27.2877C57.6344 27.3689 57.6094 27.4439 57.5782 27.4627C57.4969 27.5189 57.4407 28.1627 57.5094 28.3377C57.5969 28.5752 57.8282 28.5502 58.1344 28.2752C58.5782 27.8752 59.3844 25.9877 59.3844 25.3502C59.3844 25.1752 59.2032 25.0002 59.0219 25.0002C58.9469 25.0002 58.7782 25.1064 58.6532 25.2377Z" fill="#553B39"/>
<path d="M61.0796 25.2494C60.8171 25.5181 60.4984 26.0931 60.2671 26.7181C60.1859 26.9244 60.0984 27.1494 60.0734 27.2181C59.9171 27.5869 59.8546 28.1744 59.9546 28.3494C60.2421 28.8931 61.0359 27.9056 61.5671 26.3369C61.7671 25.7431 61.8171 25.2056 61.6859 25.0744C61.5421 24.9306 61.3296 24.9931 61.0796 25.2494Z" fill="#553B39"/>
<path d="M57.1348 26.75C57.1348 26.8187 57.166 26.875 57.1973 26.875C57.2348 26.875 57.2598 26.8187 57.2598 26.75C57.2598 26.6812 57.2348 26.625 57.1973 26.625C57.166 26.625 57.1348 26.6812 57.1348 26.75Z" fill="#553B39"/>
<path d="M19.517 32.6567C18.8608 33.213 18.6983 34.4692 19.167 35.3755C19.342 35.7067 19.542 35.8505 19.9358 35.913C20.267 35.963 20.5983 35.8005 20.8108 35.4755C21.0733 35.088 21.1358 34.8317 21.1358 34.163C21.1358 33.6067 21.117 33.5192 20.9358 33.1442C20.6983 32.6505 20.492 32.5005 20.0295 32.5005C19.7733 32.5005 19.667 32.5317 19.517 32.6567Z" fill="#553B39"/>
<path d="M37.9155 31.6086C37.7468 31.6523 37.453 31.9336 37.353 32.1586C37.2405 32.4086 37.1343 32.9398 37.178 33.0523C37.203 33.1148 37.278 33.1336 37.4405 33.1023C37.5655 33.0836 37.9655 33.0648 38.3405 33.0648H39.0093V32.7648C39.0093 32.4398 38.7968 31.9211 38.5968 31.7461C38.4655 31.6336 38.1093 31.5648 37.9155 31.6086Z" fill="#553B39"/>
<path d="M56.6026 34.9685C55.9463 35.1373 55.7276 35.3123 55.6276 35.7435C55.5213 36.2123 55.6838 36.5623 56.0713 36.6873C56.3838 36.7873 56.7338 36.6935 56.9776 36.4373C57.1338 36.2748 57.1401 36.2498 57.1213 35.5873C57.1026 34.8185 57.1151 34.8373 56.6026 34.9685Z" fill="#553B39"/>
</g>
<defs>
<clipPath id="clip0_191_1102">
<rect width="64" height="64" fill="white" transform="translate(0.384766)"/>
</clipPath>
</defs>
</svg>
