<svg width="12" height="14" viewBox="0 0 12 14" fill="none" xmlns="http://www.w3.org/2000/svg">
<g clip-path="url(#clip0_0_3816)">
<path d="M10.1801 1.09096C9.52691 0.354712 8.34622 0.0390625 6.83577 0.0390625H2.45202C2.30257 0.0390397 2.15801 0.0917578 2.04435 0.187734C1.9307 0.28371 1.8554 0.416644 1.832 0.562625L0.00668984 12.0114C-0.0295914 12.2372 0.147174 12.4416 0.378549 12.4416H3.08492L3.76461 8.17807L3.74352 8.31158C3.79194 8.01021 4.05256 7.78792 4.36119 7.78792H5.64725C8.17372 7.78792 10.152 6.77306 10.7299 3.83728C10.747 3.75045 10.7619 3.66594 10.7747 3.58338C10.7018 3.54518 10.7018 3.54518 10.7747 3.58338C10.9468 2.49829 10.7735 1.75967 10.1801 1.09096Z" fill="#27346A"/>
<path d="M4.80017 3.19249C4.87414 3.1576 4.95508 3.13954 5.03703 3.13964H8.47382C8.88078 3.13964 9.26038 3.16584 9.60725 3.22105C9.70432 3.23637 9.80088 3.25464 9.8968 3.27584C10.0328 3.30552 10.1671 3.34183 10.2995 3.38464C10.47 3.44097 10.6288 3.50657 10.7748 3.58338C10.9468 2.49787 10.7735 1.75967 10.1801 1.09096C9.52653 0.354711 8.34622 0.0390625 6.83577 0.0390625H2.45164C2.14297 0.0390625 1.88038 0.261301 1.832 0.562625L0.0066901 12.011C-0.0295912 12.2371 0.147174 12.4413 0.378174 12.4413H3.08492L4.49507 3.59766C4.50894 3.51074 4.54396 3.42845 4.59711 3.35787C4.65026 3.2873 4.71994 3.23054 4.80017 3.19249Z" fill="#27346A"/>
<path d="M10.7295 3.83593C10.1517 6.7713 8.17345 7.78657 5.64693 7.78657H4.36049C4.05187 7.78657 3.7912 8.00886 3.74324 8.31023L2.89767 13.6115C2.86607 13.809 3.02057 13.9881 3.2227 13.9881H5.5041C5.63479 13.988 5.76118 13.9419 5.86053 13.8579C5.95989 13.774 6.0257 13.6577 6.04612 13.5301L6.06834 13.4151L6.49832 10.72L6.52603 10.5711C6.54645 10.4434 6.61225 10.3272 6.71159 10.2432C6.81094 10.1593 6.93732 10.1131 7.06799 10.1131H7.40943C9.61945 10.1131 11.3499 9.22514 11.8556 6.65712C12.0667 5.58394 11.9575 4.68794 11.3991 4.05859C11.2297 3.86796 11.0194 3.71053 10.7744 3.58203C10.7611 3.66501 10.7467 3.7491 10.7295 3.83593Z" fill="#2790C3"/>
<path d="M10.176 3.91626C10.0859 3.89024 9.99499 3.8672 9.90333 3.84718C9.80736 3.82632 9.7108 3.80817 9.61378 3.79276C9.26653 3.73718 8.88722 3.71094 8.47988 3.71094H5.04352C4.96151 3.7108 4.88054 3.72901 4.80666 3.7642C4.72632 3.80212 4.65654 3.85883 4.60337 3.92943C4.55019 4.00003 4.51523 4.08239 4.5015 4.16937L3.77109 8.74941L3.75 8.88292C3.79805 8.58155 4.05867 8.35926 4.36734 8.35926H5.65378C8.18025 8.35926 10.1585 7.3444 10.7363 4.40862C10.7535 4.32179 10.768 4.23765 10.7812 4.15472C10.6349 4.07838 10.4765 4.01226 10.3059 3.95636C10.2629 3.94224 10.2196 3.92887 10.1761 3.91626" fill="#1F264F"/>
</g>
<defs>
<clipPath id="clip0_0_3816">
<rect width="12" height="14" fill="white"/>
</clipPath>
</defs>
</svg>
