<svg width="20" height="21" viewBox="0 0 20 21" fill="none" xmlns="http://www.w3.org/2000/svg">
<path d="M9.39365 9.76562L0.912109 18.7522C0.912984 18.7537 0.912984 18.7562 0.913779 18.7577C1.17431 19.7336 2.06644 20.4517 3.1259 20.4517C3.54978 20.4517 3.94725 20.3372 4.28827 20.1368L4.31538 20.1208L13.862 14.6216L9.39365 9.76562Z" fill="#EB4335"/>
<path d="M17.9734 8.24019L17.9654 8.23454L13.8437 5.84961L9.2002 9.97459L13.8603 14.6253L17.9598 12.2642C18.6782 11.876 19.1667 11.1199 19.1667 10.2482C19.1667 9.38124 18.6854 8.62907 17.9734 8.24019Z" fill="#FABC13"/>
<path d="M0.91144 1.69922C0.860464 1.88701 0.833496 2.08412 0.833496 2.28773V18.1677C0.833496 18.3713 0.860464 18.5685 0.912236 18.7555L9.68461 9.99866L0.91144 1.69922Z" fill="#547DBF"/>
<path d="M9.45583 10.2271L13.8453 5.84603L4.3098 0.326736C3.96339 0.11933 3.55867 0 3.12605 0C2.06659 0 1.17279 0.719623 0.912257 1.69635L0.911621 1.69867L9.45583 10.2271Z" fill="#30A851"/>
</svg>
