<svg width="136" height="40" viewBox="0 0 136 40" fill="none" xmlns="http://www.w3.org/2000/svg">
<g clip-path="url(#clip0_382_4535)">
<g clip-path="url(#clip1_382_4535)">
<g clip-path="url(#clip2_382_4535)">
<mask id="mask0_382_4535" style="mask-type:luminance" maskUnits="userSpaceOnUse" x="0" y="0" width="136" height="40">
<path d="M135.237 0H0.0100098V40H135.237V0Z" fill="white"/>
</mask>
<g mask="url(#mask0_382_4535)">
<path d="M130.229 40H5.01844C2.26366 40 0.0100098 37.7501 0.0100098 34.9999V5.00002C0.0100098 2.25007 2.26366 0 5.01844 0H130.229C132.983 0 135.237 2.25007 135.237 5.00002V34.9999C135.237 37.7501 132.983 40 130.229 40Z" fill="#030404"/>
<path d="M130.229 0H5.01844C2.26366 0 0.0100098 2.25007 0.0100098 5.00003V35C0.0100098 37.7501 2.26366 40 5.01844 40H130.229C132.983 40 135.237 37.7501 135.237 35V5.00003C135.237 2.25007 132.983 0 130.229 0ZM130.229 0.799971C132.549 0.799971 134.436 2.68412 134.436 5.00003V35C134.436 37.3161 132.549 39.2 130.229 39.2H5.01844C2.69844 39.2 0.811326 37.3161 0.811326 35V5.00003C0.811326 2.68412 2.69844 0.799971 5.01844 0.799971H130.229Z" fill="#A7A5A6"/>
<path d="M107.126 29.9999H108.995V17.4989H107.126V29.9999ZM123.961 22.0018L121.819 27.4219H121.755L119.531 22.0018H117.518L120.852 29.5769L118.951 33.7909H120.9L126.04 22.0018H123.961ZM113.361 28.5798C112.749 28.5798 111.895 28.2739 111.895 27.518C111.895 26.553 112.958 26.1839 113.876 26.1839C114.698 26.1839 115.084 26.3609 115.584 26.6019C115.439 27.76 114.44 28.5798 113.361 28.5798ZM113.587 21.7289C112.234 21.7289 110.831 22.3238 110.251 23.6419L111.911 24.334C112.266 23.6419 112.926 23.4168 113.619 23.4168C114.586 23.4168 115.568 23.9959 115.584 25.0249V25.1538C115.246 24.961 114.521 24.6719 113.635 24.6719C111.847 24.6719 110.026 25.6529 110.026 27.4858C110.026 29.1589 111.492 30.236 113.135 30.236C114.392 30.236 115.084 29.6738 115.52 29.0139H115.584V29.979H117.388V25.1858C117.388 22.9669 115.73 21.7289 113.587 21.7289ZM102.035 23.5238H99.3771V19.2379H102.035C103.433 19.2379 104.226 20.3939 104.226 21.3809C104.226 22.35 103.433 23.5238 102.035 23.5238ZM101.988 17.4989H97.509V29.9999H99.3771V25.264H101.988C104.059 25.264 106.095 23.7658 106.095 21.3809C106.095 18.9959 104.059 17.4989 101.988 17.4989ZM77.5655 28.5819C76.2743 28.5819 75.1936 27.503 75.1936 26.0209C75.1936 24.5229 76.2743 23.4268 77.5655 23.4268C78.8405 23.4268 79.8403 24.5229 79.8403 26.0209C79.8403 27.503 78.8405 28.5819 77.5655 28.5819ZM79.7111 22.7019H79.6471C79.2274 22.2029 78.421 21.7508 77.4043 21.7508C75.2735 21.7508 73.3213 23.6199 73.3213 26.0209C73.3213 28.4049 75.2735 30.2579 77.4043 30.2579C78.421 30.2579 79.2274 29.807 79.6471 29.291H79.7111V29.9029C79.7111 31.5308 78.8405 32.4 77.4363 32.4C76.2902 32.4 75.5802 31.5789 75.2896 30.8859L73.66 31.563C74.1277 32.6909 75.3709 34.076 77.4363 34.076C79.6309 34.076 81.4871 32.787 81.4871 29.6458V22.0089H79.7111V22.7019ZM82.7772 29.9999H84.6494V17.4979H82.7772V29.9999ZM87.409 25.8759C87.3609 24.2318 88.6843 23.3949 89.6359 23.3949C90.379 23.3949 91.008 23.765 91.2174 24.2968L87.409 25.8759ZM93.2188 24.4579C92.8631 23.5069 91.7823 21.7508 89.5716 21.7508C87.377 21.7508 85.5539 23.4749 85.5539 26.005C85.5539 28.3888 87.3609 30.2579 89.7809 30.2579C91.7342 30.2579 92.8631 29.0659 93.332 28.373L91.8795 27.406C91.3947 28.1149 90.7336 28.5819 89.7809 28.5819C88.8295 28.5819 88.1513 28.1468 87.7155 27.294L93.4122 24.9409L93.2188 24.4579ZM47.8345 23.0569V24.8609H52.1589C52.0295 25.8759 51.691 26.6169 51.1752 27.1318C50.5451 27.7609 49.5605 28.453 47.8345 28.453C45.171 28.453 43.0896 26.311 43.0896 23.6519C43.0896 20.9939 45.171 18.8519 47.8345 18.8519C49.271 18.8519 50.3197 19.4149 51.094 20.1398L52.369 18.868C51.2874 17.8369 49.8518 17.0469 47.8345 17.0469C44.1874 17.0469 41.1213 20.0119 41.1213 23.6519C41.1213 27.294 44.1874 30.2579 47.8345 30.2579C49.8029 30.2579 51.2874 29.6128 52.4492 28.4049C53.6432 27.2129 54.015 25.5379 54.015 24.184C54.015 23.765 53.9826 23.379 53.9175 23.0569H47.8345ZM58.9311 28.5819C57.641 28.5819 56.5272 27.5189 56.5272 26.005C56.5272 24.4738 57.641 23.4268 58.9311 23.4268C60.2223 23.4268 61.3361 24.4738 61.3361 26.005C61.3361 27.5189 60.2223 28.5819 58.9311 28.5819ZM58.9311 21.7508C56.5751 21.7508 54.6547 23.5399 54.6547 26.005C54.6547 28.453 56.5751 30.2579 58.9311 30.2579C61.2871 30.2579 63.2084 28.453 63.2084 26.005C63.2084 23.5399 61.2871 21.7508 58.9311 21.7508ZM68.2608 28.5819C66.9696 28.5819 65.8558 27.5189 65.8558 26.005C65.8558 24.4738 66.9696 23.4268 68.2608 23.4268C69.5521 23.4268 70.6649 24.4738 70.6649 26.005C70.6649 27.5189 69.5521 28.5819 68.2608 28.5819ZM68.2608 21.7508C65.905 21.7508 63.9846 23.5399 63.9846 26.005C63.9846 28.453 65.905 30.2579 68.2608 30.2579C70.6168 30.2579 72.537 28.453 72.537 26.005C72.537 23.5399 70.6168 21.7508 68.2608 21.7508Z" fill="white"/>
<path d="M20.7609 19.4219L10.0959 30.722C10.097 30.7238 10.097 30.727 10.098 30.7289C10.4256 31.956 11.5474 32.859 12.8796 32.859C13.4126 32.859 13.9124 32.715 14.3412 32.463L14.3753 32.4429L26.3795 25.528L20.7609 19.4219Z" fill="#EB4335"/>
<path d="M31.5515 17.4982L31.5415 17.4911L26.3587 14.4922L20.5198 19.6791L26.3796 25.5271L31.5344 22.5582C32.4378 22.07 33.052 21.1192 33.052 20.0231C33.052 18.933 32.4468 17.9872 31.5515 17.4982Z" fill="#FABC13"/>
<path d="M10.0963 9.27734C10.0322 9.51348 9.99829 9.76133 9.99829 10.0174V29.9855C9.99829 30.2415 10.0322 30.4894 10.0973 30.7245L21.128 19.7134L10.0963 9.27734Z" fill="#547DBF"/>
<path d="M20.8397 20.0005L26.3592 14.4916L14.3689 7.55148C13.9333 7.29068 13.4244 7.14062 12.8804 7.14062C11.5482 7.14062 10.4243 8.04551 10.0967 9.27368L10.0959 9.2766L20.8397 20.0005Z" fill="#30A851"/>
</g>
<path d="M43.8349 12.2267C44.5439 12.2267 45.0942 12.0311 45.4863 11.6395C45.8784 11.2481 46.0745 10.7072 46.0745 10.017C46.0745 9.3267 45.8784 8.78586 45.4863 8.39444C45.0942 8.00282 44.5439 7.80721 43.8349 7.80721H42.824V12.2267H43.8349ZM41.8655 6.90234H43.861C44.506 6.90234 45.068 7.03274 45.5472 7.29375C46.0266 7.55477 46.3954 7.92173 46.6541 8.39444C46.9127 8.86715 47.0418 9.40778 47.0418 10.017C47.0418 10.626 46.9127 11.1668 46.6541 11.6395C46.3954 12.1122 46.0266 12.479 45.5472 12.74C45.068 13.001 44.506 13.1316 43.861 13.1316H41.8655V6.90234Z" fill="white"/>
<path d="M49.2459 6.90625H48.2874V13.1355H49.2459V6.90625Z" fill="white"/>
<path d="M51.2499 12.8207C50.8373 12.5192 50.5496 12.0958 50.387 11.5506L51.2934 11.1853C51.3863 11.5332 51.5519 11.8174 51.7901 12.0377C52.0281 12.2582 52.3158 12.3683 52.653 12.3683C52.9666 12.3683 53.2324 12.2872 53.4501 12.1248C53.668 11.9625 53.7771 11.7391 53.7771 11.4549C53.7771 11.1938 53.6812 10.9778 53.4895 10.8068C53.2977 10.6357 52.9666 10.4689 52.496 10.3065L52.1039 10.1671C51.6796 10.0164 51.3269 9.80626 51.0449 9.53647C50.7632 9.26688 50.6223 8.9089 50.6223 8.46211C50.6223 8.1547 50.7052 7.8705 50.8708 7.60948C51.0363 7.34847 51.2685 7.14261 51.5678 6.99173C51.8672 6.84106 52.2054 6.76562 52.5833 6.76562C53.1236 6.76562 53.5563 6.8977 53.8818 7.16143C54.2069 7.42537 54.4277 7.72254 54.5441 8.05314L53.6812 8.41865C53.623 8.20988 53.501 8.02994 53.3153 7.87926C53.1292 7.72838 52.8883 7.65295 52.5919 7.65295C52.3072 7.65295 52.066 7.72838 51.8686 7.87926C51.671 8.02994 51.5724 8.22137 51.5724 8.45334C51.5724 8.66796 51.6608 8.84643 51.8381 8.98832C52.0152 9.13064 52.2896 9.26542 52.6616 9.3929L53.0624 9.53208C53.5969 9.71786 54.0093 9.9584 54.2998 10.2543C54.5904 10.5502 54.7356 10.9445 54.7356 11.4375C54.7356 11.8433 54.6326 12.1842 54.426 12.4596C54.22 12.7353 53.9557 12.9396 53.6333 13.073C53.3107 13.2063 52.981 13.2732 52.6442 13.2732C52.127 13.2732 51.6622 13.1225 51.2499 12.8207Z" fill="white"/>
<path d="M58.1605 9.81189C58.4801 9.81189 58.7369 9.712 58.9318 9.51179C59.1263 9.3118 59.2236 9.07837 59.2236 8.81151C59.2236 8.54485 59.1263 8.31121 58.9318 8.11122C58.7369 7.91102 58.4801 7.81112 58.1605 7.81112H56.9491V9.81189H58.1605ZM55.9905 6.90625H58.1343C58.5063 6.90625 58.8473 6.98754 59.1583 7.14992C59.469 7.31229 59.716 7.53862 59.8991 7.82847C60.0821 8.11853 60.1736 8.44621 60.1736 8.81151C60.1736 9.1768 60.0821 9.50469 59.8991 9.79454C59.716 10.0848 59.469 10.3109 59.1583 10.4733C58.8473 10.6357 58.5063 10.717 58.1343 10.717H56.9491V13.1355H55.9905V6.90625Z" fill="white"/>
<path d="M65.3617 12.0682C65.7075 11.8682 65.9805 11.5896 66.181 11.2331C66.3816 10.8764 66.4816 10.4718 66.4816 10.0194C66.4816 9.56698 66.3816 9.1624 66.181 8.80568C65.9805 8.44895 65.7075 8.17058 65.3617 7.97059C65.0161 7.77039 64.6341 7.6703 64.2158 7.6703C63.7976 7.6703 63.4156 7.77039 63.0697 7.97059C62.7241 8.17058 62.4512 8.44895 62.2506 8.80568C62.0503 9.1624 61.95 9.56698 61.95 10.0194C61.95 10.4718 62.0503 10.8764 62.2506 11.2331C62.4512 11.5896 62.7241 11.8682 63.0697 12.0682C63.4156 12.2684 63.7976 12.3683 64.2158 12.3683C64.6341 12.3683 65.0161 12.2684 65.3617 12.0682ZM62.5688 12.8381C62.0748 12.5482 61.6871 12.1551 61.4054 11.6592C61.1234 11.1633 60.9827 10.6168 60.9827 10.0194C60.9827 9.42215 61.1234 8.87526 61.4054 8.37935C61.6871 7.88345 62.0748 7.49057 62.5688 7.20051C63.0624 6.91066 63.6115 6.76562 64.2158 6.76562C64.8202 6.76562 65.3676 6.91066 65.8584 7.20051C66.3493 7.49057 66.7357 7.88345 67.0177 8.37935C67.2993 8.87526 67.4401 9.42215 67.4401 10.0194C67.4401 10.6168 67.2993 11.1633 67.0177 11.6592C66.7357 12.1551 66.3493 12.5482 65.8584 12.8381C65.3676 13.1281 64.8202 13.2732 64.2158 13.2732C63.6115 13.2732 63.0624 13.1281 62.5688 12.8381Z" fill="white"/>
<path d="M68.678 6.90234H69.8109L72.6346 11.4786H72.6869L72.6346 10.278V6.90234H73.5845V13.1316H72.591L69.628 8.32047H69.5756L69.628 9.52105V13.1316H68.678V6.90234Z" fill="white"/>
<path d="M76.1208 6.90625H75.1624V13.1355H76.1208V6.90625Z" fill="white"/>
<path d="M80.1299 12.2441C80.432 12.2441 80.6746 12.1527 80.8575 11.9701C81.0405 11.7875 81.132 11.5684 81.132 11.3133C81.132 11.0581 81.0375 10.8379 80.8489 10.6521C80.6601 10.4665 80.4087 10.3737 80.0949 10.3737H78.6483V12.2441H80.1299ZM79.9817 9.52105C80.2722 9.52105 80.5046 9.43265 80.6788 9.25565C80.8531 9.07885 80.9402 8.87447 80.9402 8.64229C80.9402 8.41033 80.8544 8.20887 80.6834 8.03772C80.5119 7.86656 80.2896 7.78109 80.0164 7.78109H78.6483V9.52105H79.9817ZM77.6897 6.90234H80.0252C80.3564 6.90234 80.6643 6.97485 80.949 7.11988C81.2337 7.26491 81.4589 7.46344 81.6245 7.71568C81.7901 7.96813 81.873 8.24795 81.873 8.55536C81.873 8.86277 81.7957 9.1311 81.6419 9.36014C81.488 9.58939 81.2831 9.76451 81.0273 9.88634V9.92981C81.3528 10.0402 81.6115 10.2228 81.8033 10.4782C81.9948 10.7334 82.0907 11.0349 82.0907 11.3829C82.0907 11.7252 82.0021 12.0282 81.8248 12.2919C81.6475 12.5559 81.4095 12.7617 81.1102 12.9097C80.8108 13.0576 80.4843 13.1316 80.1299 13.1316H77.6897V6.90234Z" fill="white"/>
<path d="M84.3123 6.90625H83.3538V13.1355H84.3123V6.90625Z" fill="white"/>
<path d="M85.8889 6.90625H86.8475V12.2306H89.5315V13.1355H85.8889V6.90625Z" fill="white"/>
<path d="M90.5452 6.90625H94.3276V7.81112H91.504V9.56843H94.0486V10.4733H91.504V12.2306H94.3276V13.1355H90.5452V6.90625Z" fill="white"/>
<path d="M97.9782 12.8207C97.5656 12.5192 97.278 12.0958 97.1155 11.5506L98.0217 11.1853C98.1149 11.5332 98.2804 11.8174 98.5185 12.0377C98.7567 12.2582 99.0443 12.3683 99.3813 12.3683C99.6949 12.3683 99.9609 12.2872 100.179 12.1248C100.397 11.9625 100.506 11.7391 100.506 11.4549C100.506 11.1938 100.41 10.9778 100.218 10.8068C100.026 10.6357 99.6949 10.4689 99.2243 10.3065L98.8322 10.1671C98.4081 10.0164 98.0552 9.80626 97.7734 9.53647C97.4917 9.26688 97.3508 8.9089 97.3508 8.46211C97.3508 8.1547 97.4337 7.8705 97.5993 7.60948C97.7649 7.34847 97.997 7.14261 98.2964 6.99173C98.5955 6.84106 98.934 6.76562 99.3116 6.76562C99.8519 6.76562 100.285 6.8977 100.61 7.16143C100.935 7.42537 101.156 7.72254 101.272 8.05314L100.41 8.41865C100.352 8.20988 100.23 8.02994 100.044 7.87926C99.8577 7.72838 99.6166 7.65295 99.3202 7.65295C99.0357 7.65295 98.7946 7.72838 98.5969 7.87926C98.3996 8.02994 98.3007 8.22137 98.3007 8.45334C98.3007 8.66796 98.3893 8.84643 98.5666 8.98832C98.7435 9.13064 99.0181 9.26542 99.3899 9.3929L99.7908 9.53208C100.325 9.71786 100.738 9.9584 101.028 10.2543C101.319 10.5502 101.464 10.9445 101.464 11.4375C101.464 11.8433 101.361 12.1842 101.155 12.4596C100.949 12.7353 100.684 12.9396 100.362 13.073C100.039 13.2063 99.7095 13.2732 99.3725 13.2732C98.8555 13.2732 98.3908 13.1225 97.9782 12.8207Z" fill="white"/>
<path d="M103.689 12.9614C103.332 12.7527 103.056 12.457 102.861 12.0741C102.666 11.6913 102.569 11.2476 102.569 10.7429V6.90625H103.519V10.7952C103.519 11.2649 103.641 11.6449 103.885 11.9349C104.129 12.225 104.475 12.3698 104.922 12.3698C105.375 12.3698 105.724 12.225 105.968 11.9349C106.212 11.6449 106.334 11.2649 106.334 10.7952V6.90625H107.284V10.7429C107.284 11.2419 107.188 11.6825 106.996 12.0653C106.804 12.4482 106.531 12.7456 106.177 12.957C105.823 13.1687 105.404 13.2747 104.922 13.2747C104.457 13.2747 104.046 13.1702 103.689 12.9614Z" fill="white"/>
</g>
</g>
</g>
<defs>
<clipPath id="clip0_382_4535">
<rect width="136" height="40" fill="white" transform="translate(0.0100098)"/>
</clipPath>
<clipPath id="clip1_382_4535">
<rect width="136" height="40" fill="white" transform="translate(0.0100098)"/>
</clipPath>
<clipPath id="clip2_382_4535">
<rect width="136" height="40" fill="white" transform="translate(0.0100098)"/>
</clipPath>
</defs>
</svg>
