<svg width="186" height="55" viewBox="0 0 186 55" fill="none" xmlns="http://www.w3.org/2000/svg">
<mask id="mask0_382_3856" style="mask-type:luminance" maskUnits="userSpaceOnUse" x="0" y="-1" width="186" height="56">
<path d="M185.795 2.99963C185.795 1.34278 184.452 -0.000366211 182.795 -0.000366211H3.875C2.21814 -0.000366211 0.875 1.34278 0.875 2.99963V51.9982C0.875 53.6551 2.21815 54.9982 3.875 54.9982H182.795C184.452 54.9982 185.795 53.6551 185.795 51.9982V2.99963Z" fill="white"/>
</mask>
<g mask="url(#mask0_382_3856)">
<path d="M178.947 54.9983H7.72392C3.95681 54.9983 0.875 51.9047 0.875 48.1233V6.87449C0.875 3.0934 3.95681 -0.000366211 7.72392 -0.000366211H178.947C182.712 -0.000366211 185.795 3.0934 185.795 6.87449V48.1233C185.795 51.9047 182.712 54.9983 178.947 54.9983Z" fill="white" fill-opacity="0.666667"/>
<path d="M178.947 -0.000366211H7.72392C3.95681 -0.000366211 0.875 3.0934 0.875 6.8745V48.1233C0.875 51.9046 3.95681 54.9982 7.72392 54.9982H178.947C182.712 54.9982 185.795 51.9046 185.795 48.1233V6.8745C185.795 3.0934 182.712 -0.000366211 178.947 -0.000366211ZM178.947 1.09956C182.12 1.09956 184.7 3.6902 184.7 6.8745V48.1233C184.7 51.308 182.12 53.8982 178.947 53.8982H7.72392C4.55137 53.8982 1.97078 51.308 1.97078 48.1233V6.8745C1.97078 3.6902 4.55137 1.09956 7.72392 1.09956H178.947Z" fill="black"/>
<path d="M147.353 41.2471H149.909V24.0588H147.353V41.2471ZM170.375 30.2501L167.446 37.7025H167.359L164.318 30.2501H161.564L166.124 40.6655L163.524 46.4596H166.189L173.218 30.2501H170.375ZM155.879 39.2945C155.043 39.2945 153.874 38.874 153.874 37.8346C153.874 36.5077 155.328 36.0003 156.584 36.0003C157.708 36.0003 158.236 36.2437 158.919 36.5751C158.721 38.1674 157.355 39.2945 155.879 39.2945ZM156.189 29.8749C154.338 29.8749 152.42 30.6928 151.626 32.5052L153.897 33.4567C154.382 32.5052 155.285 32.1957 156.232 32.1957C157.555 32.1957 158.898 32.9919 158.919 34.4067V34.584C158.458 34.3189 157.465 33.9213 156.254 33.9213C153.809 33.9213 151.319 35.2702 151.319 37.7903C151.319 40.0909 153.324 41.5718 155.57 41.5718C157.29 41.5718 158.236 40.7988 158.832 39.8914H158.919V41.2184H161.387V34.628C161.387 31.5771 159.119 29.8749 156.189 29.8749ZM140.392 32.3428H136.756V26.4498H140.392C142.304 26.4498 143.387 28.0392 143.387 29.3964C143.387 30.7288 142.304 32.3428 140.392 32.3428ZM140.328 24.0588H134.202V41.2471H136.756V34.7355H140.328C143.159 34.7355 145.944 32.6755 145.944 29.3964C145.944 26.117 143.159 24.0588 140.328 24.0588ZM106.93 39.2974C105.164 39.2974 103.686 37.814 103.686 35.7762C103.686 33.7165 105.164 32.2095 106.93 32.2095C108.673 32.2095 110.041 33.7165 110.041 35.7762C110.041 37.814 108.673 39.2974 106.93 39.2974ZM109.864 31.2127H109.776C109.202 30.5265 108.1 29.905 106.709 29.905C103.796 29.905 101.126 32.4749 101.126 35.7762C101.126 39.0541 103.796 41.6019 106.709 41.6019C108.1 41.6019 109.202 40.9819 109.776 40.2725H109.864V41.1138C109.864 43.3521 108.673 44.5472 106.753 44.5472C105.186 44.5472 104.215 43.4183 103.818 42.4654L101.589 43.3964C102.229 44.9472 103.929 46.8517 106.753 46.8517C109.754 46.8517 112.293 45.0793 112.293 40.7603V30.2599H109.864V31.2127ZM114.057 41.2471H116.617V24.0573H114.057V41.2471ZM120.391 35.5768C120.325 33.3162 122.135 32.1656 123.436 32.1656C124.452 32.1656 125.312 32.6744 125.598 33.4056L120.391 35.5768ZM128.335 33.6271C127.849 32.3196 126.371 29.905 123.348 29.905C120.347 29.905 117.854 32.2756 117.854 35.7543C117.854 39.032 120.325 41.6019 123.634 41.6019C126.305 41.6019 127.849 39.9629 128.49 39.0102L126.504 37.6806C125.841 38.6553 124.937 39.2974 123.634 39.2974C122.333 39.2974 121.406 38.6992 120.81 37.5266L128.6 34.2913L128.335 33.6271ZM66.2734 31.7008V34.1813H72.1869C72.0099 35.5768 71.547 36.5956 70.8416 37.3036C69.9801 38.1687 68.6336 39.1202 66.2734 39.1202C62.6311 39.1202 59.7848 36.1751 59.7848 32.5189C59.7848 28.8643 62.6311 25.919 66.2734 25.919C68.2378 25.919 69.6718 26.6931 70.7307 27.6898L72.4743 25.9412C70.9951 24.5234 69.032 23.4373 66.2734 23.4373C61.2861 23.4373 57.0933 27.514 57.0933 32.5189C57.0933 37.5266 61.2861 41.6019 66.2734 41.6019C68.9651 41.6019 70.9951 40.7149 72.5839 39.0541C74.2167 37.4152 74.725 35.1121 74.725 33.2506C74.725 32.6744 74.6807 32.1437 74.5918 31.7008H66.2734ZM81.4477 39.2974C79.6836 39.2974 78.1605 37.8359 78.1605 35.7543C78.1605 33.6489 79.6836 32.2095 81.4477 32.2095C83.2135 32.2095 84.7365 33.6489 84.7365 35.7543C84.7365 37.8359 83.2135 39.2974 81.4477 39.2974ZM81.4477 29.905C78.226 29.905 75.5999 32.3649 75.5999 35.7543C75.5999 39.1202 78.226 41.6019 81.4477 41.6019C84.6695 41.6019 87.2969 39.1202 87.2969 35.7543C87.2969 32.3649 84.6695 29.905 81.4477 29.905ZM94.2059 39.2974C92.4403 39.2974 90.9172 37.8359 90.9172 35.7543C90.9172 33.6489 92.4403 32.2095 94.2059 32.2095C95.9717 32.2095 97.4935 33.6489 97.4935 35.7543C97.4935 37.8359 95.9717 39.2974 94.2059 39.2974ZM94.2059 29.905C90.9844 29.905 88.3583 32.3649 88.3583 35.7543C88.3583 39.1202 90.9844 41.6019 94.2059 41.6019C97.4277 41.6019 100.053 39.1202 100.053 35.7543C100.053 32.3649 97.4277 29.905 94.2059 29.905Z" fill="black"/>
<path d="M29.2531 26.7087L14.6689 42.246C14.6704 42.2484 14.6704 42.2528 14.6718 42.2554C15.1197 43.9426 16.6537 45.1842 18.4756 45.1842C19.2045 45.1842 19.8879 44.9862 20.4742 44.6397L20.5208 44.6121L36.9364 35.1043L29.2531 26.7087Z" fill="#EB4335"/>
<path d="M44.0063 24.0597L43.9926 24.05L36.9052 19.9265L28.9207 27.0583L36.9338 35.0991L43.9829 31.0171C45.2183 30.3458 46.0581 29.0384 46.0581 27.5314C46.0581 26.0325 45.2306 24.7321 44.0063 24.0597Z" fill="#FABC13"/>
<path d="M14.6688 12.7537C14.5812 13.0783 14.5347 13.4191 14.5347 13.7711V41.2265C14.5347 41.5785 14.5812 41.9194 14.6701 42.2426L29.7544 27.1028L14.6688 12.7537Z" fill="#547DBF"/>
<path d="M29.3596 27.5011L36.9074 19.9265L20.511 10.384C19.9153 10.0254 19.2194 9.81909 18.4754 9.81909C16.6537 9.81909 15.1168 11.0633 14.6688 12.752L14.6677 12.756L29.3596 27.5011Z" fill="#30A851"/>
</g>
<path d="M60.8032 16.813C61.7727 16.813 62.5253 16.544 63.0615 16.0056C63.5976 15.4674 63.8658 14.7237 63.8658 13.7748C63.8658 12.8256 63.5976 12.082 63.0615 11.5438C62.5253 11.0053 61.7727 10.7364 60.8032 10.7364H59.4208V16.813H60.8032ZM58.1101 9.49219H60.8389C61.7209 9.49219 62.4895 9.67148 63.1447 10.0304C63.8002 10.3893 64.3047 10.8938 64.6584 11.5438C65.012 12.1937 65.1885 12.9371 65.1885 13.7748C65.1885 14.6121 65.012 15.3557 64.6584 16.0056C64.3047 16.6556 63.8002 17.1599 63.1447 17.5187C62.4895 17.8775 61.7209 18.0572 60.8389 18.0572H58.1101V9.49219Z" fill="black"/>
<path d="M68.2039 9.49219H66.8931V18.0572H68.2039V9.49219Z" fill="black"/>
<path d="M70.9453 17.6322C70.381 17.2177 69.9877 16.6356 69.7654 15.8858L71.0048 15.3836C71.1318 15.862 71.3583 16.2526 71.684 16.5556C72.0095 16.8589 72.403 17.0102 72.864 17.0102C73.2929 17.0102 73.6563 16.8987 73.9541 16.6754C74.2521 16.4522 74.4012 16.145 74.4012 15.7544C74.4012 15.3953 74.27 15.0983 74.008 14.8632C73.7457 14.6279 73.2929 14.3985 72.6494 14.1753L72.1132 13.9837C71.5329 13.7764 71.0506 13.4875 70.665 13.1165C70.2797 12.7458 70.0871 12.2536 70.0871 11.6393C70.0871 11.2166 70.2004 10.8258 70.4269 10.4669C70.6533 10.108 70.9708 9.825 71.38 9.61753C71.7895 9.41037 72.2519 9.30664 72.7687 9.30664C73.5076 9.30664 74.0993 9.48824 74.5444 9.85086C74.989 10.2138 75.2909 10.6224 75.45 11.0769L74.27 11.5795C74.1904 11.2924 74.0236 11.045 73.7698 10.8379C73.5153 10.6304 73.1857 10.5267 72.7804 10.5267C72.3911 10.5267 72.0613 10.6304 71.7913 10.8379C71.5212 11.045 71.3863 11.3082 71.3863 11.6272C71.3863 11.9223 71.5073 12.1677 71.7497 12.3628C71.9919 12.5584 72.367 12.7438 72.8758 12.9191L73.4238 13.1104C74.1548 13.3658 74.7187 13.6966 75.116 14.1035C75.5133 14.5104 75.712 15.0526 75.712 15.7304C75.712 16.2883 75.571 16.7571 75.2885 17.1357C75.0068 17.5148 74.6454 17.7957 74.2045 17.9791C73.7634 18.1624 73.3126 18.2543 72.8521 18.2543C72.1447 18.2543 71.5091 18.0472 70.9453 17.6322Z" fill="black"/>
<path d="M80.3952 13.4873C80.8322 13.4873 81.1833 13.3501 81.45 13.0747C81.7159 12.7997 81.8489 12.4788 81.8489 12.1119C81.8489 11.7452 81.7159 11.424 81.45 11.149C81.1833 10.8737 80.8322 10.7364 80.3952 10.7364H78.7386V13.4873H80.3952ZM77.4277 9.49219H80.3594C80.868 9.49219 81.3344 9.60396 81.7597 9.82723C82.1845 10.0505 82.5223 10.3617 82.7727 10.7602C83.0229 11.159 83.1481 11.6096 83.1481 12.1119C83.1481 12.6141 83.0229 13.0649 82.7727 13.4635C82.5223 13.8625 82.1845 14.1734 81.7597 14.3967C81.3344 14.6201 80.868 14.7318 80.3594 14.7318H78.7386V18.0572H77.4277V9.49219Z" fill="black"/>
<path d="M90.2434 16.5976C90.7162 16.3226 91.0896 15.9395 91.3638 15.4494C91.6381 14.9589 91.7748 14.4026 91.7748 13.7806C91.7748 13.1584 91.6381 12.6021 91.3638 12.1116C91.0896 11.6211 90.7162 11.2384 90.2434 10.9634C89.7707 10.6882 89.2483 10.5505 88.6764 10.5505C88.1045 10.5505 87.5821 10.6882 87.1091 10.9634C86.6365 11.2384 86.2634 11.6211 85.9889 12.1116C85.715 12.6021 85.5779 13.1584 85.5779 13.7806C85.5779 14.4026 85.715 14.9589 85.9889 15.4494C86.2634 15.9395 86.6365 16.3226 87.1091 16.5976C87.5821 16.8729 88.1045 17.0102 88.6764 17.0102C89.2483 17.0102 89.7707 16.8729 90.2434 16.5976ZM86.4241 17.6561C85.7486 17.2575 85.2184 16.717 84.8331 16.0353C84.4476 15.3534 84.2551 14.6019 84.2551 13.7806C84.2551 12.9593 84.4476 12.2073 84.8331 11.5255C85.2184 10.8436 85.7486 10.3034 86.4241 9.90459C87.0991 9.50606 87.85 9.30664 88.6764 9.30664C89.5028 9.30664 90.2515 9.50606 90.9226 9.90459C91.5939 10.3034 92.1223 10.8436 92.5079 11.5255C92.893 12.2073 93.0856 12.9593 93.0856 13.7806C93.0856 14.6019 92.893 15.3534 92.5079 16.0353C92.1223 16.717 91.5939 17.2575 90.9226 17.6561C90.2515 18.0549 89.5028 18.2543 88.6764 18.2543C87.85 18.2543 87.0991 18.0549 86.4241 17.6561Z" fill="black"/>
<path d="M94.7776 9.49219H96.3269L100.188 15.7843H100.26L100.188 14.1336V9.49219H101.487V18.0572H100.129L96.0768 11.4421H96.0052L96.0768 13.0928V18.0572H94.7776V9.49219Z" fill="black"/>
<path d="M104.955 9.49219H103.645V18.0572H104.955V9.49219Z" fill="black"/>
<path d="M110.438 16.8369C110.851 16.8369 111.182 16.7112 111.433 16.4602C111.683 16.2091 111.808 15.9078 111.808 15.5571C111.808 15.2061 111.679 14.9033 111.421 14.648C111.163 14.3927 110.819 14.2652 110.39 14.2652H108.411V16.8369H110.438ZM110.235 13.0928C110.632 13.0928 110.95 12.9713 111.188 12.7279C111.427 12.4848 111.546 12.2038 111.546 11.8846C111.546 11.5656 111.428 11.2886 111.194 11.0533C110.96 10.818 110.656 10.7004 110.282 10.7004H108.411V13.0928H110.235ZM107.101 9.49219H110.294C110.747 9.49219 111.168 9.59189 111.558 9.79129C111.947 9.9907 112.255 10.2637 112.481 10.6105C112.708 10.9576 112.821 11.3424 112.821 11.765C112.821 12.1877 112.716 12.5566 112.505 12.8716C112.295 13.1868 112.015 13.4276 111.665 13.5951V13.6548C112.11 13.8066 112.464 14.0576 112.726 14.4088C112.988 14.7597 113.119 15.1743 113.119 15.6528C113.119 16.1233 112.998 16.5401 112.755 16.9025C112.513 17.2656 112.187 17.5486 111.778 17.7521C111.369 17.9554 110.922 18.0572 110.438 18.0572H107.101V9.49219Z" fill="black"/>
<path d="M116.157 9.49219H114.846V18.0572H116.157V9.49219Z" fill="black"/>
<path d="M118.314 9.49219H119.625V16.813H123.295V18.0572H118.314V9.49219Z" fill="black"/>
<path d="M124.679 9.49219H129.851V10.7364H125.99V13.1526H129.47V14.3967H125.99V16.813H129.851V18.0572H124.679V9.49219Z" fill="black"/>
<path d="M134.843 17.6322C134.278 17.2177 133.885 16.6356 133.663 15.8858L134.902 15.3836C135.029 15.862 135.256 16.2526 135.582 16.5556C135.907 16.8589 136.301 17.0102 136.762 17.0102C137.19 17.0102 137.553 16.8987 137.852 16.6754C138.15 16.4522 138.3 16.145 138.3 15.7544C138.3 15.3953 138.168 15.0983 137.905 14.8632C137.643 14.6279 137.19 14.3985 136.547 14.1753L136.01 13.9837C135.43 13.7764 134.947 13.4875 134.563 13.1165C134.178 12.7458 133.985 12.2536 133.985 11.6393C133.985 11.2166 134.098 10.8258 134.325 10.4669C134.551 10.108 134.868 9.825 135.278 9.61753C135.687 9.41037 136.149 9.30664 136.667 9.30664C137.405 9.30664 137.998 9.48824 138.442 9.85086C138.886 10.2138 139.188 10.6224 139.347 11.0769L138.168 11.5795C138.089 11.2924 137.922 11.045 137.667 10.8379C137.413 10.6304 137.083 10.5267 136.678 10.5267C136.289 10.5267 135.959 10.6304 135.688 10.8379C135.419 11.045 135.283 11.3082 135.283 11.6272C135.283 11.9223 135.404 12.1677 135.647 12.3628C135.889 12.5584 136.264 12.7438 136.773 12.9191L137.322 13.1104C138.052 13.3658 138.616 13.6966 139.014 14.1035C139.411 14.5104 139.609 15.0526 139.609 15.7304C139.609 16.2883 139.468 16.7571 139.187 17.1357C138.905 17.5148 138.542 17.7957 138.102 17.9791C137.66 18.1624 137.21 18.2543 136.75 18.2543C136.043 18.2543 135.407 18.0472 134.843 17.6322Z" fill="black"/>
<path d="M142.656 17.8178C142.167 17.5309 141.79 17.1243 141.523 16.5978C141.257 16.0715 141.124 15.4614 141.124 14.7674V9.49219H142.423V14.8393C142.423 15.4852 142.589 16.0076 142.923 16.4063C143.257 16.8052 143.73 17.0043 144.341 17.0043C144.961 17.0043 145.438 16.8052 145.771 16.4063C146.106 16.0076 146.273 15.4852 146.273 14.8393V9.49219H147.571V14.7674C147.571 15.4535 147.44 16.0593 147.178 16.5856C146.915 17.1121 146.542 17.5211 146.058 17.8118C145.573 18.1028 145 18.2485 144.341 18.2485C143.705 18.2485 143.144 18.1049 142.656 17.8178Z" fill="black"/>
</svg>
