<svg width="225" height="54" viewBox="0 0 225 54" fill="none" xmlns="http://www.w3.org/2000/svg">
<g clip-path="url(#clip0_0_3923)">
<g clip-path="url(#clip1_0_3923)">
<g clip-path="url(#clip2_0_3923)">
<mask id="mask0_0_3923" style="mask-type:luminance" maskUnits="userSpaceOnUse" x="0" y="0" width="225" height="44">
<path d="M224.263 0.5H0.259399V43.7735H224.263V0.5Z" fill="white"/>
</mask>
<g mask="url(#mask0_0_3923)">
<path d="M36.8026 9.46525C37.6273 9.46525 38.3095 9.56198 38.895 9.80634V14.6683C38.0703 14.4748 37.6324 14.4239 36.8026 14.4239C32.2818 14.4239 29.8025 16.9999 29.8025 22.6407V32.4154H24.5027V9.76052H29.8025V13.4057C30.8257 11.3133 33.7888 9.46525 36.8026 9.46525ZM58.0982 9.75544H63.398V32.4104H58.0982V29.3456C56.688 31.6315 53.72 32.9908 51.0981 32.9908C44.1947 32.9908 39.4753 27.4975 39.4753 21.0778C39.4753 14.658 44.1895 9.16488 51.0981 9.16488C53.725 9.16488 56.688 10.5242 58.0982 12.81V9.74526V9.75544ZM58.0982 21.0829C58.0982 17.1934 55.4712 13.8893 51.3882 13.8893C47.3052 13.8893 44.7751 17.1934 44.7751 21.0829C44.7751 24.9724 47.4021 28.2816 51.3882 28.2816C55.3745 28.2816 58.0982 24.9775 58.0982 21.0829ZM164.811 21.0829C164.811 27.5026 160.097 32.9958 153.188 32.9958C150.56 32.9958 147.597 31.6365 146.188 29.3507V43.7939H140.887V9.76052H146.188V12.8253C147.597 10.5394 150.566 9.18014 153.188 9.18014C160.091 9.18014 164.811 14.6733 164.811 21.093V21.0829ZM159.511 21.0829C159.511 17.1934 156.884 13.8893 152.897 13.8893C148.912 13.8893 146.188 17.1934 146.188 21.0829C146.188 24.9724 148.815 28.2816 152.897 28.2816C156.981 28.2816 159.511 24.9775 159.511 21.0829ZM89.3009 9.19543C83.0695 9.19543 77.999 14.2661 77.999 20.4975V32.4257H83.2375V20.4975C83.2375 17.1527 85.9562 14.4341 89.3009 14.4341C92.6457 14.4341 95.3643 17.1527 95.3643 20.4975V32.4257H100.603V20.4975C100.603 14.2661 95.5323 9.19543 89.3009 9.19543ZM125.432 9.19543C119.2 9.19543 114.13 14.2661 114.13 20.4975V32.4257H119.368V20.4975C119.368 17.1527 122.087 14.4341 125.432 14.4341C128.776 14.4341 131.495 17.1527 131.495 20.4975V32.4257H136.733V20.4975C136.733 14.2661 131.663 9.19543 125.432 9.19543ZM189.033 9.19543C182.802 9.19543 177.732 14.2661 177.732 20.4975V32.4257H182.971V20.4975C182.971 17.1527 185.689 14.4341 189.033 14.4341C192.379 14.4341 195.097 17.1527 195.097 20.4975V32.4257H200.336V20.4975C200.336 14.2661 195.265 9.19543 189.033 9.19543ZM68.1479 32.4154H73.4475V9.76052H68.1479V32.4154ZM70.8003 0.5C68.9981 0.5 67.5369 1.96112 67.5369 3.76333C67.5369 5.56554 68.9981 7.02665 70.8003 7.02665C72.6025 7.02665 74.0635 5.56554 74.0635 3.76333C74.0635 1.96112 72.6025 0.5 70.8003 0.5ZM104.706 32.4154H110.006V9.76052H104.706V32.4154ZM107.359 0.5C105.556 0.5 104.095 1.96112 104.095 3.76333C104.095 5.56554 105.556 7.02665 107.359 7.02665C109.161 7.02665 110.622 5.56554 110.622 3.76333C110.622 1.96112 109.161 0.5 107.359 0.5ZM168.308 32.4154H173.608V9.76052H168.308V32.4154ZM170.961 0.5C169.158 0.5 167.697 1.96112 167.697 3.76333C167.697 5.56554 169.158 7.02665 170.961 7.02665C172.762 7.02665 174.224 5.56554 174.224 3.76333C174.224 1.96112 172.762 0.5 170.961 0.5ZM222.313 27.1666C218.964 27.1666 216.235 24.4429 216.235 21.088C216.235 17.733 218.964 15.0093 222.313 15.0093V9.76052C218.129 9.76052 214.478 12.0464 212.518 15.4268L209.841 20.0749V0.912371H204.541V32.4154H209.841V26.2553C209.841 23.3637 210.716 22.7273 211.036 22.6102C211.113 22.9615 211.353 23.9185 211.358 23.9185C212.62 28.7957 217.045 32.4154 222.313 32.4154H224.182V27.1666H222.313ZM20.5471 9.76561H18.0982C14.784 9.76561 10.5789 11.1249 10.5789 11.1249L11.5105 9.76561C12.6305 8.00922 13.2873 5.92191 13.2873 3.68697V0.871642H8.03844V3.68697C8.03844 7.03684 5.31475 9.76561 1.96489 9.76561H0.259399V15.0145H1.96489C5.42167 15.0145 9.49956 13.6653 9.49956 13.6653L8.55264 15.0145C7.43261 16.7708 6.77587 18.8581 6.77587 21.093C6.77587 27.3397 11.8567 32.4154 18.1033 32.4154V27.1666C14.7534 27.1666 12.0247 24.4429 12.0247 21.088C12.0247 17.733 14.7534 15.0093 18.1033 15.0093H20.5521V9.76052L20.5471 9.76561Z" fill="#F3EFEC"/>
</g>
</g>
</g>
</g>
<defs>
<clipPath id="clip0_0_3923">
<rect width="224.481" height="43.2735" fill="white" transform="translate(0.259399 0.5)"/>
</clipPath>
<clipPath id="clip1_0_3923">
<rect width="224.481" height="43.2735" fill="white" transform="translate(0.259399 0.5)"/>
</clipPath>
<clipPath id="clip2_0_3923">
<rect width="224.481" height="43.2735" fill="white" transform="translate(0.259399 0.5)"/>
</clipPath>
</defs>
</svg>
