<svg width="175" height="40" viewBox="0 0 175 40" fill="none" xmlns="http://www.w3.org/2000/svg">
<path d="M18.1767 4.26892L11.7911 36.7683L9.57051 36.7673L3.18592 4.26892H2.30652V3.48145H10.4961V4.26892H8.27554L12.7639 27.2305L17.2511 4.26892H14.614L14.615 3.48145H19.6574V4.26892H18.1767Z" fill="#553B39"/>
<path d="M19.5707 25.7952L24.5669 25.7962L22.0683 12.8796L19.5707 25.7952ZM15.1748 35.9798H16.6555L23.0401 3.48145H25.2606L31.6462 35.9798H32.3871V36.7673H24.3361L24.335 35.9798H26.5566L24.7055 26.5827H19.4311L17.58 35.9798H20.2172L20.2182 36.7673H15.1737V35.9798H15.1748Z" fill="#553B39"/>
<path d="M48.3035 4.26892V36.8597H46.7535L35.7662 5.8428V35.9798H37.9406V36.7673H33.66V35.9798H34.7714V4.26892H32.6893V3.48145H40.138L47.3086 23.2259V4.26892H45.1332V3.48145H50.0612V4.26892H48.3035Z" fill="#553B39"/>
<path d="M51.8076 36.7673L51.8065 35.9798H53.2872V4.26892H51.8076V3.48145H59.9499V4.26892H58.4241V35.9798H59.9499V36.7673H51.8076Z" fill="#553B39"/>
<path d="M66.4738 36.7673V35.9798H68.0007V4.17652H67.9083C65.734 4.17652 63.6058 6.39823 63.1881 16.4904H62.4021V3.48145H78.7812V16.4904H77.9942C77.5324 6.39928 75.2185 4.17652 73.275 4.17652H73.1354L73.1365 35.9798H74.7085V36.7673H66.4738Z" fill="#553B39"/>
<path d="M92.8875 4.26892V3.48145H97.4671V4.26892H96.2183L91.9136 21.3518L91.9147 35.9809L93.4416 35.9798V36.7673L85.252 36.7683V35.9809L86.7789 35.9798V21.4431L81.9663 4.26892H80.9022V3.48145H89.2775V4.26892H86.9646L91.3606 19.8692L95.2927 4.26892H92.8875Z" fill="#553B39"/>
<path d="M112.404 36.7673V35.9798H113.745V4.26892H112.404V3.48145H126.933L126.932 13.4351H126.146C125.731 6.39823 123.601 4.26892 119.993 4.26892H118.882V19.1752H119.298C122.12 19.1752 122.952 18.0181 123.231 13.4351H123.971V26.0262H123.231C122.953 21.0263 122.12 19.9627 119.529 19.9616L118.882 19.9627V35.9788H120.917V36.7673H112.404Z" fill="#553B39"/>
<path d="M130.127 25.7952H135.125L132.625 12.8796L130.127 25.7952ZM125.731 35.9798H127.212L133.598 3.48145H135.817L142.204 35.9798H143.013V36.7673H134.893V35.9798H137.113L135.262 26.5827H129.989L128.136 35.9798L130.775 35.9809V36.7683L125.73 36.7673L125.731 35.9798Z" fill="#553B39"/>
<path d="M144.047 36.7673V35.9798H145.389V4.26892H144.047V3.48145H151.913V4.26892H150.526V35.9798H151.912V36.7673H144.047Z" fill="#553B39"/>
<path d="M160.913 4.26892L160.911 18.4812H161.606C164.105 18.4812 165.909 18.667 165.908 12.5552L165.909 10.9351C165.909 5.00809 164.105 4.26787 161.883 4.26787L160.913 4.26892ZM165.632 32.5086L165.631 24.3599C165.632 20.0078 164.382 19.2676 161.791 19.2676H160.913V35.9798H162.947V36.7673H154.433V35.9798H155.775V4.26892H154.436V3.48145H161.884C167.344 3.48145 170.86 5.9814 170.861 11.6764C170.86 16.6763 167.853 18.435 164.152 18.898V18.9442C168.038 19.5458 170.722 21.167 170.722 27.0467V34.6841C170.722 35.7026 171.047 35.9798 171.601 35.9798C171.971 35.9798 172.341 35.8412 172.574 35.7478V36.5352C172.295 36.7211 171.415 37.0434 170.213 37.0434C167.343 37.0445 165.632 36.026 165.632 32.5086Z" fill="#553B39"/>
</svg>
