<svg width="29" height="69" viewBox="0 0 29 69" fill="none" xmlns="http://www.w3.org/2000/svg">
<g clip-path="url(#clip0_382_3704)">
<path d="M27.3196 1.56246C27.2272 1.54874 27.1301 1.53409 27.0304 1.5222C26.9307 1.51396 26.8282 1.50664 26.722 1.49749C26.2956 1.47003 25.8032 1.44624 25.2641 1.46088C24.9979 1.47644 24.7187 1.49749 24.4278 1.52677C24.2822 1.54142 24.134 1.55789 23.9821 1.57711C23.8302 1.59541 23.6765 1.61554 23.5245 1.64849C23.2189 1.70888 22.9023 1.77844 22.5783 1.85805C22.4163 1.89832 22.2515 1.9395 22.0868 1.98709C21.9248 2.04017 21.7619 2.09508 21.5973 2.15364C21.2677 2.27078 20.9319 2.39982 20.5924 2.54075C20.2629 2.69632 19.9307 2.86562 19.5976 3.04774C19.432 3.14016 19.2627 3.23076 19.0998 3.33417C18.9388 3.43941 18.7786 3.5474 18.6185 3.65996C18.4583 3.77161 18.2991 3.88692 18.1398 4.00588C17.9806 4.12393 17.8223 4.24474 17.6749 4.38018C17.3747 4.64556 17.0874 4.91736 16.8128 5.19374C16.6728 5.32918 16.5502 5.47926 16.4239 5.62476C16.2995 5.77119 16.1786 5.91852 16.0606 6.06587C15.9426 6.2132 15.8282 6.36145 15.7175 6.5097C15.6086 6.65978 15.5097 6.81627 15.4109 6.96819C15.2141 7.27476 15.0302 7.58041 14.859 7.88241C14.6971 8.19082 14.5525 8.50104 14.417 8.80212C14.2834 9.10503 14.1544 9.39605 14.0583 9.69622C13.9577 9.99181 13.8671 10.2801 13.7856 10.5583C13.7454 10.6974 13.706 10.8328 13.6721 10.9683C13.6428 11.1055 13.6145 11.2391 13.5861 11.3709C13.5331 11.6336 13.4882 11.8852 13.4497 12.1232C13.4123 12.362 13.3774 12.5844 13.3628 12.8022C13.3271 13.2333 13.3125 13.6057 13.3078 13.9104C13.2997 14.2133 13.3161 14.4567 13.3298 14.6224C13.3426 14.7871 13.3537 14.8759 13.3537 14.8759C19.3825 12.1872 25.5625 8.16702 28.761 1.85897C28.761 1.85897 28.4288 1.75922 27.8238 1.64757C27.6738 1.6192 27.5053 1.58992 27.3196 1.56246Z" fill="#DCD4D0"/>
<path d="M3.95389 22.1995C4.10398 22.8145 4.27511 23.3737 4.45265 23.8733C4.63658 24.3749 4.84432 24.8205 5.03193 25.2021C5.22411 25.5856 5.39432 25.905 5.56087 26.1658C5.88849 26.6864 6.10722 26.9592 6.10722 26.9592C6.10722 26.9592 6.15297 26.8769 6.23899 26.724C6.28018 26.6472 6.33051 26.5529 6.38908 26.4421C6.44673 26.3314 6.51079 26.2033 6.59041 26.0624C6.74507 25.7796 6.92536 25.4363 7.11753 25.0429C7.16603 24.9449 7.2127 24.8424 7.26578 24.739C7.31886 24.6357 7.37377 24.5295 7.43051 24.4206C7.54124 24.2027 7.6538 23.9731 7.76728 23.7333C7.82311 23.6134 7.87893 23.4908 7.93658 23.3654C7.99789 23.2419 8.06012 23.1165 8.12327 22.9883C8.24772 22.7322 8.37036 22.4668 8.49115 22.1913C8.60554 21.914 8.74831 21.6395 8.87185 21.3512C9.00089 21.0648 9.11802 20.7655 9.24614 20.4654C9.37793 20.167 9.50513 19.8595 9.62593 19.5447C9.68815 19.3882 9.74123 19.2253 9.80621 19.067C9.87027 18.9087 9.9325 18.7476 9.99289 18.5848C10.1164 18.2608 10.2217 17.9222 10.3379 17.5854C10.4569 17.2504 10.5667 16.9064 10.6673 16.5522C10.7616 16.1953 10.875 15.8549 10.9629 15.5062C11.0087 15.3323 11.0517 15.1594 11.0929 14.9855C11.1323 14.8107 11.1716 14.6378 11.2164 14.4693C11.3015 14.1299 11.3766 13.7903 11.4443 13.4526C11.48 13.2843 11.5066 13.1122 11.5431 12.9484C11.578 12.7828 11.6118 12.6189 11.6448 12.457C11.7097 12.1303 11.7674 11.8054 11.8195 11.4851C11.8699 11.163 11.9339 10.8601 11.9825 10.5544C12.0849 9.94674 12.1608 9.35465 12.2496 8.82204C12.332 8.28394 12.396 7.7797 12.45 7.32945C12.5131 6.88744 12.5626 6.49575 12.5983 6.16905C12.6715 5.51655 12.6907 5.1322 12.6907 5.1322C12.6907 5.1322 12.3 5.32712 11.6438 5.72246C11.48 5.8213 11.2988 5.93203 11.1048 6.05832C10.9172 6.18827 10.715 6.33194 10.5008 6.48935C10.2867 6.64676 10.0615 6.81697 9.82634 7.00091C9.76777 7.04759 9.70829 7.09425 9.64881 7.14184C9.59115 7.19126 9.5335 7.2416 9.47493 7.29285C9.35871 7.39625 9.23883 7.50149 9.11802 7.60948C8.87642 7.82728 8.62751 8.05881 8.37493 8.30316C8.12693 8.55116 7.88533 8.8193 7.63733 9.09658C7.51378 9.23568 7.38933 9.37753 7.26578 9.52304C7.20447 9.59624 7.14224 9.66946 7.08001 9.74359C7.02144 9.81955 6.96287 9.89641 6.90339 9.9742C6.6682 10.2844 6.43484 10.6066 6.20514 10.9397C5.96903 11.2691 5.76861 11.627 5.55904 11.9866C5.45656 12.1669 5.35497 12.3499 5.25614 12.5347C5.20763 12.6272 5.15822 12.7206 5.1088 12.8138C5.06396 12.9091 5.02004 13.0051 4.97519 13.1012C4.79765 13.4874 4.6311 13.881 4.47644 14.2808C4.39591 14.4795 4.33002 14.6844 4.26687 14.8912C4.20282 15.0972 4.14241 15.3049 4.08567 15.5135C3.84499 16.3427 3.73243 17.1727 3.6519 17.9551C3.62993 18.15 3.62261 18.3468 3.61712 18.5408C3.61164 18.7339 3.60889 18.9252 3.60889 19.1136C3.61072 19.4907 3.61804 19.854 3.64641 20.21C3.71688 20.9248 3.81571 21.5873 3.95389 22.1995Z" fill="#DCD4D0"/>
<path d="M4.03796 41.0698C4.36192 41.3911 4.69321 41.6609 4.98788 41.8897C5.28255 42.1177 5.54612 42.3034 5.76666 42.449C5.98721 42.5944 6.16475 42.7015 6.28646 42.7719C6.4091 42.8424 6.48047 42.8763 6.48047 42.8763C6.48047 42.8763 6.48504 42.7948 6.50061 42.642C6.51434 42.4892 6.53172 42.2668 6.54637 41.9877C6.561 41.7077 6.57199 41.3718 6.57474 40.9902C6.59303 40.6058 6.6031 40.1767 6.59853 39.7127C6.58388 39.2505 6.59945 38.7481 6.57565 38.2238C6.56925 38.0929 6.56283 37.9602 6.55643 37.8256C6.5482 37.6911 6.53812 37.5557 6.53538 37.4184C6.52532 37.143 6.50975 36.8629 6.48596 36.5783C6.47407 36.4355 6.46126 36.2928 6.4457 36.1482C6.43746 36.0759 6.42922 36.0036 6.4219 35.9304C6.4155 35.8572 6.41001 35.7839 6.4036 35.7107C6.37797 35.417 6.3432 35.1196 6.29928 34.8185C6.27731 34.6685 6.25352 34.5174 6.22698 34.3655C6.2041 34.2136 6.18031 34.0608 6.15743 33.907C6.1071 33.6004 6.04669 33.2902 5.97532 32.9782C5.89753 32.6661 5.83622 32.3596 5.75843 32.0566C5.68156 31.7546 5.59645 31.4572 5.50402 31.1644C5.32923 30.5796 5.15169 30.0159 4.94304 29.4723C4.56143 28.3906 4.11941 27.3931 3.74604 26.5429C3.55478 26.1173 3.35985 25.7257 3.19146 25.3807C3.02765 25.0366 2.87574 24.7355 2.74579 24.4884C2.4868 23.9933 2.31476 23.7142 2.31476 23.7142C2.31476 23.7142 2.12441 24.0272 1.83615 24.5955C1.76385 24.7374 1.68606 24.8957 1.60278 25.0696C1.52317 25.2434 1.44629 25.4337 1.36302 25.6379C1.20104 26.0469 1.01709 26.5127 0.85786 27.0297C0.705947 27.5477 0.554948 28.1151 0.425 28.7218C0.317013 29.3295 0.217262 29.9765 0.162354 30.6482C0.143136 30.985 0.130324 31.3272 0.126664 31.675C0.124833 32.0228 0.118428 32.3742 0.153203 32.7283C0.181572 33.0825 0.220008 33.4393 0.269425 33.7954C0.294135 33.9738 0.321589 34.1523 0.352703 34.3308C0.390224 34.5083 0.43049 34.6868 0.473501 34.8634C0.648293 35.5725 0.850538 36.2406 1.12691 36.8565C1.39596 37.4742 1.67417 38.0453 2.00911 38.5623C2.172 38.8213 2.33672 39.0675 2.50328 39.3017C2.67166 39.5351 2.8309 39.7585 3.01118 39.9662C3.36168 40.3825 3.70851 40.7495 4.03796 41.0698Z" fill="#DCD4D0"/>
<path d="M10.4033 54.3944C10.6879 54.4804 10.9367 54.5444 11.1427 54.5912C11.5545 54.6845 11.7952 54.712 11.7952 54.712C11.7952 54.712 11.7339 54.4539 11.5975 54.0274C11.5298 53.8142 11.4438 53.5589 11.3367 53.2734C11.2378 52.9832 11.1272 52.6566 10.9917 52.3115C10.924 52.1386 10.8517 51.9601 10.773 51.7781C10.697 51.5941 10.6247 51.4019 10.5415 51.2079C10.4601 51.0139 10.3721 50.8171 10.2779 50.6177C10.1836 50.4191 10.0811 50.2186 9.98688 50.01C9.79196 49.5964 9.565 49.1808 9.31699 48.7627C9.08181 48.3389 8.81642 47.918 8.51351 47.5043C8.22432 47.0861 7.92415 46.6917 7.60294 46.3238C7.52332 46.2314 7.4428 46.1408 7.36135 46.052C7.28448 45.9614 7.20669 45.8726 7.1289 45.7848C6.97241 45.61 6.81317 45.4407 6.65302 45.2769C5.9987 44.6271 5.38831 44.0524 4.81086 43.582C4.66809 43.464 4.52807 43.3532 4.39446 43.248C4.26543 43.1418 4.14097 43.0431 4.02292 42.9506C3.7859 42.7657 3.57358 42.6083 3.39514 42.4812C3.03823 42.2258 2.81859 42.0931 2.81859 42.0931C2.81859 42.0931 2.78839 42.3741 2.77375 42.8646C2.76827 43.1098 2.76002 43.4082 2.77558 43.7477C2.79572 44.0863 2.82775 44.4679 2.87717 44.8824C2.90188 45.0901 2.93116 45.3052 2.96502 45.5277C3.00711 45.7482 3.05561 45.9751 3.10961 46.2076C3.1636 46.44 3.22308 46.6779 3.28898 46.9196C3.35486 47.1612 3.42533 47.4073 3.51867 47.6517C3.69804 48.1412 3.90212 48.6419 4.14554 49.1351C4.40453 49.6229 4.69554 50.1052 5.02042 50.5682C5.35628 51.0276 5.72507 51.4385 6.09113 51.8119C6.18356 51.9052 6.27508 51.9958 6.36842 52.0837C6.46543 52.1697 6.56243 52.2539 6.65944 52.3344C6.85344 52.4973 7.04745 52.6492 7.24055 52.792C7.43364 52.9348 7.6249 53.0683 7.81342 53.1928C8.00194 53.3173 8.19961 53.4262 8.38721 53.5305C8.76425 53.7373 9.12573 53.9094 9.46159 54.053C9.79287 54.2031 10.1214 54.3065 10.4033 54.3944Z" fill="#DCD4D0"/>
<path d="M18.8595 62.7405C19.0269 62.7231 19.1578 62.7048 19.2466 62.6902C19.3353 62.6755 19.3847 62.6636 19.3847 62.6636C19.3847 62.6636 19.3554 62.6196 19.3006 62.5392C19.2456 62.4577 19.1651 62.3405 19.0598 62.196C18.9546 62.0514 18.8238 61.8794 18.6699 61.689C18.5931 61.5939 18.5107 61.494 18.4219 61.3906C18.3359 61.2845 18.2462 61.1729 18.152 61.0566C17.9617 60.8269 17.7503 60.5872 17.5178 60.3438C17.3989 60.2247 17.2854 60.0939 17.1637 59.9658C17.042 59.8376 16.9147 59.7096 16.783 59.5833C16.6512 59.457 16.513 59.3307 16.3702 59.2062C16.2284 59.0809 16.0893 58.9491 15.9401 58.8246C15.6464 58.5711 15.3197 58.3369 14.9857 58.1044C14.6552 57.8692 14.3149 57.6615 13.9726 57.4757C13.8866 57.429 13.8005 57.3842 13.7145 57.3411C13.6304 57.2963 13.5479 57.2515 13.4647 57.2076C13.2981 57.1216 13.1325 57.0401 12.9668 56.9642C12.6365 56.8113 12.3061 56.6805 11.9932 56.5597C11.6866 56.4361 11.3892 56.3291 11.111 56.2375C10.5545 56.0526 10.0649 55.9318 9.73458 55.844C9.39871 55.7598 9.19922 55.726 9.19922 55.726C9.19922 55.726 9.25595 55.9438 9.38225 56.3107C9.51493 56.674 9.73549 57.1783 10.0375 57.7639C10.0759 57.8372 10.1153 57.9113 10.1555 57.9864C10.1995 58.0596 10.2443 58.1337 10.2901 58.2096C10.3825 58.3606 10.4813 58.5144 10.5857 58.6709C10.69 58.8274 10.7998 58.9866 10.916 59.1459C11.0313 59.306 11.153 59.4671 11.2894 59.6208C11.5575 59.9319 11.8495 60.2422 12.1634 60.5405C12.3171 60.6924 12.4919 60.8287 12.6648 60.9651C12.8397 61.1015 13.0199 61.2323 13.2048 61.3586C13.3905 61.484 13.5745 61.602 13.763 61.7082C13.9552 61.8107 14.1455 61.9059 14.3359 61.9919C14.7166 62.1639 15.0854 62.3095 15.4496 62.4202C15.8193 62.5255 16.1744 62.6041 16.5093 62.6618C16.8461 62.7176 17.1537 62.7624 17.452 62.7725C18.0431 62.8036 18.5245 62.7753 18.8595 62.7405Z" fill="#DCD4D0"/>
<path d="M26.342 66.3047C26.1809 66.1921 25.9933 66.0805 25.7966 65.9432C24.9967 65.4179 23.9132 64.8249 22.6714 64.4387C22.3602 64.3426 22.0426 64.2804 21.7406 64.2163C21.4395 64.1523 21.1412 64.1075 20.8502 64.0763C20.2645 64.0215 19.7301 63.9921 19.2625 63.9958C18.7958 63.9976 18.3958 64.0324 18.1213 64.0572C17.8476 64.08 17.6885 64.1066 17.6885 64.1066C17.6885 64.1066 17.714 64.1432 17.7598 64.2118C17.8083 64.2786 17.876 64.3811 17.9739 64.4991C18.1689 64.7343 18.4581 65.0619 18.8333 65.4253C18.9275 65.515 19.0236 65.6119 19.1316 65.7007C19.2395 65.7904 19.3521 65.881 19.4702 65.9725C19.7054 66.1546 19.9607 66.3376 20.2334 66.5143C20.3679 66.6049 20.5135 66.6854 20.6617 66.7623C20.8099 66.84 20.9628 66.916 21.1193 66.9874C21.2749 67.0588 21.435 67.1274 21.5979 67.1906C21.7599 67.2546 21.9255 67.3141 22.0994 67.3589C23.4721 67.7506 24.7579 67.638 25.6621 67.4185C26.1187 67.3031 26.4811 67.1704 26.73 67.0661C26.9789 66.9626 27.1143 66.8877 27.1143 66.8877C27.1143 66.8877 26.9871 66.776 26.7583 66.603C26.644 66.517 26.504 66.4155 26.342 66.3047Z" fill="#DCD4D0"/>
<path d="M21.333 16.3446C21.3979 16.2211 21.4583 16.1068 21.5104 16.0015C21.7218 15.5787 21.8253 15.306 21.8253 15.306C21.8253 15.306 21.5306 15.2172 21.009 15.1275C20.7473 15.0827 20.4279 15.0379 20.0572 15.0067C19.694 14.9848 19.2849 14.9802 18.8301 15.0013C18.3697 15.0159 17.8929 15.0855 17.3786 15.1879C17.1242 15.2419 16.8506 15.2959 16.5907 15.3783C16.3281 15.4589 16.0599 15.5512 15.7863 15.6555C15.6499 15.7077 15.5117 15.7635 15.3726 15.8221C15.2326 15.8798 15.1026 15.9494 14.9663 16.018C14.6963 16.1571 14.4236 16.3089 14.1501 16.4755C14.0109 16.557 13.8801 16.6476 13.7501 16.7428C13.6193 16.837 13.4893 16.9359 13.3593 17.0374C13.1022 17.2433 12.8331 17.4547 12.598 17.7C12.3572 17.9416 12.1257 18.1923 11.9052 18.4495C11.6864 18.7075 11.4979 18.983 11.3085 19.2566C11.2151 19.3939 11.1245 19.5321 11.0357 19.6702C10.9461 19.8085 10.8729 19.9539 10.7951 20.0958C10.6423 20.3813 10.4986 20.6678 10.3649 20.9524C10.236 21.2388 10.1316 21.5308 10.0273 21.8145C9.92846 22.1009 9.82414 22.3773 9.75734 22.6592C9.68504 22.9383 9.62007 23.2118 9.56241 23.4772C9.53496 23.61 9.50751 23.7408 9.48097 23.8689C9.46266 23.9989 9.44436 24.127 9.42697 24.2524C9.39403 24.5031 9.36658 24.7438 9.3437 24.9726C9.33362 25.087 9.32356 25.1986 9.3135 25.3066C9.30525 25.4155 9.30525 25.5226 9.30251 25.626C9.29336 26.0388 9.29885 26.3984 9.30892 26.6939C9.31167 26.8413 9.32539 26.975 9.33729 27.0902C9.35101 27.2055 9.362 27.3044 9.37115 27.384C9.39129 27.5432 9.40592 27.6292 9.40592 27.6292C9.40592 27.6292 9.70975 27.4783 10.1994 27.1964C10.4409 27.0545 10.7512 26.8862 11.0834 26.6885C11.4202 26.4917 11.7789 26.2648 12.1724 26.0205C12.5714 25.778 12.9896 25.5126 13.4079 25.2261C13.8379 24.9442 14.2864 24.6468 14.7129 24.3265C14.9315 24.1682 15.1594 24.0099 15.3754 23.8433C15.4843 23.76 15.5923 23.6759 15.6985 23.5898C15.8046 23.5038 15.908 23.416 16.0196 23.3309C16.4607 22.9895 16.8552 22.6115 17.2652 22.2318C17.3649 22.1347 17.4609 22.0378 17.5534 21.939C17.6458 21.8401 17.7337 21.7394 17.8289 21.6451C18.0137 21.453 18.1857 21.2571 18.3459 21.0577L18.4639 20.9075L18.5866 20.7638C18.6671 20.6678 18.745 20.5708 18.819 20.4729C18.9719 20.2798 19.099 20.073 19.2455 19.8872C19.3864 19.6968 19.5164 19.5047 19.6381 19.3116C19.6683 19.2631 19.6975 19.2145 19.7278 19.167C19.7589 19.1203 19.7909 19.0745 19.822 19.0288C19.8834 18.9373 19.9428 18.8448 20.0005 18.7524C20.1167 18.5694 20.2192 18.3818 20.3226 18.2043C20.4306 18.0312 20.5313 17.8592 20.6246 17.6909C20.6704 17.6058 20.7152 17.5215 20.7591 17.4401C20.7802 17.3979 20.8013 17.3568 20.8223 17.3165C20.8451 17.2772 20.8671 17.2387 20.8891 17.2004C20.976 17.0475 21.0565 16.8983 21.1298 16.7556C21.203 16.6128 21.2725 16.4746 21.333 16.3446Z" fill="#DCD4D0"/>
<path d="M11.2051 39.8063C11.4257 39.4577 11.6517 39.0816 11.8704 38.6844C11.9756 38.4867 12.101 38.2808 12.2127 38.0722C12.327 37.8635 12.4387 37.6494 12.5458 37.4325C12.7489 36.9987 12.9814 36.5467 13.1672 36.0817C13.3447 35.6177 13.5414 35.14 13.6806 34.6486C13.7163 34.526 13.7483 34.4033 13.7775 34.2816C13.8132 34.1599 13.8471 34.0391 13.8773 33.9193C13.9377 33.6785 13.988 33.4406 14.0274 33.2045C14.0603 32.9685 14.1143 32.7369 14.1445 32.5072C14.1774 32.2775 14.2022 32.0515 14.2186 31.8282C14.2671 31.3834 14.2991 30.9533 14.2991 30.5397C14.3202 30.1297 14.323 29.7389 14.3074 29.3719C14.2991 29.0068 14.2965 28.671 14.2726 28.3662C14.2608 28.2134 14.2488 28.0706 14.2388 27.9379C14.2324 27.8061 14.2242 27.6844 14.215 27.5728C14.1784 27.1289 14.1317 26.8627 14.1317 26.8627C14.1317 26.8627 13.8691 26.9505 13.4362 27.1509C13.2193 27.2515 12.9603 27.3806 12.6702 27.5444C12.3829 27.7083 12.0799 27.9105 11.7505 28.1484C11.0843 28.6225 10.397 29.2649 9.74911 30.0812C9.44254 30.4911 9.13231 30.9442 8.86874 31.4402C8.74155 31.689 8.62074 31.9472 8.50727 32.2162C8.39562 32.4852 8.28215 32.7625 8.20527 33.0508C8.12199 33.3391 8.05061 33.6291 7.9893 33.9193C7.96001 34.0648 7.92799 34.2103 7.90785 34.3549C7.88863 34.5004 7.87216 34.645 7.85843 34.7895C7.83006 35.0788 7.81084 35.3661 7.79986 35.6497C7.79804 35.7211 7.79529 35.7916 7.79346 35.8621C7.79529 35.9325 7.79712 36.003 7.79895 36.0725C7.80352 36.2126 7.80993 36.3508 7.81817 36.4881C7.83464 36.7626 7.85752 37.0326 7.8868 37.2961C7.8987 37.4279 7.92066 37.5569 7.94354 37.6851C7.96733 37.8123 7.99113 37.9386 8.01492 38.062C8.11742 38.5571 8.21808 39.023 8.36725 39.4421C8.50635 39.8631 8.64911 40.2438 8.78364 40.5769C8.93464 40.9073 9.07648 41.191 9.19728 41.4216C9.319 41.6522 9.42058 41.8306 9.49195 41.9524C9.56151 42.0741 9.60817 42.1354 9.60817 42.1354C9.60817 42.1354 9.65302 42.0768 9.7363 41.9689C9.82049 41.859 9.94221 41.6979 10.0886 41.493C10.236 41.2879 10.408 41.0399 10.5956 40.7562C10.7823 40.4744 10.9781 40.1568 11.2051 39.8063Z" fill="#DCD4D0"/>
<path d="M10.7065 48.1654C10.842 48.6102 11.0122 49.033 11.1906 49.4356C11.2767 49.6388 11.381 49.8282 11.4853 50.013C11.5896 50.1979 11.6958 50.3755 11.8028 50.5466C11.9108 50.7168 12.0142 50.8834 12.1268 51.0371C12.2412 51.19 12.3547 51.3354 12.4664 51.4728C12.6897 51.7473 12.9011 51.9934 13.1006 52.203C13.3065 52.408 13.4931 52.5801 13.6496 52.7192C13.9626 52.9964 14.1567 53.141 14.1567 53.141C14.1567 53.141 14.2344 52.9132 14.3378 52.5233C14.3899 52.3284 14.4485 52.0932 14.5081 51.8268C14.5693 51.5588 14.6215 51.2668 14.691 50.9374C14.7561 50.6106 14.8164 50.261 14.8658 49.8969C14.8924 49.7138 14.9079 49.5308 14.9335 49.3377C14.9583 49.1446 14.9793 48.9497 14.9958 48.752C15.0123 48.5543 15.0241 48.3549 15.0306 48.1535C15.0343 48.0529 15.0352 47.9521 15.0361 47.8515C15.0397 47.7481 15.0434 47.6447 15.0443 47.5413C15.0516 47.1249 15.0232 46.7103 14.9747 46.2894C14.7826 44.6091 14.2253 43.1413 13.6954 42.0221C13.5663 41.743 13.4355 41.4886 13.3101 41.2634C13.1893 41.0374 13.0886 40.8379 12.9944 40.675C12.8095 40.3483 12.6814 40.1635 12.6814 40.1635C12.6814 40.1635 12.524 40.3255 12.2842 40.632C12.1644 40.7849 12.0244 40.9752 11.8733 41.1994C11.7982 41.312 11.7196 41.4328 11.6399 41.5626C11.565 41.6908 11.4899 41.828 11.4139 41.9727C11.1165 42.551 10.7944 43.2703 10.616 44.0802C10.5683 44.2834 10.5254 44.4939 10.4878 44.7099C10.4695 44.8178 10.4521 44.9276 10.4375 45.0384C10.4265 45.1482 10.4174 45.2589 10.4109 45.3706C10.3844 45.819 10.3807 46.2912 10.4283 46.7725C10.4887 47.2476 10.5848 47.7152 10.7065 48.1654Z" fill="#DCD4D0"/>
<path d="M20.762 58.8427C20.7163 58.5873 20.6779 58.2955 20.6174 58.0044C20.5589 57.7116 20.4885 57.4096 20.3997 57.1057C20.3163 56.7964 20.2249 56.4761 20.1068 56.1641C20.0483 56.0076 19.9851 55.853 19.9155 55.6992C19.8487 55.5427 19.781 55.3825 19.7041 55.227C19.6273 55.0714 19.5458 54.9213 19.4607 54.7777C19.3765 54.6321 19.2813 54.4985 19.1972 54.3566C19.0224 54.0784 18.8339 53.8222 18.638 53.5861C18.5374 53.4699 18.444 53.351 18.3488 53.2375C18.2537 53.1239 18.1576 53.0151 18.0606 52.9117C17.9635 52.8082 17.8666 52.7094 17.7705 52.6151C17.722 52.5685 17.6735 52.5228 17.6268 52.4779C17.581 52.4312 17.5361 52.3863 17.4923 52.3415C17.1381 51.9874 16.8004 51.7165 16.5625 51.5252C16.33 51.3293 16.1817 51.226 16.1817 51.226C16.1817 51.226 16.1122 51.3962 16.0225 51.6991C15.9283 52.0057 15.8377 52.4303 15.7782 52.9574C15.7489 53.2201 15.7297 53.5084 15.7251 53.8149C15.726 54.1178 15.7517 54.4354 15.7946 54.7685C15.8166 54.9351 15.844 55.1053 15.878 55.2773C15.8954 55.3633 15.9137 55.4511 15.9337 55.5381C15.9566 55.6233 15.9814 55.7093 16.0079 55.7953C16.114 56.1393 16.2486 56.4907 16.4151 56.8412C16.5853 57.1891 16.7958 57.5039 17.0118 57.8077C17.1216 57.9577 17.2315 58.1069 17.3504 58.2433C17.4712 58.3778 17.5947 58.5078 17.7183 58.6322C17.8428 58.7567 17.9672 58.8756 18.0926 58.99C18.218 59.1035 18.3406 59.2152 18.4714 59.3094C18.7296 59.5043 18.9812 59.6782 19.2182 59.8302C19.3372 59.906 19.4516 59.9784 19.5632 60.0425C19.6776 60.1037 19.7875 60.1596 19.8918 60.2108C20.0995 60.3133 20.2843 60.3975 20.4372 60.4625C20.5909 60.5284 20.7136 60.5759 20.7977 60.607C20.881 60.6391 20.9296 60.6519 20.9296 60.6519C20.9296 60.6519 20.9286 60.6044 20.9259 60.5174C20.9231 60.4287 20.9185 60.2996 20.9076 60.1376C20.8883 59.8146 20.8462 59.3606 20.762 58.8427Z" fill="#DCD4D0"/>
<path d="M27.3889 63.3962C27.0192 62.6257 26.4847 61.6712 25.7023 60.8778C25.6017 60.7808 25.5028 60.6847 25.404 60.5895C25.3042 60.4962 25.2017 60.4083 25.0983 60.325C24.9949 60.2417 24.8906 60.164 24.7854 60.0908C24.6801 60.0176 24.573 59.9499 24.4715 59.8766C24.2655 59.7348 24.0587 59.6112 23.8565 59.5023C23.7549 59.4474 23.6551 59.3971 23.5563 59.3495C23.4574 59.3029 23.3668 59.2498 23.2745 59.2058C22.9102 59.0255 22.5844 58.8992 22.3492 58.8187C22.233 58.7766 22.1415 58.7427 22.0784 58.7199C22.0143 58.6989 21.9795 58.6869 21.9795 58.6869C21.9795 58.6869 21.9713 58.8352 21.9823 59.0896C21.9941 59.3431 22.0363 59.69 22.1269 60.1063C22.2184 60.5208 22.3584 61.0068 22.6009 61.4809C22.7189 61.7215 22.858 61.9668 23.0191 62.2102C23.1802 62.4537 23.376 62.6751 23.5893 62.8993C24.4458 63.798 25.5714 64.2729 26.4372 64.5137C26.6513 64.5805 26.859 64.6134 27.0412 64.6454C27.2241 64.6756 27.3843 64.6976 27.5171 64.7122C27.7825 64.7415 27.9371 64.7451 27.9371 64.7451C27.9371 64.7451 27.894 64.5978 27.8025 64.3544C27.7129 64.1128 27.5746 63.7752 27.3889 63.3962Z" fill="#DCD4D0"/>
</g>
<defs>
<clipPath id="clip0_382_3704">
<rect width="28.6364" height="67.5" fill="white" transform="translate(0.125 0.975952)"/>
</clipPath>
</defs>
</svg>
